<?xml version="1.0" encoding="UTF-8" standalone="no"?>
<svg
   xmlns:dc="http://purl.org/dc/elements/1.1/"
   xmlns:cc="http://creativecommons.org/ns#"
   xmlns:rdf="http://www.w3.org/1999/02/22-rdf-syntax-ns#"
   xmlns:svg="http://www.w3.org/2000/svg"
   xmlns="http://www.w3.org/2000/svg"
   xmlns:sodipodi="http://sodipodi.sourceforge.net/DTD/sodipodi-0.dtd"
   xmlns:inkscape="http://www.inkscape.org/namespaces/inkscape"
   version="1.1"
   viewBox="0 0 998 648"
   preserveAspectRatio="xMinYMin meet"
   id="svg3071"
   inkscape:version="0.48.5 r10040"
   sodipodi:docname="countyMap.svg">
  <path class="county" d="m 846.64271,343.50468 c -43.36448,-0.0132 -86.73612,0.65318 -130.08733,0.17665 -0.1936,21.99396 -0.243,43.89318 -0.3709,65.83976 -16.53009,-0.13024 -33.04039,-0.4539 -49.5877,-0.37765 -0.0458,10.94962 -0.17075,21.92165 -0.1983,32.87158 49.91664,-0.35744 100.59216,1.92944 149.93922,-1.0459 1.19089,-2.94866 6.67969,0.52383 6.52156,-3.09366 5.4883,-0.0535 7.09558,-5.87399 11.67579,-2.40469 3.51964,1.96836 2.95686,-5.0547 6.0197,-2.64859 -0.0807,-3.02805 -1.78843,-6.05747 2.1361,-7.09505 0.88192,-2.59021 0.21195,-2.35061 -0.9789,-4.81092 4.02017,-2.71043 6.11411,-6.09591 4.71292,-12.5476 1.99694,-19.43428 -0.24733,-43.72542 0.21784,-64.86393 z"
     id="Adams"
     inkscape:connector-curvature="0"
     inkscape:label="#path3073" />
  <path class="county" d="m 984.78657,578.55973 c -1.83149,-4.53721 -2.28133,-11.54408 -6.38917,-14.956 -5.50851,-1.18232 -0.33551,-4.21068 1.01705,-5.86321 0.65999,-3.52971 2.23518,-6.54608 3.49865,-9.73746 0.74069,-4.3314 -8.78452,-7.46997 -4.2291,-13.46429 -0.0276,-5.30479 -6.15514,-7.43521 -4.3568,-12.39483 -4.65215,-0.79839 -3.81002,-5.57452 -6.17431,-7.97344 -8.25289,-1.1632 0.12371,-8.58458 -0.4153,-13.14042 0.32722,-5.94294 -5.65894,-1.38411 -8.0469,-1.05283 -4.34162,-1.88748 -8.68938,-2.6746 -13.29564,-0.16394 -3.82258,-1.31849 1.28108,-8.00511 -3.73857,-7.38394 5.2875,15.35453 -14.63179,5.78784 -18.84022,11.98472 -8.31316,0.99605 -5.14141,13.85988 -5.25547,22.11383 -0.28282,9.60103 1.34158,21.32172 -0.25439,29.57357 -12.87389,-3.08081 -4.91035,13.77926 -6.79578,21.38773 3.71833,4.53968 16.50632,0.27616 23.24711,1.44131 16.59155,-0.14416 33.7135,-0.56013 50.02884,-0.3708 z"
     id="Asotin"
     inkscape:connector-curvature="0"
     inkscape:label="#path3075" />
  <path class="county" d="m 679.34244,526.64555 c 5.21378,-8.34628 -3.41602,-17.16505 0.87038,-26.11519 -0.53413,-8.57202 2.12832,-18.21788 -6.79805,-23.43918 -6.27069,-5.46233 -13.18401,-11.36162 -13.5577,-20.07503 -7.13674,-1.76113 -2.62139,-8.15346 -9.27066,-11.80274 -7.3952,-4.54731 -9.31606,11.53463 -16.44241,13.20551 -5.757,3.57795 -12.23265,-3.04592 -17.91124,2.31451 -4.7859,0.79749 -11.36184,2.04723 -14.9358,1.82806 -0.13199,24.8605 -1.37132,52.8495 0.15745,77.08612 0.22605,23.71416 -0.45465,47.2137 -0.67468,70.89036 11.09065,-4.12857 27.44591,1.80219 31.9735,-12.81191 9.76944,-5.2782 21.88397,1.92618 33.84072,-2.75241 12.55376,-8.26391 28.09405,5.3849 39.3756,-6.82367 7.15939,-1.5664 10.6259,-9.96109 15.63672,-13.50734 -0.81867,-5.64303 0.11749,-11.29566 -3.67197,-16.40873 -1.74928,-11.1417 -15.19759,-19.80602 -26.22918,-20.61378 -5.04362,-1.28335 -11.13446,-6.97833 -12.36268,-10.97458 z"
     id="Benton"
     inkscape:connector-curvature="0"
     inkscape:label="#path3077" />
  <path class="county" d="m 576.69793,199.98109 c -2.65722,-1.79634 -8.02242,-2.90119 -6.80439,-6.45877 4.55243,-1.26166 -4.67184,-4.52994 -7.84573,-4.9372 -3.87634,-2.58019 -6.82978,-7.91711 -10.78953,-9.73905 -3.10092,2.67822 -4.64224,-2.55475 -6.71777,-4.20427 -3.64666,-3.32957 4.03664,-10.98577 -1.23407,-12.71419 -4.88376,0.56752 -0.90802,-5.86402 -6.64864,-5.87916 -2.49427,-1.09619 -5.94009,-3.05756 -6.5196,-5.39614 -2.7874,-0.95839 -3.5721,-6.45591 -6.12143,-6.22779 -3.28892,1.79305 -6.61787,-2.03273 -8.10094,-2.79791 -0.0723,-3.90076 6.38338,-7.80363 1.37785,-10.30872 -2.90037,-1.1863 -4.87892,-4.54903 -8.96548,-3.70509 1.84504,-1.93545 -1.14566,-5.76372 -0.17758,-7.61417 -3.7729,-2.08287 0.80951,-3.37461 1.86707,-5.78097 1.49699,0.17647 -4.5093,-3.5594 0.49598,-5.10253 2.40236,-0.47475 -6.16294,-2.948 -1.41172,-6.04049 0.26114,-2.75228 -5.87044,-0.22509 -6.67369,-0.17846 -3.89559,1.94877 -12.09008,6.61291 -14.22892,0.60369 2.68527,-2.79657 -5.33133,-7.875875 -5.07369,-3.09196 -0.0396,3.85574 -6.19948,-2.682196 -5.60726,2.6418 -3.24282,-0.40803 -8.09834,-2.84574 -5.74882,2.88692 -0.57969,3.27687 -5.25361,0.51344 -7.7205,2.48348 -5.61465,-2.16928 -9.18244,8.23862 -4.06563,9.16563 0.43218,1.86746 -0.68767,5.12032 -1.08023,6.3981 -3.61856,0.036 -2.09473,6.33971 -0.20184,8.12979 1.77452,2.39473 0.17139,4.31882 -2.32612,4.45453 -0.71275,1.20562 -1.0873,4.11737 -0.15411,5.21818 1.94852,0.6049 3.90954,1.04961 5.23417,2.53122 5.411,0.1773 -0.71429,5.14211 3.21815,8.14453 1.81867,2.97372 4.92146,5.76373 3.74839,9.34859 3.18989,1.84023 6.24413,4.33354 6.77568,9.05494 -3.12509,0.47987 -8.05932,1.57209 -7.12986,5.8456 2.02594,2.45233 1.75532,4.69605 -1.30846,4.38862 -1.38248,2.80831 -4.00612,4.15862 -6.13823,5.68299 -3.52683,-0.27398 -6.84278,2.67515 -10.34243,2.35808 -1.64745,1.74221 -5.24224,3.09376 -6.49363,4.74295 3.25067,3.26874 5.37074,8.04989 1.35892,10.09277 -1.91396,0.62125 -1.93443,4.18232 -3.44537,5.68632 0.27636,2.35504 -1.36379,4.25201 -1.74446,5.8516 0.79962,1.27224 -0.2932,2.81063 -0.28363,4.73521 -0.22179,3.56 3.04373,1.71542 2.79556,4.63461 0.97616,3.48522 -0.64159,5.3484 2.89409,6.16101 1.2892,2.35866 4.28218,1.48094 6.57242,1.34411 1.97609,2.10091 -2.60234,6.02029 -4.20933,7.85788 -2.83873,1.47099 0.12632,5.04164 0.47209,6.39611 1.57751,-0.72064 3.83158,4.19054 1.98504,5.47316 1.33537,1.22623 4.54412,4.61124 0.15447,4.8247 -0.9967,1.52064 -5.03788,2.82734 -5.75882,5.16758 1.46192,3.18138 -1.56668,4.57088 0.0105,7.76265 2.15609,1.67773 0.8639,2.65888 1.20524,5.26803 0.16413,2.68999 3.74759,3.22612 3.49969,6.10239 0.2799,3.08281 3.21814,6.29725 5.58196,7.30434 2.04304,1.63854 3.82944,2.55769 6.20895,4.23711 -1.23785,4.74125 7.08792,5.49904 5.16606,10.0038 4.89091,0.29599 1.75688,8.43748 7.90651,7.09531 1.60209,1.93358 4.04657,1.29055 6.12198,1.98292 2.70747,-3.71282 5.67831,0.22626 7.13464,3.05756 4.27712,0.0956 7.54518,1.45775 7.78881,5.88442 4.85163,2.49614 7.05901,6.92282 13.2565,5.04013 3.67785,0.54066 5.77083,2.53924 5.83789,6.71794 3.48054,1.27242 5.16879,-1.91947 5.18619,-4.59929 1.14713,2.35142 5.02507,4.32594 5.95864,5.23608 4.17425,1.41097 5.20171,6.56763 9.99373,7.15714 5.01592,4.66749 16.59387,-0.013 23.64007,1.84636 7.47718,-0.009 18.0532,3.15726 16.48453,-7.42125 0.91915,-5.54563 -1.9034,-8.94736 -5.73509,-12.12892 -6.37242,-1.3524 -14.48289,-1.68604 -19.96982,-6.1399 -2.58855,-6.34598 -4.38796,-13.1519 -1.99563,-19.03307 -0.49874,-8.22452 9.12659,-11.5484 9.5747,-19.13016 -2.71601,-8.21634 8.85515,-13.80958 2.71796,-21.53749 -2.64384,-7.48211 10.9847,-14.62883 16.10673,-8.66416 5.52883,-2.99079 13.71715,-0.94062 14.5798,-8.56625 1.35618,-4.62471 2.44756,-8.02158 7.33167,-9.72918 2.67167,-3.70591 -1.51454,-8.83639 4.16073,-10.74331 5.97677,-3.13149 2.98994,-11.20021 -4.66681,-7.7564 -5.02443,-1.00554 -17.12141,2.29653 -17.89814,-2.65828 0.44622,-2.58287 -2.16115,-4.50675 -2.06442,-7.31518 -0.4512,-0.46202 -0.46031,-1.1174 -1.00152,-1.40117 z"
     id="Chelan"
     inkscape:connector-curvature="0"
     inkscape:label="#path3079" />
  <path class="county" d="m 6.1509542,126.54731 c -1.4576797,8.55745 -7.03176296,16.80353 -6.28347089,24.41835 3.92469249,6.36988 0.11508372,13.23622 2.63401889,21.07644 -0.7620434,10.18753 0.2679017,13.0999 3.356855,22.18719 -1.9729286,3.70841 3.2481956,8.92803 10.5257778,7.72889 38.138012,2.48951 76.261415,5.3504 114.581305,7.50984 6.43689,7.02928 25.80058,2.25425 36.92572,4.88461 16.09929,0.40412 33.97666,2.62997 48.90967,1.72478 0.45597,-11.91145 0.72209,-25.59823 2.53937,-36.50096 9.31585,-2.94392 -2.59113,-10.50911 -8.80426,-4.26669 -7.40337,-0.29614 -13.93542,-19.24283 -11.9061,-18.34985 -9.03722,3.41374 -14.83177,13.62195 -25.35428,11.04461 -5.12312,-1.45559 -16.41929,0.58721 -17.70147,-5.4026 17.83023,-2.75172 -8.18149,4.25483 -10.94828,-3.3816 -6.37004,5.72818 -10.68174,0.14822 -15.28294,-2.9449 -3.88644,-1.65387 -5.4898,0.0756 -7.57572,-0.45475 -11.77577,1.63579 -21.11984,-1.18382 -32.314621,-3.14331 -4.534139,-1.86914 -15.990696,-6.07814 -12.960132,-10.5035 -9.382319,-4.62276 -17.353838,-11.15506 -28.280955,-12.81706 -3.239168,-3.65078 -8.153424,-1.47802 -12.66156,-8.61651 -8.039159,-3.79645 -12.446194,-12.92056 -20.755028,-11.00315 0.760054,-5.30046 -10.8119932,-5.98407 -13.3769642,-3.55915 5.2714242,5.90057 4.7717865,13.85344 4.7330644,20.36932 z"
     id="Clallam"
     inkscape:connector-curvature="0"
     inkscape:label="#path3081" />
  <path class="county" d="m 290.17401,606.59393 c 0.8103,-14.0001 2.41095,-31.42878 1.18903,-44.62857 -5.18296,-2.38115 -5.91159,3.8129 -8.50812,6.1108 -0.64775,2.2357 -2.8947,2.73941 -0.12152,5.72683 -1.08138,2.92794 -4.30373,7.91235 -7.57518,5.34325 -2.82388,-2.08447 -6.63989,-2.89497 -9.40305,-3.79536 -2.80236,-2.77343 -6.5069,-1.22882 -8.13643,-0.61505 -3.807,-2.94929 -5.085,7.22002 -10.01078,4.75329 -2.42734,3.41818 -5.83805,2.61807 -9.01408,3.45106 -1.55233,1.46803 -5.21256,-3.8959 -7.34979,0.003 -2.12182,-1.04284 -2.32375,3.78834 -4.18235,3.70915 0.25879,2.55483 -2.22826,3.25736 0.71274,3.4326 -0.21877,3.20423 3.72191,6.09863 -1.45711,4.22114 -6.73101,2.33559 -10.06909,10.82514 -4.05715,16.92683 3.71762,9.00064 -7.59642,23.47407 6.39647,26.9632 10.07703,8.08593 25.12376,7.21944 35.45335,15.24337 9.45255,-5.94782 13.01866,6.13642 22.34484,4.57253 5.55827,-5.50761 1.48414,-18.33103 3.01649,-26.86952 0.30529,-8.18125 0.51358,-16.36665 0.70264,-24.54829 z"
     id="Clark"
     inkscape:connector-curvature="0"
     inkscape:label="#path3083" />
  <path class="county" d="m 844.40682,579.73265 c 17.00389,-0.21626 34.49487,-0.0787 51.22278,-0.47379 -0.61332,-21.47062 -2.68535,-40.95716 -2.05983,-63.32463 -12.61874,4.66917 -4.99104,-11.58894 -13.79163,-10.9018 1.1345,-11.53533 -4.65168,-16.24889 -17.40407,-13.56223 -5.05777,-6.89822 1.5236,-20.6993 -0.96642,-28.72366 -4.19253,3.06368 -4.18008,10.61627 -11.63175,6.43058 -6.70178,0.42838 -14.3951,1.29734 -20.00862,4.53379 -3.88805,4.77042 -11.60364,1.86003 -14.13072,-3.66777 -5.18649,-1.33829 -2.91056,14.37418 -3.96112,11.10365 0.35226,14.58807 0.25612,29.18451 0.44549,43.77639 14.35667,-3.7075 18.5239,2.93362 16.3552,16.22001 8.52073,-0.12301 20.73553,-3.56951 16.21861,9.52695 -0.25983,9.63946 0.8436,19.60756 -0.28792,29.06251 z"
     id="Columbia"
     inkscape:connector-curvature="0"
     inkscape:label="#path3085" />
  <path class="county" d="m 191.9143,542.02529 c 5.57937,3.69368 10.57464,9.62745 16.10451,13.29797 0.79812,11.03985 12.70531,19.09306 9.64356,30.63498 3.21108,4.57365 0.58847,15.35362 7.50931,9.47952 2.18154,-2.51516 6.51382,1.48097 2.3333,-4.04187 0.74209,-2.80247 -3.17551,-0.91628 -0.18479,-3.78107 -0.71097,-1.80234 2.99469,-3.73159 3.16964,-4.78358 2.63425,-1.24338 5.16773,-2.33208 7.44134,1.11145 2.14029,-3.27423 6.84448,0.15193 9.0778,-3.98576 3.46124,0.46072 4.73437,-1.8235 7.40277,-4.05458 0.0743,-3.85329 4.85999,0.29233 5.00893,-2.17038 2.59591,-0.35953 5.77761,0.99659 7.99699,2.41231 4.96136,-0.58757 10.28139,7.97899 13.97887,0.39493 1.77658,-2.22077 0.28049,-4.4027 -0.13736,-6.69278 2.27776,-0.5651 2.11628,-3.79486 4.37363,-5.31338 0.0824,-3.07202 4.65806,-3.85558 6.46468,-2.14667 -0.10968,-21.02878 3.18905,-42.38081 2.1283,-62.37626 -41.54552,-2.18544 -83.6259,-4.16396 -125.50131,-5.50481 0.29706,13.51498 -1.42376,26.97862 -1.16932,40.06794 10.22855,-7.62597 16.59744,2.44903 24.35915,7.45204 z"
     id="Cowlitz"
     inkscape:connector-curvature="0"
     inkscape:label="#path3087" />
  <path class="county" d="m 549.51434,291.32933 c -2.00295,7.15444 -4.61454,13.88492 -0.93301,20.85312 1.05148,9.69674 13.19388,7.78333 19.6528,10.36618 3.92503,0.0227 5.57066,5.12078 7.51988,7.19874 0.64026,6.20629 -4.92622,16.4115 2.13116,19.92774 3.25241,-1.65611 9.63567,2.7359 7.93273,-2.85085 -2.45857,-12.92255 3.45307,-17.23523 8.42448,-22.93398 6.59377,-2.47172 4.14421,-13.95693 13.10771,-14.12025 12.92649,-0.12349 25.8465,-0.3473 38.77394,-0.22528 0.36512,-7.79259 -1.92165,-18.69132 5.60084,-18.89364 2.25441,-6.05741 8.58844,-7.45034 10.96028,-13.1866 11.94186,3.2068 9.36843,-8.34629 13.59226,-13.14969 -1.51632,-10.87913 6.53814,-11.53441 8.24303,-19.08339 4.4611,-4.62403 0.57827,-17.43262 5.61762,-21.77765 10.05478,1.04735 6.07169,-11.61928 15.06006,-11.42282 6.73627,0.6806 13.08096,1.23069 13.9123,-6.42011 4.81895,-6.81558 -8.08553,-7.62878 -7.32894,-14.60074 0.44393,-6.29219 -3.57748,-14.33285 -10.54041,-12.29071 -4.40551,-5.43446 -9.21741,2.0609 -13.05894,3.81003 -4.01238,0.66645 -7.1946,5.46735 -11.27224,0.43235 -7.36671,1.88407 -0.61283,15.26812 -9.96378,11.88373 -6.09571,1.57446 -7.42444,-7.61498 -14.08778,-5.43905 -4.84857,-1.46867 -2.93876,5.75729 -7.78032,6.12297 -3.05412,3.17828 -7.04594,6.41174 -9.68962,9.42952 -7.14884,-0.17606 -10.68019,-8.53602 -5.40191,-13.97811 -0.41441,-7.61707 -7.46702,0.93096 -9.95326,-6.23632 -4.88663,-2.10332 -1.86302,5.67986 -7.66157,3.08859 -5.12158,2.5665 -14.92857,6.14582 -7.62464,12.49951 1.64119,4.46956 -4.69338,8.31678 0.4022,12.31597 2.43139,6.19773 -9.76736,7.62205 -5.77312,14.38477 -0.79092,5.25047 -8.37437,4.14767 -7.39545,10.26388 -1.55913,4.80794 -3.62715,8.99466 -9.09796,8.54659 -4.35145,3.52298 -8.02538,1.14177 -12.05893,-0.18482 -6.75123,0.86528 -15.23248,7.84008 -9.0013,14.31761 1.15954,6.99578 -7.07882,11.7197 -4.28604,19.16242 -1.11998,5.47238 -5.62538,7.83581 -8.02207,12.19029 z"
     id="Douglas"
     inkscape:connector-curvature="0"
     inkscape:label="#path3089" />
  <path class="county" d="m 734.77449,49.645286 c -0.0967,10.790785 0.2965,21.586484 0.0839,32.38169 -9.54229,0.223768 -1.52665,17.998414 -4.18889,24.933864 3.32248,10.13709 3.81825,22.89539 3.00624,37.03738 -0.29407,22.37831 0.0819,48.85492 -0.20595,68.84572 2.5643,3.25455 3.18793,9.27435 9.72406,8.47191 5.16462,4.67866 8.41842,1.23475 8.31715,-4.50615 4.7009,-3.10952 7.56564,4.90401 12.1693,0.9838 5.83957,-1.46089 11.83218,3.39804 8.14071,9.51738 4.21768,3.81625 12.65103,-3.69589 10.87308,4.64415 2.74505,5.30228 14.48086,7.0878 12.86232,-1.06582 3.12849,-7.02306 -1.13768,-13.90842 0.17399,-21.37335 -0.94695,-3.46225 -6.29486,-6.92499 -5.80371,-10.45414 4.5567,-5.53851 10.16956,-1.40102 16.04317,-2.33197 -0.35367,-4.45348 6.58494,-0.90231 4.37149,-6.86571 2.73124,-3.92493 -6.45936,-8.35974 -0.63835,-10.49273 8.78685,0.78638 4.72246,-9.43184 6.06976,-14.05028 2.29414,-3.72943 9.15122,-9.34414 4.64505,-15.11767 -5.20591,-6.54586 -2.07921,-15.87671 -6.5922,-22.66646 0.91043,-5.45985 -3.36789,-9.99894 1.96565,-14.29623 1.05,-3.01208 -0.0429,-8.3934 4.8617,-6.58288 0.72873,-5.69725 2.51011,-11.956149 2.56068,-17.872034 1.2338,-3.306688 3.51278,-6.325465 1.56452,-10.77245 -1.35092,-1.582535 -0.17278,-7.05855 -1.86786,-10.05957 1.62254,-2.204591 -0.97957,-2.52347 0.0647,-4.7797 -1.73712,-1.531372 0.89704,-1.65891 -1.08735,-4.05694 2.51227,0.05825 0.90391,-3.054436 -1.27658,-0.90022 -2.95303,-3.11637 -1.88943,-9.957038 -6.5082,-11.92199 0.5319,-4.16173 -4.76278,-7.931436 -0.6779,-11.41373 0.56963,-3.147599 -5.06294,-6.530049 -1.17272,-10.556308 -1.48901,-1.226878 -1.48278,-4.252443 0.19923,-5.436899 -4.98714,-2.353136 6.43812,-0.396599 -1.04489,-1.998821 -25.48664,0.340615 -51.35909,0.128702 -76.62964,0.346143 0.20534,10.801129 0.0405,21.629002 -0.002,32.410015 z"
     id="Ferry"
     inkscape:connector-curvature="0"
     inkscape:label="#path3091" />
  <path class="county" d="m 686.8966,535.90593 c 7.58442,1.45182 16.58496,5.23847 22.17432,7.4134 3.91853,-10.02613 17.01941,-6.49564 24.16149,-11.44337 1.57997,-4.61072 6.04203,-6.08479 10.3952,-6.40902 1.26559,-2.50116 -1.91228,-4.81686 1.34432,-6.57208 -0.68965,-5.73802 4.11955,-6.60644 8.18564,-6.54177 0.0769,-3.96467 4.46701,-5.60761 6.62469,-8.50431 2.69064,-2.8599 0.41169,-8.94747 3.39844,-12.81632 -1.62086,-8.18676 8.27286,-11.11619 11.5741,-17.07756 6.08025,-2.63773 8.69174,-8.29241 15.3342,-2.65926 5.33165,-0.50076 11.2358,-8.46442 16.79696,-2.22316 3.04958,-4.24048 9.18308,3.25021 8.63629,-1.38245 1.49357,-2.03646 2.84289,-3.86568 -0.64619,-6.66005 -3.20951,-3.21817 0.14054,-6.3496 -0.89522,-9.90627 -0.89489,-3.27326 -5.94091,-10.02564 -0.66209,-9.03717 7.04438,-1.16611 -27.59288,0.43121 -16.95408,0.091 -43.44998,0.70233 -86.56476,-0.17615 -129.97182,-0.16326 10.47381,15.99466 -21.10376,7.33746 -6.53954,15.00385 0.50616,11.04749 11.28538,17.14219 18.09805,24.65599 6.12044,11.5029 -2.19791,25.89634 3.45309,38.00115 -2.92461,6.69566 -2.03649,10.23674 3.9272,14.26983 0.46962,0.69678 1.14653,1.23199 1.56495,1.96086 z"
     id="Franklin"
     inkscape:connector-curvature="0" />
  <path class="county" d="m 868.00385,462.63529 c -3.37998,1.56392 -8.63274,-2.54268 -6.13763,4.72071 1.28155,8.29668 -7.95343,27.89696 7.71134,23.94927 11.96637,-2.27593 7.7548,11.76957 13.0315,16.17823 2.75837,6.50967 11.26562,6.96547 10.97703,16.62529 -0.55965,19.76413 1.7462,36.28678 1.99883,55.36936 8.64741,0.14095 19.5478,2.65372 15.85442,-9.21728 -4.2839,-12.4579 3.75529,-12.95635 7.51553,-17.543 -0.009,-15.32118 -0.7778,-30.32857 -0.71826,-45.56679 6.39892,-2.87611 10.81651,-7.41253 21.71447,-5.50797 7.94337,-1.09233 -0.96088,-10.88806 2.06113,-15.87455 -1.02738,-4.87518 -2.56497,-10.57743 -6.9799,-12.52048 -1.68274,-5.07683 -8.71251,-1.46928 -9.82647,-7.30524 -4.57108,-1.34365 -3.04649,-6.08724 -4.18615,-9.4382 -6.3233,1.34403 -6.96762,-5.17113 -9.96912,-8.61321 -4.13181,0.49862 -4.79332,7.00297 -10.26982,3.78729 -6.75891,4.72438 -10.27527,-1.78829 -15.3934,-3.7433 -6.43086,-0.57107 -12.93097,1.93606 -12.55612,9.1621 -0.95186,2.21623 -2.67381,4.37721 -4.82738,5.53777 z"
     id="Garfield"
     inkscape:connector-curvature="0"
     inkscape:label="#path3095" />
  <path class="county" d="m 638.04331,309.53675 c -11.81501,0.006 -23.80546,0.0563 -35.50544,0.40344 -1.51872,7.64346 -5.84291,12.27003 -11.02735,16.41375 -5.80787,4.37267 -5.95459,13.72159 -6.07132,24.09263 0.70984,5.55546 -1.08656,11.09114 0.52272,16.63152 -1.42517,4.68468 -8.97606,9.75833 -3.47863,15.21934 5.02966,4.95731 1.40616,12.75777 6.63835,18.20255 3.28775,7.97687 -2.56659,18.46971 5.35199,25.37992 2.07404,8.43497 -10.86761,13.27368 -4.30845,22.17062 2.95586,8.92657 10.98341,17.95982 21.37617,13.32129 6.58253,-0.24588 12.25635,-5.3111 18.65302,-1.47802 9.36452,-0.49615 11.45207,-14.56338 18.87431,-15.72064 6.11344,4.99922 6.80469,11.87892 16.37876,8.96639 2.57752,-12.7506 -0.52118,-30.96801 1.85323,-44.08196 16.32407,0.14052 32.58586,0.264 48.88567,0.46225 -0.0335,-64.60202 1.41588,-130.3238 0.7303,-194.31087 -0.0367,-7.09738 -11.17166,-1.23768 -15.86931,-3.20111 -1.95565,7.0666 -6.1377,11.90159 -13.66528,13.91102 0.57985,9.33768 -0.52087,16.91682 -4.4381,21.68773 -4.16448,5.23192 -6.1442,12.75942 -9.47787,19.10421 2.80008,11.78064 -7.66361,10.08162 -13.18019,13.26675 -2.81237,4.50952 -6.58623,8.30195 -11.20426,10.86752 -6.44834,1.7834 1.58247,18.35558 -6.28387,18.66246 -1.41135,-0.20502 -3.34675,0.2389 -4.75445,0.0292 z"
     id="Grant"
     inkscape:connector-curvature="0"
     inkscape:label="#path3097" />
  <path class="county" d="m 141.20893,361.29041 c -2.24068,-10.45641 3.46156,-27.39763 -0.84238,-35.75122 0.77521,-15.52973 1.86684,-31.04388 2.8051,-46.56153 -22.81247,-1.36197 -45.625305,-2.68342 -68.427431,-4.2339 -3.543434,-6.97928 -20.295813,-2.44633 -29.23759,-4.79616 -11.553866,-6.26453 -10.502663,8.52186 -7.372854,13.05296 -0.739212,-0.83788 -2.163555,4.26347 -1.05323,8.04696 0.412014,6.34951 0.366997,12.22917 4.5985,16.23152 3.050524,7.89315 10.122377,13.87282 9.275057,25.49968 -0.729421,4.69077 5.146436,24.04909 1.929635,13.76972 0.318184,12.61824 1.482951,27.01684 -2.014794,38.84512 10.222183,-3.21698 2.392651,-1.23976 5.329679,-3.29156 4.638109,0.39764 1.695464,2.09724 1.367494,-3.78277 -4.05321,-6.87923 -0.657556,-18.85928 10.689819,-13.42409 9.30348,3.39121 -0.478638,11.26038 8.699082,11.78549 12.924569,-0.50346 -1.397278,3.64573 12.111424,2.5156 4.563715,1.29023 5.178402,0.91268 7.57261,3.14731 -7.180096,4.31093 -19.557584,2.57202 -23.275094,9.34237 7.811294,6.92173 0.323431,-3.72295 -6.259571,1.36678 -4.229046,10.3003 4.587872,0.14496 1.251121,6.60107 6.635812,4.2158 0.138067,5.08083 -1.236756,0.0208 -3.175634,2.45322 -4.410213,-2.10925 -4.36747,-0.072 1.481598,-0.63265 -4.653223,-3.39378 -0.885518,-7.94131 -1.244719,-4.32234 -8.586435,-3.36973 -4.071459,4.26443 0.28735,10.83242 1.586736,19.056 14.698627,16.07799 35.527659,2.40247 71.431719,4.13446 107.169009,5.86206 0.54906,-12.73119 1.38631,-25.45441 2.19592,-38.16893 -13.28773,2.8774 3.50496,-21.3821 -11.06177,-17.32741 -9.85245,-0.55807 -19.73542,-0.21592 -29.58716,-1.07898 z"
     id="Grays_Harbor"
     inkscape:connector-curvature="0"
     inkscape:label="#path3099" />
  <path class="county" d="m 271.68921,156.64656 c 0.79055,4.8335 1.26045,17.60864 7.86864,13.52426 3.93812,5.82015 18.07443,23.1696 9.2293,6.64852 -5.16646,-4.45089 -11.95012,-15.30126 -9.23727,-18.65555 -2.76309,-2.35753 5.95782,1.11688 3.13889,-3.73988 -2.49193,-7.45392 11.02344,0.99686 5.80852,-6.52576 -6.46902,-6.13066 -10.93397,-1.25795 -16.3279,1.26922 0.78455,2.58303 -1.48736,5.06457 -0.48018,7.47919 z m -4.77206,-31.33253 c 1.46277,-4.29542 0.39203,-8.29868 -3.385,-7.99638 -5.23567,0.54835 -5.19544,3.80541 -9.23584,11.89573 -3.74978,7.35671 -11.02984,14.77555 -10.86493,23.20266 9.3025,2.94301 7.10589,15.21596 16.89647,10.8982 6.0886,7.07591 -1.40027,15.74943 2.46867,22.73579 -5.36315,5.65312 11.09474,6.69299 4.75673,13.11577 5.2922,3.2838 8.44199,-7.6239 10.22682,-2.01568 3.68074,-0.60258 1.22595,18.32204 7.85468,12.6998 4.03861,-1.75245 0.0292,7.42829 6.16586,-4.03343 1.42509,-8.27011 -0.4742,-18.16996 -9.14548,-20.22201 -4.89924,-9.52727 -12.13002,-12.55822 -9.37317,-0.59415 -2.40264,13.18583 -5.00844,0.90848 -4.03842,-5.02609 -5.82414,-4.01925 1.78449,-10.92197 -3.4719,-16.04822 -0.52695,-10.84955 -7.86283,-14.93727 -17.28988,-11.20696 -5.97603,-7.66549 15.26935,-0.74061 8.15446,-11.29542 6.89887,-0.0432 0.74056,-0.73244 11.15992,-2.78323 0.62512,6.68789 7.76819,1.85101 8.70726,-1.50491 0.98722,-5.81456 -13.06031,-8.26716 -9.58625,-11.82147 z"
     id="Island"
     inkscape:connector-curvature="0"
     inkscape:label="#path3101" />
  <path class="county" d="m 251.00887,191.90027 c 5.7647,-3.85744 -2.09497,-12.79583 0.15884,-17.95285 -8.65437,-1.40368 0.89337,9.08642 -0.64586,9.17998 -1.58552,2.45973 0.32034,10.92564 -2.34722,3.21714 0.65607,-4.16875 -2.97645,-13.40063 -3.11246,-6.20598 -1.80086,5.63491 2.06877,8.81368 5.9467,11.76171 z M 36.326668,269.30149 c 1.467745,-0.91339 -1.359392,-3.51675 0,0 z M 219.75336,169.52746 c 6.40558,0.35401 5.58263,-6.1219 0,0 z m 21.20889,13.4697 c -3.35395,-4.11753 -4.13068,-10.81037 3.38663,-12.08842 0.96748,-9.7477 -16.15819,-3.51846 -16.61578,2.89927 -4.55044,6.31567 11.854,8.52068 4.36901,17.46431 -4.43539,3.94514 -9.54482,3.13673 -2.91858,-0.46018 1.78612,-6.51054 -4.5934,-10.48574 -10.37803,-11.29897 -0.63447,12.44902 -1.93867,24.82808 -2.01665,37.29267 -28.65158,-1.44539 -57.32573,-2.68967 -85.94908,-4.71543 -7.10555,-6.726 -26.51812,-2.41011 -38.165381,-5.03232 -27.712967,-1.03271 -56.863621,-4.81718 -83.5087076,-5.12163 -1.128769,2.03244 6.5271736,0.0759 6.4740666,5.61568 1.178636,5.17241 9.530223,5.58811 8.228948,13.32424 0.05619,6.66733 7.849036,3.99496 6.648796,11.67706 2.34271,10.91592 4.561668,28.05247 6.568064,35.71713 -1.312239,1.26859 12.264614,2.01852 19.276044,2.39257 14.608917,-1.59284 19.067016,5.59343 32.639308,5.00589 18.051372,1.27564 36.114352,2.15121 54.170812,3.30922 -5.24303,-19.90473 9.21007,-18.00564 23.82195,-15.63941 13.86584,0.0297 30.15552,2.94101 42.79276,1.51706 6.16873,-2.00361 5.5457,-9.46731 10.34369,-6.60218 -0.82842,-3.61709 3.47245,-10.27358 1.83977,-7.42934 -0.34373,-0.39444 0.27996,-6.25921 3.05571,-8.68697 4.40571,0.57076 1.21366,-5.68457 1.46686,-12.29868 -1.1361,-5.41959 4.10975,-6.01922 2.10108,0.88642 2.42776,11.37488 5.71083,-15.10866 5.54824,-9.04411 0.58993,-4.30133 -1.05568,4.02473 1.32504,3.78605 1.88614,8.62209 -2.41009,17.89353 -5.76074,25.25141 6.9052,3.41736 6.02635,-0.47137 8.83931,-9.51188 3.95058,-5.74168 1.0247,-13.71662 10.35841,-15.82002 8.09971,-6.49249 6.90523,-11.44923 10.04327,-10.04152 -6.31259,-1.34024 -2.75049,-11.44098 -9.61864,-6.53315 -1.67736,2.69406 7.06273,-10.43851 -1.73401,-12.3412 -1.1947,-4.42084 -6.94092,-7.52236 -4.35331,-9.21788 -0.42921,-2.27772 -4.55139,-3.40288 -2.27886,-4.25569 z"
     id="Jefferson"
     inkscape:connector-curvature="0"
     inkscape:label="#path3103" />
  <path class="county" d="m 289.9335,276.5088 c 1.5878,-4.62074 -3.14887,-6.29353 0,0 z m -23.55967,29.91709 c 0.70941,3.65732 -1.61251,9.27992 -0.0867,13.5854 6.4458,2.75056 3.09561,-13.17418 9.24969,-11.07125 -5.66493,1.39268 2.69408,-5.52684 1.98549,1.22792 -4.83044,0.33348 -7.37587,12.00597 -2.20216,6.07708 3.03357,-4.62482 16.22785,-6.37244 3.05583,-8.68683 -1.3079,-3.26551 -1.78467,-7.7812 -0.25299,-12.14855 -4.48872,-5.62194 -3.31766,-12.2178 -7.32071,-2.59363 -4.14345,3.50232 -1.81046,8.96975 -4.4284,13.60986 z m 20.46807,-56.52352 c -3.95546,4.23795 -7.66531,8.2021 -5.15129,12.45774 5.81928,5.10306 3.56904,0.0278 6.97596,5.17059 4.88536,2.39731 1.47954,5.4736 1.66563,8.14688 -0.68937,6.05034 3.8825,8.08165 5.73479,12.12905 -4.49262,-3.29369 -6.94867,-12.25474 -8.94494,-14.0642 -7.70922,-5.85062 -4.30648,6.89821 -3.68342,11.75383 5.50039,8.79642 0.0299,14.14207 7.46736,22.84576 2.04138,7.25028 -2.19208,13.71366 -9.20801,13.54478 -5.697,2.72513 6.61028,8.30203 7.28209,13.26739 8.14568,1.08084 18.34998,-0.4786 25.18925,2.04972 0.60856,3.53652 2.87452,3.83273 2.59911,7.3788 1.49693,4.04978 6.16247,5.07828 8.55864,8.36993 3.85862,-1.72699 5.85777,0.72042 7.76436,1.54236 2.48743,1.71429 3.91674,2.11469 4.93407,4.88958 2.55743,-1.88575 6.3387,-3.24036 9.81458,-2.00954 3.75126,5.02157 6.533,-3.71619 10.3734,-3.40151 3.10972,0.94812 6.41038,2.71754 9.89993,4.49008 3.61481,0.48852 6.00498,-2.64545 9.55258,-0.28255 3.54716,2.13764 5.00063,9.25325 11.0681,6.14418 6.86949,-1.47119 8.29242,5.15243 13.22794,7.63604 1.9068,-2.405 9.63513,1.42657 7.0771,-1.7933 -5.68664,0.032 -0.91732,-11.5725 4.81521,-7.91659 4.8367,3.22195 8.64505,-2.96743 4.03734,-6.56896 4.55144,-5.0593 -1.38671,-8.5674 -5.72596,-10.16454 1.40397,-3.76892 5.72331,-4.6952 3.69867,-9.37708 -1.18249,-1.19749 -3.41737,-3.89095 -4.29886,-1.74672 -3.14886,-0.62911 -5.44449,-1.55885 -6.97742,-0.92515 -0.52034,-3.17992 -3.42897,-3.86216 -0.38927,-7.24618 0.46586,-3.27052 -6.98979,-6.10814 -2.74235,-8.6864 3.16206,0.90992 1.5787,-2.43504 3.93758,-3.8506 -1.77309,-1.42415 1.68062,-2.91831 -0.0127,-5.06953 3.61422,-0.72634 5.8001,-2.92255 6.68497,-6.34683 3.53851,-2.95134 6.46467,-3.37388 9.61057,-5.47459 2.00365,-4.47332 1.28363,-6.49506 5.40826,-7.24777 1.03783,-1.6163 2.10369,-1.91805 3.40969,-3.50262 -0.38149,-2.54053 1.53835,-5.88658 5.07756,-3.84627 2.6395,0.75873 3.56902,-1.78436 3.15058,-4.4683 3.01259,-2.1193 6.44137,1.62487 7.63083,-2.04572 -2.0506,-2.19091 1.25885,-4.27884 -1.81772,-5.62151 -0.43051,-2.60306 -0.52304,-4.12302 0.6937,-6.29479 -2.39795,-3.75493 4.15246,-4.66988 4.97696,-6.92524 6.28174,-0.78274 -2.44756,-4.21613 0.97669,-6.78451 -1.44317,-1.34029 -1.5128,-4.72657 -3.72861,-3.86685 0.85276,-8.00383 -14.14106,-2.52282 -19.68871,-4.44333 -46.9675,-1.21318 -95.14687,-1.86255 -142.14173,-4.88901 1.35579,4.00434 3.12102,8.818 1.21752,13.04348 z"
     id="King"
     inkscape:connector-curvature="0"
     inkscape:label="#path3105" />
  <path class="county" d="m 262.57759,229.27974 c 3.18493,-12.35746 -4.81301,-7.98235 -9.39911,-0.69088 -5.76703,4.60618 -8.84352,11.41874 -12.68868,17.16911 2.83682,7.13007 -5.11028,14.01816 -6.17585,12.11121 -6.42912,4.1693 -5.85432,-1.9517 -9.46415,4.08881 0.68704,-0.17694 -9.01192,-0.0954 -7.34938,5.79966 -6.19099,1.15223 -13.26989,16.93474 -12.28015,14.05732 9.05031,-0.21938 18.01163,0.54745 26.97249,1.36532 -0.63835,7.24959 -0.67947,14.61256 -1.2813,21.8771 6.70254,-0.49149 17.62236,2.37657 21.8563,0.0445 -0.0477,2.07646 14.61924,3.29343 10.26477,-2.64692 4.0238,0.0804 1.12599,-11.60773 6.5465,-14.59153 1.87001,-5.78882 -9.6232,-0.52257 -4.58575,-10.1593 0.6875,-1.60051 0.41622,-6.22653 -3.195,-5.35559 -3.14895,7.18375 -11.06489,8.77558 -16.59455,9.93346 6.90436,-6.89657 6.2618,-3.47705 8.32195,-5.64647 -0.17423,2.23778 3.57607,-2.61859 -1.67343,-4.31393 -2.85264,-1.76325 -3.63621,-4.85829 -3.11685,0.73159 0.3764,2.59812 -1.48835,-4.29704 -1.78722,-2.4199 1.4033,-3.52831 -5.75433,-2.8704 -0.0509,-10.2356 2.89623,-1.37806 2.62952,7.35805 5.28277,11.21493 6.60718,8.18898 7.45247,-4.33011 6.97123,-9.52899 -5.62332,-0.77543 0.57161,-14.05586 -3.89237,-12.20851 -0.42073,0.55701 -2.21041,-1.92369 -3.74871,-5.10365 1.97074,-7.10265 2.83003,1.79984 5.34398,3.33026 2.86058,8.27461 7.72882,-0.40103 8.63799,-5.62744 -1.23807,-7.63691 5.8204,0.17242 2.36171,-0.47132 5.39113,3.50002 12.1569,-3.02651 4.5856,-7.6018 -4.65621,-1.30535 7.4995,-3.3096 -0.35773,-8.28991 -0.88452,-7.13553 0.90793,-18.55494 -9.60596,-17.30342 -7.13223,-8.06113 0.49586,4.55494 0.37111,3.31695 -0.3491,-0.0316 1.96204,12.49228 1.71923,15.68956 -1.05661,-0.74198 -1.75375,1.9702 -1.98854,1.46534 z m 3.50112,35.08949 c 2.47664,2.04729 4.25806,1.07113 5.61806,0.87586 -2.69049,-5.15668 -1.1771,-5.62936 -0.70318,-11.5102 1.33558,-8.68641 -5.07299,-0.14484 -4.96275,-2.29358 5.15942,-0.0782 -3.40272,-8.81531 -2.31999,-0.93133 0.2141,8.36678 0.77302,4.0698 -3.86325,6.83259 -1.36854,1.42668 4.52102,4.0497 1.40275,4.07597 0.29531,4.22646 -1.12232,12.31281 3.62291,7.72557 -1.15115,7.67256 13.61985,4.8527 4.42108,1.81766 -1.43448,0.52159 4.87564,-4.24277 0.60661,-4.30366 -0.98443,0.66478 -3.5957,-1.10838 -3.82224,-2.28888 z"
     id="Kitsap"
     inkscape:connector-curvature="0"
     inkscape:label="#path3107" />
  <path class="county" d="m 415.89311,336.65757 c 2.43993,4.56056 -3.82894,5.43769 -3.38301,9.396 6.89627,0.78736 7.73767,6.16458 5.98465,11.13049 5.13604,5.22161 -3.38128,7.1486 -6.81635,4.31141 -6.26528,0.69963 -6.47945,9.45597 -1.70148,9.87735 -0.32602,2.94073 2.65349,3.9587 4.59534,2.08146 4.86673,0.18732 9.8194,-3.16915 13.86526,2.28887 2.53665,1.70654 4.19027,4.79516 6.57119,5.58958 5.47674,2.14188 5.66941,8.93416 11.22054,9.41669 0.18165,7.18791 5.08925,10.28635 7.7031,15.22508 16.49561,1.24864 35.42688,-0.55681 50.39509,2.2326 -3.90084,13.93081 2.44101,17.67568 15.66521,15.57633 -0.77343,9.33773 -2.99842,20.27567 9.89966,16.55964 19.18095,0.0923 40.52638,1.81627 58.91014,0.30525 2.01401,-5.89875 10.29622,-13.01518 2.73403,-19.1605 -4.14156,-8.3947 1.95989,-18.51899 -4.95359,-26.2114 -1.81998,-5.17156 -0.60104,-11.38581 -5.76538,-15.3306 -2.14779,-7.70685 9.47068,-10.79422 3.95082,-18.86587 1.61753,-4.81304 2.48242,-14.56966 -5.07075,-11.58189 -4.01985,1.1323 -6.02643,-4.04094 -5.33662,-7.16294 -12.27709,-0.99424 -27.31994,1.32497 -38.34844,-1.31973 -2.5877,-1.99821 -6.25895,-2.63189 -7.52518,-6.0588 -3.64969,-1.95607 -4.407,-2.86355 -8.07178,-5.39439 -2.12596,-4.35984 -0.25549,3.76248 -3.68056,3.26406 -4.5519,0.57595 -2.1842,-7.74625 -7.58347,-6.66428 -4.89547,-0.0108 -9.06316,-0.19019 -11.79373,-4.60391 -4.15237,-1.44946 -2.67082,-7.62691 -9.01359,-6.59137 -2.82393,-1.21032 -4.45862,-7.5392 -8.01091,-3.23697 -1.96351,0.0373 -3.90572,-0.50089 -5.74751,-1.35856 -2.31987,-0.99481 -6.29514,-1.42471 -5.37923,-5.39145 -1.24302,-2.51435 -3.70793,-2.27427 -3.3368,-5.11047 -2.2081,-2.86593 -5.57257,-3.85892 -5.2538,-8.01324 -3.57565,-0.81469 -4.78944,-3.12966 -7.56836,-4.28684 -2.66794,-2.40146 -3.93826,-5.57387 -4.59212,-9.01919 -1.59598,-0.69962 -2.4981,-2.5761 -3.67965,-0.98084 -2.21434,-0.94582 -7.10721,-1.0776 -5.96778,2.8423 -1.03062,4.5368 -7.71175,-1.62202 -8.13776,3.63117 0.064,2.8404 -2.11612,3.64096 -3.14372,4.88091 -1.23007,1.28004 -3.55164,1.37614 -4.22215,2.78844 0.33901,2.51605 -3.20595,7.6119 -6.68988,7.48739 -2.62835,1.84268 -6.33302,3.62707 -6.13639,7.23515 -2.48293,1.10275 -6.29532,1.71737 -4.55478,4.63717 -2.43966,1.56509 0.72654,3.51303 -2.53857,4.82156 0.95375,3.12981 -4.81553,0.41792 -3.06611,5.17009 4.22443,1.74781 4.23967,5.63488 2.38164,8.88637 1.8283,0.77571 1.64657,5.6725 3.71429,3.04217 2.28221,1.5218 5.54023,1.13623 6.80327,0.66122 -0.17705,1.93387 3.27006,0.45944 2.67522,3.00449 z"
     id="Kittitas"
     inkscape:connector-curvature="0"
     inkscape:label="#path3109" />
  <path class="county" d="m 406.83509,631.65371 c 7.96967,2.98107 22.34403,5.0433 19.95693,16.91102 7.35334,7.1683 11.22984,-4.18081 17.35892,-6.30778 9.6255,-2.1764 18.68339,5.73642 25.41055,-1.05705 10.4044,-5.19108 22.73962,-8.77982 32.11887,-15.28978 11.53332,-1.12832 15.71088,15.76656 28.90165,9.33789 9.00543,-2.37184 18.91933,-3.72805 26.83541,-6.56 7.06539,-10.00949 21.29516,-8.61556 30.63491,-16.19032 11.81943,2.27798 14.73528,-5.58749 12.90948,-15.57185 -1.29126,-7.79815 2.82264,-20.57675 -1.96117,-24.746 -74.98528,-0.69623 -149.82067,-3.08508 -224.71517,-5.20491 -0.74111,16.83744 -0.49583,32.73206 -0.72657,49.05988 4.75627,0.88348 16.17626,-1.43742 9.12516,3.14575 1.09113,2.79991 2.61116,4.45004 1.95584,8.06895 7.60158,3.48818 13.14057,8.96103 22.19519,4.4042 z"
     id="Klickitat"
     inkscape:connector-curvature="0"
     inkscape:label="#path3111" />
  <path class="county" d="m 401.61716,469.99585 c -0.5999,-2.52866 3.89386,-4.49568 2.12884,-7.50722 2.60145,-1.82143 3.17498,-5.48863 1.4717,-7.6417 -4.36197,0.0925 -2.54895,-10.08984 2.07719,-7.70063 1.38107,-0.966 -0.39795,-4.92012 3.48526,-4.76475 -0.7,-4.88348 -7.72121,-1.60605 -9.61193,-6.12034 2.66911,-3.76619 -2.24021,-2.27796 -2.06207,-5.76257 -4.11307,-5.57296 -16.09562,-0.31293 -22.77437,-2.69752 -8.77502,-0.9875 -20.58868,-2.53453 -23.93584,6.10342 -2.25312,2.04744 -3.90418,4.2313 -7.4426,3.13364 -4.69923,-1.5603 -8.40097,-2.17973 -11.24731,-5.26761 -2.37756,3.28959 -4.92622,-0.20377 -6.94983,0.72381 -1.46535,2.56849 -5.93201,0.197 -9.30242,-0.716 -3.88165,1.11731 -5.94435,-0.86631 -9.54785,-0.85713 -11.85435,-3.89885 -31.8891,-2.00541 -46.3278,-3.4561 -27.39889,-1.13553 -54.7921,-2.76935 -82.19075,-4.03502 3.3908,-11.62609 -14.72066,-3.40003 -20.70002,-6.56451 -11.50198,-1.23194 -4.19118,16.77893 -6.58746,24.59731 -0.9625,17.77175 0.15853,34.06616 -1.48626,52.31144 85.33934,3.21938 168.78581,7.49491 253.4225,9.22272 3.19416,-4.57713 -3.18898,-8.76013 -2.07218,-13.52483 -3.27786,-0.74333 -2.19298,-5.21741 -1.59303,-6.71664 -5.5334,-1.39326 -3.53332,-8.63528 1.44399,-9.29093 -0.71375,-1.61698 1.75174,-2.49576 -0.19776,-3.46884 z m 0,0 -0.0259,-0.0966 0.0259,0.0966 z"
     id="Lewis"
     inkscape:connector-curvature="0" />
  <path class="county" d="m 716.5554,343.67972 c 49.13124,0.41023 98.28866,-0.10823 147.42783,-0.37105 -0.94281,-35.70242 0.78782,-71.95082 -1.60356,-106.82501 -1.54955,-1.18817 -6.70193,-5.40253 -7.86058,-1.51668 -3.82786,-0.45419 -4.99522,4.90134 -9.51274,1.20375 -5.92122,-2.85178 -5.448,6.53062 -10.26598,6.89218 -1.3181,0.37211 -7.17147,-2.20613 -6.75197,-6.26572 -4.79759,-0.33588 -2.10205,-9.35409 -7.14417,-10.81962 -1.1536,0.42802 -1.1933,-4.01497 -3.0191,-3.53915 -0.70881,-2.88463 -3.22288,-5.55902 -4.97543,-7.36289 -3.94021,0.84443 -6.33901,1.49187 -9.61768,5.0619 -3.05212,3.04691 -4.539,3.9797 -7.09049,6.76583 1.29282,7.31281 -4.22932,13.21029 -11.25071,7.46681 -4.25086,-1.47937 -0.0507,-9.84629 -5.80539,-6.20904 -6.73753,2.25243 -8.06835,-2.57923 -6.56055,-7.87022 -5.7119,-5.86464 -12.82966,1.6386 -17.80314,-4.23653 -6.71358,-1.93324 -1.50813,12.022 -9.20356,6.60717 -5.301,-1.82483 -10.76268,-3.36619 -11.368,-9.58434 -5.57754,-0.86099 -10.9449,4.47904 -16.64859,2.39058 -0.43279,42.77229 -0.75933,85.42876 -0.94619,128.21203 z"
     id="Lincoln"
     inkscape:connector-curvature="0"
     inkscape:label="#path3115" />
  <path class="county" d="m 226.78474,317.86198 c 2.54634,-2.71046 0.16385,-3.00224 0,0 z m -0.85868,3.75002 c 4.026,-3.918 -0.34578,-2.54378 0,0 z m -7.09038,28.40293 c 8.18419,-3.90786 3.13239,-12.12766 2.11841,-16.82144 0.63322,-3.49407 0.0664,-6.27354 2.01899,-8.30564 -3.77207,0.86638 -3.84421,5.21708 -5.66614,2.03592 -4.18468,1.49103 -2.6882,7.91978 -3.11766,10.77403 2.83493,2.41035 5.81897,7.80223 4.6464,12.31713 z m 7.42807,-53.02946 c -0.27689,3.29199 -9.3034,11.78607 -17.39118,11.5962 -5.49661,8.7149 -15.82376,0.81094 -18.44035,6.90814 -3.78891,4.84991 -1.20548,0.0296 -0.56053,-0.16036 -0.76521,0.93112 -7.1419,-2.83614 -3.22281,-7.0045 2.68458,-9.06125 4.83608,-15.64059 10.60987,-21.06375 5.0544,-6.94549 3.42964,-11.22 9.35965,-16.07004 9.19866,-9.16697 -7.73121,-4.49988 -12.91664,-6.4778 -16.51846,-0.54274 -33.0279,-1.95363 -49.55163,-2.56226 -1.16765,21.92646 -2.8149,43.82229 -3.91506,65.7538 4.4725,5.3975 -0.46454,19.15324 0.55466,27.65548 -2.78626,10.82301 13.45342,4.74308 20.07993,6.46668 10.81245,0.20289 21.6073,0.86793 32.40942,1.565 -0.10219,-3.00154 -3.33292,-2.72562 3.13534,-6.84461 6.95267,2.04943 5.13334,-10.75613 -0.24349,-4.38638 -8.68014,6.23471 3.19181,-5.78088 5.84726,-1.35979 6.73013,-2.36222 14.37134,-11.44252 2.26405,-8.16419 1.49274,-2.68897 -18.87442,0.1681 -9.21847,-5.81215 3.11808,-4.17652 12.34431,-9.69518 3.07712,-1.65273 3.97698,3.81559 -8.81875,5.46354 5.30108,5.10182 1.06945,2.69919 10.59663,1.46904 7.88967,-1.07876 0.82215,-4.1394 1.79948,-5.84555 2.38471,-9.64582 -1.11155,-5.40443 9.22424,-4.23174 8.34433,-8.65459 2.91784,3.93443 5.37417,-6.50283 5.06713,-7.36233 0.19834,-1.20735 0.21244,-14.13558 2.29188,-6.51514 -0.85094,11.42654 2.24953,1.51329 1.74922,-4.86638 -1.01566,-7.73106 5.44246,-21.64856 -6.28814,-19.79929 -8.52604,0.61328 -22.4872,-5.42683 -23.95496,6.4188 -2.94988,6.90815 -4.74063,4.41281 -9.19419,14.36928 -5.6074,7.80645 10.23606,5.57572 8.47153,6.1158 -1.39071,6.29896 7.48709,-5.52513 12.76734,-5.28452 5.0803,-1.90544 10.52822,-5.77243 13.29326,-7.18561 z"
     id="Mason"
     inkscape:connector-curvature="0"
     inkscape:label="#path3117" />
  <path class="county" d="m 621.6754,185.85886 c 1.19956,7.15297 9.09402,-3.55642 8.26452,5.34299 -5.90174,5.46445 -0.66126,14.82951 6.43854,13.5967 2.71784,-5.89068 9.60097,-8.26049 12.90615,-12.87971 -0.14908,-5.08194 10.19163,-2.84023 11.48611,0.75237 4.11237,4.55378 15.08034,3.57776 12.04635,-4.88429 1.99211,-9.64222 9.06345,1.28204 13.11577,-4.75675 4.66387,-0.56656 7.96326,-6.58392 12.92076,-6.25777 3.99023,3.57252 10.84428,0.29502 12.09398,8.04385 -0.15188,7.47667 3.18818,12.87478 9.39895,16.5307 0.62004,5.05207 -7.37616,10.44488 -2.25629,14.37384 7.04463,-0.44058 19.01524,-1.10849 15.53699,-10.78895 -0.19463,-30.18586 0.006,-60.37126 0.27166,-90.55593 -7.48902,-3.81066 -1.21645,-21.184006 -3.27714,-30.387414 7.78565,-2.735744 3.13095,-17.67505 4.10981,-26.77606 0.016,-13.33914 0.32561,-26.722439 0.0293,-40.073066 -82.68423,0.376281 -166.45233,-1.742018 -248.77672,-2.70387 1.45964,3.345365 -6.75706,3.787251 -2.2654,6.611677 3.83373,-0.07464 4.31415,7.786139 7.05732,2.767865 1.17136,-1.96532 5.14604,-3.035798 6.75845,0.880907 1.95408,3.301255 -3.68364,2.827423 -1.39599,6.378717 0.0848,1.97572 0.84549,3.681215 -0.12127,5.726867 1.93943,2.347869 6.16742,3.794234 3.61207,8.45338 -1.16127,3.509806 -0.33942,6.972553 0.91665,11.14321 4.23635,1.223502 3.56238,6.579247 7.58638,8.21635 2.14095,2.647553 -3.71461,3.13101 -2.20705,7.2173 -5.77353,-2.857395 -2.81061,7.061607 -7.34898,5.80003 -2.4083,0.713045 -1.3355,3.531907 -4.39438,4.07687 -3.62312,3.163973 -0.95635,12.058358 4.55551,11.20289 1.66941,-4.632108 3.5959,-1.777298 5.74772,1.35849 0.19418,2.484412 -5.69181,7.518487 0.13894,8.245187 4.9943,-2.24145 4.57975,0.73045 3.39346,4.1634 2.40835,1.57211 4.72031,2.05529 1.24753,3.49647 -3.43844,2.63777 4.38112,3.6977 -0.13549,4.90235 -1.48062,2.36114 -3.91924,3.25233 -0.75274,5.68935 -0.74176,1.65509 1.13811,6.12352 0.53113,7.00172 4.51389,-0.82425 6.55013,3.29333 9.68149,4.44494 2.95447,3.22227 -5.05136,7.52761 -1.81605,10.21914 2.21897,0.94469 5.25512,3.93962 8.42163,1.67659 1.58841,4.09656 5.06401,6.14878 6.8792,9.44128 2.58066,2.00648 6.2216,2.3751 8.72205,5.11638 -2.27939,3.19636 2.73795,2.93209 3.70235,3.76997 2.51811,4.71507 -3.58519,9.22252 0.52011,13.52683 2.70527,1.1979 3.55925,5.35712 6.69678,2.96747 4.10406,2.33559 6.55104,7.8236 11.35012,9.89932 3.31063,1.01884 7.53805,1.66235 8.56671,4.53688 -4.07724,0.0391 -0.69247,4.22562 1.73279,4.91938 4.12594,0.87005 4.78351,4.73098 5.78176,7.66469 2.03782,2.03591 -1.02779,4.48889 2.9247,5.11733 6.43281,-0.36028 18.27864,1.35966 21.72689,-0.43825 -2.18326,-4.69344 4.75771,-9.5159 -1.42867,-14.21497 -1.48634,-4.94534 7.2496,-6.59316 10.65058,-8.54801 5.4208,2.18818 2.12556,-5.38605 7.03024,-3.12649 0.60864,0.17023 1.29077,0.62609 1.62472,1.11785 z"
     id="Okanogan"
     inkscape:connector-curvature="0"
     inkscape:label="#path3119" />
  <path class="county" d="m 72.554435,484.87039 c 7.307931,1.62402 1.686158,-9.32134 1.962302,-7.35864 -5.058493,-0.301 6.602332,-2.09227 -0.990448,-4.08278 -0.435034,1.47981 -1.736017,-3.10229 -1.776556,1.09717 -0.182459,-2.95417 -2.626499,-0.11929 0.125688,-2.62183 -3.175396,-2.5294 2.508245,1.66061 -0.385013,-4.14152 -4.640289,1.88996 1.332662,15.25214 -2.005313,9.13012 4.893761,2.10025 2.54675,4.19627 3.06934,7.97748 z m 12.953657,-64.8628 c -2.487572,-6.78291 2.232424,3.92987 0.922958,1.51274 -1.235115,0.25147 3.818917,5.34429 5.076935,6.19716 2.301094,2.52195 6.73037,9.47688 4.556074,6.95789 4.688831,2.70979 10.832991,-4.65193 8.936861,2.05704 1.62815,1.14521 -1.25915,-4.96673 -5.792296,-1.13966 -3.988855,1.6016 -14.455696,-10.21979 -18.061453,0.59495 -4.968679,5.53772 1.683698,7.4925 -2.026123,7.89338 0.60783,6.40211 8.983902,3.20177 4.200667,6.01781 -0.391308,-0.34995 -2.104751,4.3711 -1.75626,-3.46343 -10.004588,-8.48194 -4.091044,0.95959 -1.722447,8.64014 3.908739,2.51205 3.243208,8.11918 3.136745,10.54755 -0.979224,-0.40485 -8.354942,2.10525 -5.606942,8.4388 3.894447,7.85393 7.538814,5.69666 10.809175,10.97641 0.169246,3.21622 4.218149,10.67047 1.204401,5.26779 -0.188768,-3.69538 -8.300055,-12.80704 -6.848388,-6.24011 -1.316236,-2.96462 -5.392825,-2.00776 -5.408319,-8.59296 2.848429,7.08104 -4.083261,9.39225 -2.466939,16.29369 -3.152527,6.41293 0.151162,-3.01374 -3.448229,-1.66425 -2.869434,0.0512 -6.407238,3.73424 -5.44571,-2.1643 -0.253915,-11.0634 -0.642187,-24.50751 1.276744,-36.57675 -3.686006,-4.26751 -2.519026,-18.94926 -5.345033,-7.04941 0.401927,22.04622 0.146335,45.973 -5.328785,66.12495 6.983081,-3.73681 4.436889,2.297 4.31521,-5.91849 0.578065,-2.85062 10.89447,-0.54621 11.260216,0.29584 -3.106063,3.33471 10.174227,18.43045 14.046668,8.76305 5.982026,-6.72412 16.064858,1.30632 16.448978,-9.52799 -4.906027,-20.30023 16.21249,-10.45929 28.45306,-11.4099 15.07963,3.75752 23.85078,0.54628 20.74467,-16.1153 -0.82644,-19.33138 1.942,-42.27629 -0.11062,-59.91287 -30.66918,-2.72381 -61.201798,-2.80071 -91.715542,-5.75816 -8.603745,8.19929 15.609765,22.27049 6.928421,13.87979 2.459169,-0.42333 3.300684,5.36171 6.265148,3.29054 2.757127,3.07457 -0.48023,-5.91185 1.796869,-5.65788 6.374132,6.38596 12.233114,-3.88525 10.702835,-2.55767 l 4.51e-4,-3.9e-4 z"
     id="Pacific"
     inkscape:connector-curvature="0"
     inkscape:label="#path3121" />
  <path class="county" d="m 935.56443,194.72035 c 7.63734,-1.61731 21.22301,2.63215 24.91435,-2.74091 -0.40607,-58.74129 -1.61389,-117.791912 -3.02241,-176.741647 -15.94267,1.109788 -34.96506,-1.142516 -49.01819,1.746373 4.42805,16.773759 -14.22725,11.340866 -7.99065,29.679437 -13.2762,-4.526683 -6.36187,10.769388 -7.75346,17.81386 -13.60527,-5.717903 -11.10979,23.097455 1.25342,16.279667 11.89147,-3.806748 5.4881,11.643476 7.1882,18.314383 0.58502,26.468547 0.93513,53.086887 1.31304,79.468087 16.71837,-6.62972 -0.16837,21.55463 15.50816,16.29588 5.84908,-0.11969 11.75249,-0.0762 17.60754,-0.11513 z"
     id="Pend_Oreille"
     inkscape:connector-curvature="0"
     inkscape:label="#path3123" />
  <path class="county" d="m 254.07996,341.29595 c 4.83888,-3.34107 -1.45772,-6.20781 -3.14179,-9.40737 -1.22979,1.06271 -4.78757,-5.07063 -3.29808,0.0555 2.31992,3.11785 4.02306,6.432 6.43987,9.35191 z m -6.99455,-20.69484 c 4.10154,-1.63821 -3.74675,-1.11738 0,0 z m -22.13815,12.04003 c 5.03152,-5.01471 -2.16265,-3.18881 0,0 z m 16.51475,25.70142 c -0.68709,-4.17842 0.61347,-7.68587 0.065,-4.77974 5.81014,5.83421 3.5686,-11.03919 -1.24423,-6.18877 -1.96603,3.136 -3.52094,8.10145 -2.85248,6.35481 -0.39439,0.59317 3.20816,4.16391 4.03168,4.6137 z m -10.55066,-53.28493 c -1.91349,7.88763 3.13825,6.28397 0.55987,10.20282 6.11768,-0.0365 -3.4814,5.48447 1.01312,6.87191 -2.44641,4.36478 -9.58115,14.97545 -3.85011,17.69959 1.84943,5.28289 4.55322,14.18256 7.32441,5.69846 0.0749,-3.86005 -3.03864,-4.54846 3.68476,-5.53957 -0.14581,-5.07518 0.21163,-7.32771 -3.95149,-7.43349 -0.83817,-1.40415 0.12705,-5.41971 3.71947,-13.9376 -3.38805,-2.93154 7.25414,-0.59076 4.18583,-6.40144 1.69333,3.91758 14.80232,-4.96261 5.92125,-6.23197 -6.22387,-0.28073 -12.35792,-0.65465 -18.60711,-0.92871 z m 18.41763,49.41701 c 3.20414,-2.50277 -0.0345,-6.35125 0,0 z m 3.95966,-28.4958 c 0.8301,7.39895 10.21771,11.2908 6.80527,-1.36542 -5.25895,-12.9275 -0.49703,2.15992 2.24445,-10.06633 5.46983,-6.82387 -4.60555,-10.61347 -9.83269,-7.71814 2.76952,4.99842 -4.70821,8.48104 -4.80453,11.43311 4.75495,1.62873 -2.3526,2.08404 -2.58161,6.59275 -0.41776,2.52427 -3.46808,3.47994 2.71011,3.93257 6.00413,2.92404 10.44568,3.78323 5.459,-2.80854 z m -8.88502,19.77337 c 9.90602,-1.39426 -3.18085,-9.17036 -0.99423,-7.18754 -5.75731,1.93554 -5.81466,5.57974 0.99423,7.18754 z m 12.61066,-1.61904 c 0.59684,5.51015 1.37212,1.43301 -3.58725,5.93063 -2.66,5.14568 -14.10912,16.6291 -12.40069,15.53901 4.36558,-5.76032 -3.71732,1.20153 0.88893,5.24884 0.50179,1.53997 1.83576,3.67371 1.50854,6.01457 -0.10895,4.3868 5.69656,3.1559 5.56263,7.61995 -2.7624,2.9197 3.27642,4.87778 3.19125,2.25065 2.40415,0.74235 5.26683,0.0597 2.23751,1.78157 2.21384,0.47691 3.37271,-0.19245 2.20677,2.82496 -0.48763,4.42148 4.86336,5.03751 6.96616,7.45093 3.53267,2.31415 1.74755,6.41715 2.70473,9.31766 3.52993,-0.34829 4.23979,2.71263 6.03932,2.83306 3.31702,1.30795 5.49818,2.75279 8.49908,1.96683 1.59139,1.10552 4.98418,1.20831 6.12721,0.8426 -1.17678,2.97226 5.15542,2.09914 2.26954,6.53541 -2.23426,4.19339 3.36186,5.61515 5.15716,8.03902 1.67578,-3.30253 6.47701,-0.4529 8.60775,1.21299 3.07944,1.92682 7.88189,0.63499 10.62625,2.9493 4.30701,-2.45692 9.31,2.48774 11.92442,0.84141 2.09101,-3.11537 5.0891,2.11654 8.00535,-1.42091 2.7462,1.41308 4.40923,3.68586 8.36659,4.17627 4.05758,1.4398 8.0251,1.85541 10.27155,-2.23547 2.83597,-4.96619 9.36558,-9.06122 16.81579,-6.29873 9.47412,-0.84922 22.39555,2.94495 30.03186,-0.45702 1.35592,-2.01857 -3.77022,-4.9532 -2.92125,-7.81007 -2.49445,-1.83376 -2.38052,-7.14599 -5.98146,-8.02517 1.589,-3.56485 2.57168,-6.82415 7.50024,-8.32591 4.48314,-1.91646 -0.53954,-8.55783 3.24677,-10.29134 0.47379,-2.68056 6.16236,-3.81164 5.33069,-7.53687 1.093,-2.50875 1.60947,-6.06399 3.84212,-8.06955 0.8347,-4.69169 -2.10276,-7.02209 -6.47442,-5.61523 -5.69422,1.45222 -6.44496,-7.2426 -11.6168,-7.03262 -4.67395,-0.29707 -10.33028,2.23749 -11.78709,-4.19133 -2.28815,-2.89478 -6.94858,-3.72322 -10.19282,-1.72005 -4.0679,0.0853 -7.13019,-3.36765 -10.40182,-4.0451 -4.38915,-3.11487 -6.69341,7.29308 -11.09435,3.80191 -2.64196,-2.67039 -7.97359,-0.83524 -10.45985,1.14716 -1.05822,-2.29874 -1.8311,-3.17654 -4.05087,-4.29804 -2.82534,-1.37476 -4.42398,-3.83616 -9.05983,-2.1269 -2.73378,-4.36939 -9.60928,-5.74852 -8.29874,-11.64909 -1.93595,-0.26474 -1.76177,-3.61411 -3.24045,-5.13632 -7.93322,-0.96298 -18.32153,0.77925 -24.48705,-2.13432 -4.29483,-3.34513 -10.19305,-16.44436 -13.58785,-7.43666 6.9149,3.41747 13.86808,10.38486 4.06246,3.57025 8.37043,9.49261 -1.02739,-0.38966 -0.52086,0.76076 0.69487,3.80471 -3.48423,0.12311 1.91524,7.14782 16.43344,12.27399 -5.46309,-3.12258 -3.70892,-4.18253 -1.00324,2.15331 1.80487,3.54425 -5.98229,-3.78047 -2.97188,-3.96689 -10.85029,-11.87528 -6.58577,-2.16936 -3.92019,9.68751 -3.95687,7.71867 -7.46548,16.1855 z"
     id="Pierce"
     inkscape:connector-curvature="0"
     inkscape:label="#path3125" />
  <path class="county" d="m 195.99599,66.568056 c -0.26713,-2.474056 -2.85069,-5.07411 1.84727,-1.21976 2.77145,-3.213051 -2.35405,-1.124831 -4.50055,-3.65978 -1.6208,-4.023341 -5.43852,1.99225 1.03526,3.86373 0.43705,0.41375 1.43642,0.157231 1.61802,1.01581 z m -0.17646,14.02351 c 2.43482,-4.754655 -1.80022,-1.58595 0.43252,-4.56762 2.80848,-6.452726 -5.62607,3.219371 -2.07638,3.45509 1.02438,-2.694345 0.97738,-0.417267 1.64386,1.11253 z m 28.13396,8.40478 c 0.63431,-3.238236 0.9187,-2.362177 3.07519,-3.2051 5.66569,-0.498839 -0.52878,-7.073362 -0.7815,-1.75756 -2.13212,-3.047835 -4.34776,-5.316025 -9.06635,-2.53983 -2.8353,-0.271304 3.51546,2.122514 3.74183,4.6914 -0.26244,0.125062 -3.19356,0.629219 0.23997,1.28148 0.74018,0.07921 1.24582,0.959425 2.79086,1.52961 z m 17.06828,3.8123 c 3.61572,-0.981742 7.77675,-7.859192 0.42495,-10.77729 -4.28866,1.982158 -1.99187,5.209473 -0.42495,10.77729 z m -2.1467,9.375064 c 4.82821,-3.298181 5.27571,-10.162383 4.77044,-7.696994 -4.66584,-1.262695 -9.02423,1.781492 -3.78239,4.42996 0.80414,1.536524 -1.79422,2.970464 -0.98805,3.267034 z m -7.09114,-20.668954 c 5.44228,-1.276324 2.49977,-8.924268 -2.00539,-12.50713 -0.91218,-5.409465 -1.3987,-7.509803 2.95418,-7.52095 1.45966,5.751624 0.40048,11.337748 6.21438,14.69227 -1.25635,2.04172 4.09036,5.695454 3.56379,1.3227 -0.71648,-5.25279 7.16988,-4.596204 7.46124,-9.24614 -7.56133,-4.026956 -17.34029,-13.684034 -23.71662,-9.69197 -0.69234,5.909092 -14.29349,10.329007 -10.3427,18.19698 2.08446,-9.116031 4.36789,5.736932 4.68302,0.09107 -0.92329,-3.88774 -1.55859,-8.050768 3.33909,-3.3795 -1.41282,3.844408 2.72866,9.560838 5.92728,6.28001 -0.33067,1.999489 1.61293,0.581424 1.92173,1.76266 z m 0.51949,3.48426 c -0.92921,2.168848 -7.81624,5.154951 -4.33049,9.33898 -0.67606,3.758109 -4.34307,3.884969 -0.67619,0.18122 -1.96381,-2.27929 -6.65824,13.518594 -0.77877,11.389674 1.02684,3.36237 3.52085,0.719 6.85851,3.95968 -2.15349,1.65736 -3.06253,-1.65691 -2.78023,1.98757 -3.82675,2.14379 7.0943,2.51788 3.07202,-0.51265 3.73952,1.42954 2.50086,-0.37923 6.14096,1.66742 0.77214,-1.40122 0.16866,-2.78246 0.90151,-5.5216 -0.77132,-2.68287 -3.18297,-6.09137 -2.56003,-2.21285 2.55463,1.18196 -6.64725,6.1895 -2.38912,0.74353 -3.43488,-0.0623 1.49894,-5.50876 -2.8952,-7.713604 4.32897,-6.048564 -0.42617,-7.285267 1.50148,-10.23745 0.30458,-3.676846 -3.26729,2.986548 -2.06499,-3.07019 l 5.4e-4,2.7e-4 z m -33.07949,9.07068 c 1.84085,3.922988 8.28792,8.470014 9.32004,4.646074 -0.50904,5.9045 6.48457,7.17437 12.67365,7.88863 0.97399,-5.4808 -1.87304,0.61577 -4.43499,-2.64203 -2.71023,-3.77463 -2.30851,-9.653055 -1.19819,-10.65286 1.86064,2.522268 7.73812,0.284108 3.44968,-2.58077 -1.05163,3.968476 -5.84632,-1.653506 -2.23934,-3.33395 -3.92534,-2.98208 -8.69291,-8.026762 -11.22663,-9.82928 2.85906,-5.821725 -7.22754,-2.528107 -5.91866,-4.31524 0.93565,2.555728 -4.13515,5.248103 -1.58455,5.29035 2.002,-3.302554 4.63931,-1.613403 1.29539,0.58456 -0.0536,1.38324 -0.16096,3.515396 -1.59729,0.22095 -2.52799,1.876029 0.50843,4.577345 1.19575,3.30318 -5.48598,-0.04826 -0.21344,5.587549 -1.05828,9.18703 0.40255,0.766381 0.27984,2.026358 1.32342,2.233356 z"
     id="San_Juan"
     inkscape:connector-curvature="0"
     inkscape:label="#path3127" />
  <path class="county" d="m 252.55097,91.789966 c 7.25063,-0.737554 0.99849,-3.557835 5.97804,-5.12167 -0.82288,-1.962572 -5.64377,-4.953505 -0.96319,-8.23122 7.79999,1.226794 -3.28587,-6.908858 -4.59164,1.0233 -2.68702,2.554855 -3.17487,6.34105 -0.82005,8.91619 0.22848,0.66752 -1.0684,3.483985 0.39684,3.4134 z m 10.02024,3.0091 c 4.12462,-4.678562 9.82458,3.257049 6.96478,-4.14396 -4.39365,-0.498174 -9.4301,-13.025536 -8.0365,-3.33356 0.15666,2.151924 -3.52631,7.237432 1.07172,7.47752 z m -4.35818,7.690014 c 3.84189,4.34066 -1.48684,7.23594 -1.61882,9.02659 1.10466,3.50462 2.28878,5.13571 2.96922,4.89848 3.51501,0.88733 8.51624,-3.7915 10.69222,-6.07431 3.74953,4.27754 -3.96664,9.23828 1.91715,8.7003 2.08332,4.30922 3.81753,8.26049 8.55108,7.95798 2.45382,4.64368 10.26032,6.81958 10.24671,9.26355 0.64178,5.9876 15.98325,2.16831 23.01402,3.97899 50.0287,1.32961 101.19287,4.69106 149.89482,4.97366 -2.46929,-0.5527 -3.77509,-2.51307 -6.16223,-2.90357 -2.57985,-0.61578 -1.71284,-1.55909 -2.0724,-3.48238 -0.81587,-3.37062 3.48146,-1.74256 3.56984,-4.06315 0.45673,-3.48676 -5.00109,-6.8908 -1.25817,-11.25868 2.525,1.6794 0.98584,-3.49505 2.34497,-4.77 -1.00434,-2.5034 -4.51263,-3.10648 -2.17307,-6.56139 0.88035,-5.76681 7.52099,-3.37774 10.66802,-4.61982 5.51039,2.22075 0.005,-6.82137 4.73426,-5.51359 3.76333,2.80468 3.41036,-0.63578 6.11112,-1.53454 2.67818,2.64087 3.4769,0.69508 3.9464,-1.886114 2.94744,-1.165781 6.46767,3.040374 4.6583,5.791584 3.56029,4.52891 10.52199,0.41238 14.13726,-1.71798 -2.20093,-4.42837 4.94393,-6.820405 0.39877,-10.874142 -2.69359,-4.89512 -3.59968,4.214706 -7.34301,0.41504 -4.15696,-3.427223 -3.89905,-10.712303 1.35054,-11.95773 1.45841,-4.599258 -11.82173,-0.717558 -15.2693,-2.12048 -7.74287,4.435866 -21.66086,2.193995 -33.45305,2.163474 -55.47589,-1.677619 -110.85383,-4.838759 -166.21575,-7.051514 6.37378,3.962564 9.91161,13.347333 2.15052,15.36698 -2.95132,3.583922 -9.34972,-8.054766 -11.41737,-2.42769 7.01141,-1.584955 8.69896,8.936164 8.84455,10.98508 -1.91252,3.012322 3.79936,13.473622 -4.63924,9.732342 -3.7777,-1.62289 -7.60967,-9.272393 -7.54863,-4.6031 1.27623,9.31246 -3.41216,-1.08132 -3.41407,-5.400402 3.20839,-1.424301 -14.26522,0.821797 -10.86817,4.258042 0.69481,-0.87352 3.62655,0.63143 3.25351,1.30849 z"
     id="Skagit"
     inkscape:connector-curvature="0"
     inkscape:label="#path3129" />
  <path class="county" d="m 290.13983,610.33008 c -0.66612,15.7652 -0.79151,31.38473 -1.36681,47.05733 10.26721,-6.63963 21.45456,-6.6209 32.3728,-11.70275 4.88152,-3.14845 9.34268,-4.95802 13.71844,-8.30828 5.18568,-13.82217 20.88075,-1.92804 30.61473,-7.06436 5.89096,0.21285 20.97163,-8.87119 19.1251,-5.12466 0.61662,-3.14382 -4.63379,-7.14727 1.09738,-8.26612 -8.50973,0.53473 -15.01288,-1.34009 -11.81674,-11.92016 -0.0591,-11.45334 -1.28771,-28.19878 1.88153,-37.90642 17.06735,5.21398 7.94341,-17.0227 10.69282,-26.83807 0.33083,-12.53079 0.69867,-25.06242 1.03104,-37.59168 -30.82081,-0.85282 -63.41046,-2.41665 -92.53633,-2.63956 -1.93939,32.45876 -2.59546,65.64892 -4.424,97.46625 -0.0381,4.27699 -0.47985,8.55162 -0.38996,12.83848 z"
     id="Skamania"
     inkscape:connector-curvature="0"
     inkscape:label="#path3131" />
  <path class="county" d="m 292.59704,139.24218 -0.31566,-0.019 0.31566,0.019 z m -0.006,32.81981 c 4.73748,6.56083 7.61769,15.32492 16.33814,18.0877 4.02737,-3.45003 4.57123,0.55728 1.6459,2.66485 -1.00298,2.10277 -0.33894,4.12182 -1.85551,5.0525 -0.52483,1.45426 1.61636,-0.16759 0.71782,2.29237 -1.55669,3.71562 -13.19423,2.68386 -12.04079,9.54146 -3.91959,7.80305 -2.80347,16.35429 -11.18245,21.63129 -4.57778,9.01926 7.52601,4.87352 12.54927,6.26504 49.07755,2.68741 99.98807,3.74548 147.50408,4.1644 2.22865,-2.42698 5.86355,-5.55325 6.42399,-8.86553 -2.8482,-0.83249 -6.73381,0.45665 -8.07514,-2.70146 -3.9966,0.2731 -0.17903,-4.1458 -2.51472,-6.6769 -1.03207,0.16141 -4.23259,-3.77371 -1.63145,-6.08557 -1.12644,-1.60996 0.0946,-2.93243 0.61821,-5.03198 1.01929,-2.31465 1.09347,-4.67976 2.70345,-6.5228 -0.17106,-2.74116 5.6554,-3.27034 3.28318,-6.67807 -2.81238,-4.06231 -4.69797,-6.39987 0.73719,-8.0662 1.72216,-2.54959 5.23065,-1.77037 7.99635,-3.38578 3.05797,-1.04866 6.51237,-0.7915 7.80306,-3.33385 2.76394,-1.71071 3.22299,-3.70479 6.35235,-4.49809 -3.30512,-2.76775 -2.1332,-7.77431 1.82523,-8.25439 2.49313,0.1314 4.55275,-1.59565 2.10684,-4.49923 -0.57519,-3.89642 -7.53755,-4.11158 -5.17125,-8.86357 -2.21489,-3.08929 -5.12923,-6.35388 -5.83028,-10.55064 5.17538,-4.64061 -12.32299,-1.13769 -14.47747,-2.64308 -51.8738,-1.4689 -104.03519,-3.96905 -155.58369,-5.72686 0.77692,3.67505 -6.3028,7.29459 -2.95503,11.76582 0.75339,3.5307 2.82749,6.49278 4.30096,9.09682 -3.21599,3.87288 -1.22435,8.21212 -1.58824,11.82175 z"
     id="Snohomish"
     inkscape:connector-curvature="0"
     inkscape:label="#path3133" />
  <path class="county" d="m 962.82637,292.59959 c -0.89182,-32.72886 -1.78021,-65.4872 -2.30835,-98.25057 -20.69709,0.36514 -41.35963,0.41305 -62.06384,0.58417 0.0374,15.18239 1.25008,33.99776 0.15957,46.95892 -5.48799,2.58963 -8.64987,-2.37772 -11.04188,-6.04825 -3.10488,-0.70887 -5.85717,-3.37062 -5.2208,-7.50429 0.35899,-7.13585 -6.20434,-0.21681 -4.26672,3.00717 -3.00364,2.81986 -6.03482,5.78414 -9.87446,5.64845 -0.45387,3.12908 -3.49051,3.42212 -5.14013,0.13522 1.10504,35.32751 -0.21385,71.58172 1.42232,106.14892 33.13965,-0.0131 66.21176,-0.82605 99.38564,-1.16412 -0.26487,-16.5169 -0.64207,-32.9964 -1.05135,-49.51562 z"
     id="Spokane"
     inkscape:connector-curvature="0"
     inkscape:label="#path3135" />
  <path class="county" d="m 898.95561,242.00665 c 0.25319,-14.00291 -0.21453,-31.67013 -0.50111,-47.07442 10.50293,1.73211 15.07741,-2.10557 12.05914,-13.39055 -7.10519,-1.7927 -10.59144,-8.70554 -8.29832,-19.71072 -0.20274,-27.30828 -1.05822,-54.22623 -1.39297,-81.310284 -13.60517,5.292361 -21.35429,-6.323994 -14.53195,-15.98342 14.64307,4.655317 -1.85736,-20.97717 11.25503,-17.857105 5.14272,-5.455296 2.68597,-18.492931 10.98932,-21.119359 4.55362,-16.1103329 -15.24656,-7.304099 -24.34457,-9.429565 -22.84558,1.266948 -49.44869,-0.688562 -70.26906,1.642981 -3.82118,-0.505961 -1.65735,0.122699 -1.88506,1.850964 -2.72823,1.854045 0.54557,3.514679 0.0906,5.359259 -4.27744,4.13451 3.16677,7.057077 1.02433,10.38903 -3.1343,2.700595 0.30673,6.497812 1.17774,9.41623 -0.26336,3.095461 3.90509,3.69156 4.00981,7.62195 -0.0179,2.854924 2.01211,7.267494 4.61855,4.87059 0.85977,2.128736 -2.38262,1.909577 0.0248,4.34165 -2.13245,0.61858 1.74536,2.708515 -0.44605,3.74326 2.28954,1.187171 -0.27752,3.762786 1.41887,6.45272 -0.79892,5.134405 2.19625,6.94339 1.40076,12.56587 -3.22809,3.551911 -1.65329,10.688694 -3.85099,16.147499 -0.22436,3.23473 0.4926,7.5782 -4.23725,6.20851 -0.47355,4.31241 -2.22935,8.01706 -4.50733,11.76777 1.32696,3.22921 0.73818,7.54897 1.98578,11.27036 3.48542,6.36027 0.84183,14.79297 5.75859,20.71565 4.00401,5.50286 -1.652,11.0012 -4.99348,14.58989 0.33958,3.30373 -0.47456,7.01271 0.0394,10.96355 -0.71233,4.98347 -10.40993,1.16653 -7.33978,7.76502 3.54212,1.54117 3.6508,9.37104 0.34857,10.5703 -2.71608,-1.67426 -3.6126,5.72995 -8.78993,2.35538 -4.29616,-3.8662 -14.66267,3.34288 -7.37325,7.25569 5.71198,5.5813 1.00323,15.36581 5.75792,20.71565 3.35081,-2.14443 7.4395,-7.97587 11.53893,-9.09662 3.52517,-0.93997 4.45849,0.36354 6.23255,2.78137 1.54328,3.31849 2.62408,4.21041 4.08508,6.35929 0.17049,2.0434 3.64101,2.09338 4.41314,5.65027 0.8869,3.74571 0.76756,5.85199 3.60935,6.901 0.24937,3.9861 5.75471,6.56495 6.95716,5.48603 3.85509,-0.78727 4.17233,-4.80118 6.96101,-7.24884 4.10824,1.06206 8.10353,3.07782 10.37704,-0.29652 2.66741,-1.85886 4.93729,-2.17392 8.26393,-0.45489 2.09431,1.87572 6.61196,7.86286 7.93821,1.80662 3.88775,0.76197 7.97796,-3.22293 9.84155,-6.15736 -2.33693,-5.16621 6.27833,-7.59526 3.94124,-0.74571 -0.20875,3.95681 2.82796,5.2172 5.39297,6.21575 2.04828,2.49909 4.70384,9.65782 9.40488,5.34809 -0.18433,1.16277 1.45023,0.34676 1.84493,0.74717 z"
     id="Stevens"
     inkscape:connector-curvature="0"
     inkscape:label="#path3137" />
  <path class="county" d="m 221.74275,357.00055 c 0.0522,-1.72538 3.66198,-4.8029 0.24953,-6.7961 0.0216,1.0952 -7.07628,3.44398 -5.33653,2.87931 -2.04684,6.6566 3.57284,4.8716 -1.74275,13.20088 2.98868,6.50215 -0.61908,1.93123 -0.28918,5.87512 -1.16207,-2.59901 -5.76833,-8.54196 -2.06918,-11.97246 -0.24317,-16.10049 -0.23743,4.22425 -7.56328,4.61477 -6.87072,2.51209 1.0876,6.09064 -1.2671,6.86186 0.14838,4.18751 -0.57084,-3.3604 -3.03986,-4.77598 3.23713,-5.57298 7.64619,-10.68492 6.70225,-8.21457 -1.17467,-4.19684 10.02286,-8.34509 4.35259,-12.34722 -3.05461,4.39606 -4.89005,8.31812 -9.04816,7.18671 1.06824,6.60385 -10.22091,5.99907 -9.26031,7.55421 -4.7092,5.21007 -21.92046,-3.00294 -16.61656,12.94176 2.98421,6.35148 7.25774,12.3108 3.90734,24.62785 0.45066,7.82619 -3.29545,19.91676 0.56461,24.90245 40.01662,1.81358 82.60661,4.55048 120.47653,5.29832 -1.59592,-1.3171 -5.8244,-3.46686 -7.04835,-0.80277 -2.20531,-0.44436 -4.04778,-3.27796 -6.24845,-5.15822 1.26851,-2.90437 2.32551,-7.51764 -1.55568,-7.34787 1.23486,-4.31444 -2.92714,0.32605 -4.71806,-2.15212 -2.9477,-0.51451 -5.74154,-0.10396 -8.59576,-1.94093 -3.2498,-0.52287 -2.68551,-2.41961 -6.19462,-3.41261 -2.6505,-0.50253 -0.71674,-4.13458 -1.9282,-6.41979 0.14492,-2.90868 -4.17681,-3.70932 -6.04315,-5.93825 -4.93243,0.33642 -1.02843,-7.96832 -3.16438,-6.39903 -1.86731,-1.23187 -2.07581,-0.56357 -0.36958,-1.7645 -1.18195,-0.74298 -5.00219,-1.10258 -4.88816,0.68887 -4.60894,-1.04383 -0.43307,-7.48534 -5.29844,-7.79426 -3.74057,-1.54734 -1.1277,-7.14699 -3.90853,-8.78791 -1.47002,-2.20499 -1.57721,-7.61445 -0.95644,-7.81891 -1.93944,-1.62501 -4.03352,1.61284 -3.62209,3.86932 1.94348,-5.92779 -3.95936,-8.27363 -6.82109,-10.38855 -0.93864,-4.87248 -2.62123,-10.8349 -4.91656,-6.75774 -1.10229,5.93539 0.31815,10.47351 -0.27481,12.49699 0.27116,-2.65401 -3.16181,-8.02235 -3.46759,-6.00863 z"
     id="Thurston"
     inkscape:connector-curvature="0"
     inkscape:label="#path3139" />
  <path class="county" d="m 167.54931,534.16353 c -0.16245,-13.00925 1.4272,-26.24702 1.17632,-39.65569 -21.83876,-0.78965 -43.67975,-1.70263 -65.45709,-3.58051 -0.22499,11.96322 -4.314467,18.5343 5.04502,17.28314 -0.91443,9.74074 13.9823,7.3911 19.40911,5.98032 9.68033,-3.63484 14.83058,7.12789 17.47269,13.43532 6.87674,6.79889 12.0829,15.2867 22.35395,6.53742 z m -17.00723,4.14296 c 2.03457,-0.61326 -4.56159,-10.47159 -6.52255,-8.50146 -5.37559,-7.20891 -4.59351,5.3481 2.03769,7.21857 3.43196,1.9838 2.68673,-0.17936 4.48486,1.28289 z m -4.67112,-0.81893 c 0.50061,0.46104 2.13062,2.14675 0,0 z"
     id="Wahkiakum"
     inkscape:connector-curvature="0"
     inkscape:label="#path3141" />
  <path class="county" d="m 791.50913,580.13737 c 17.31751,-0.72792 37.09991,1.08028 52.95449,-1.35206 1.07136,-12.30996 0.0703,-25.66773 0.0184,-37.7927 -11.4492,2.01525 -19.17497,0.37359 -16.11852,-12.24545 -3.85588,-7.67352 -23.31837,0.53379 -16.39,-18.28127 -0.073,-14.03365 -0.68414,-31.16374 0.82597,-41.73591 -3.23754,-2.47974 -7.25162,1.89936 -10.41863,-2.17775 -6.67353,0.22099 -11.68538,9.16637 -17.91817,1.90229 -4.08069,0.035 -6.42582,5.74669 -10.85254,6.63491 -4.50192,5.76834 -11.7487,9.77931 -11.09629,18.08833 -2.8583,4.38999 0.71448,10.42293 -5.02844,12.52836 -1.58469,3.00322 -4.71858,4.21241 -5.38286,7.34337 -7.06928,-3.18242 -6.64216,5.82783 -8.80102,8.88088 3.90694,6.75315 -7.69003,1.78016 -7.95237,7.41098 -4.49677,8.08195 -16.66207,3.08525 -22.75922,9.72193 -9.86049,6.02414 7.67296,11.98805 5.69933,20.11005 3.66238,4.92561 3.07662,11.72084 2.68025,16.57092 -6.90644,3.36685 -4.81838,6.33574 2.76887,4.53792 22.58715,-0.0544 45.17805,-0.13002 67.77078,-0.1448 z"
     id="Walla_Walla"
     inkscape:connector-curvature="0"
     inkscape:label="#path3143" />
  <path class="county" d="m 266.09596,63.521026 c 2.28522,-5.642379 0.83734,-4.316673 -2.57389,-3.03738 -3.04972,-2.786086 1.99052,3.639439 2.57389,3.03738 z M 211.70786,2.7261629 c 0.78107,8.7576601 6.22099,4.2637966 7.74172,4.551365 0.84873,-5.7196684 -4.05455,-4.0782637 -7.74172,-4.551365 z m 55.30833,70.7975131 c 0.59467,-8.76342 -7.96948,-10.113891 -9.69728,-18.41767 -4.79548,-5.256635 -3.78131,5.06116 0.58004,5.64217 0.82608,5.610165 5.31553,9.323941 9.11724,12.7755 z m 3.78035,-27.61954 c 4.43834,1.94271 10.67844,6.367659 11.42308,7.085 2.99108,0.797555 -7.23713,9.291329 -1.77043,11.55191 4.32834,-2.924287 -3.0438,7.161548 0.8975,7.21354 9.82804,4.063639 24.68331,1.521866 36.40187,3.088022 53.06925,2.293203 106.22068,5.215046 159.388,6.255818 2.20416,-7.737699 16.94942,1.156745 22.26989,-4.20735 3.43876,1.430934 1.33779,-8.404324 6.87294,-5.25828 -1.17884,-3.22752 1.11639,-4.798511 2.8402,-5.62705 -4.28167,-2.403842 -3.9093,-6.900293 -7.72255,-9.11164 -2.56969,-2.175726 -1.92761,-6.786578 -2.44121,-9.49214 1.07431,-3.028175 2.8111,-7.901266 -1.58362,-8.99707 -3.16983,-1.579798 0.74175,-4.65735 -1.5488,-6.935834 -1.204,-3.801848 5.05748,-5.421011 -0.1535,-9.069419 -3.87319,-1.948357 -4.17763,2.430768 -7.2234,3.17779 -0.30795,-2.764676 -4.50947,-3.972599 -5.82462,-5.893453 -0.66236,-2.12232 4.80612,-2.819114 3.85776,-5.692446 -78.05073,-1.56294 -156.16386,-5.2067713 -234.06553,-9.2340361 -3.03529,2.3962607 8.73001,7.9759101 3.44682,5.9092261 3.26298,6.155814 -10.62129,1.281246 -5.06118,-3.8202401 -9.52585,4.7065551 -5.57079,13.7877611 1.21001,9.9250091 -2.06551,8.182866 -6.40127,11.046538 4.07407,18.682116 0.69305,5.37754 2.53072,9.226448 0.9392,9.68699 -2.5507,-0.831348 3.53536,-4.25447 5.51458,0.48935 3.59533,2.442826 -6.50859,12.242972 0.55647,12.8954 1.64999,-4.860178 6.74377,-7.904633 7.70245,-12.621213 z"
     id="Whatcom"
     inkscape:connector-curvature="0"
     inkscape:label="#path3145" />
  <path class="county" d="m 842.63762,425.53644 c -2.99226,1.30071 -2.89995,3.5652 -2.0724,6.56032 -0.73038,1.26448 -3.76983,-0.25344 -3.93752,3.85059 -4.76025,-2.09643 -7.03967,-1.98096 -10.57537,1.48852 -4.27307,-1.27053 -3.5475,5.06396 -7.99824,1.83306 -1.74281,3.26796 -5.90572,2.35911 -7.50641,3.66835 2.11341,4.80394 5.2489,10.4007 2.64675,14.51005 0.53214,3.31638 5.40815,5.79605 3.56676,8.67263 -2.9707,1.03781 -0.95481,5.85931 2.73505,8.27431 3.02062,3.25428 10.09474,1.47694 11.87578,-2.04319 8.11873,-2.01404 16.08217,-4.25595 24.36594,-2.18208 3.54011,-0.80661 2.3136,-10.01804 8.44236,-7.12837 8.2784,0.99842 8.56751,-8.42819 11.32058,-13.38701 6.47348,-2.45576 13.25555,-2.77227 17.52536,3.58626 5.64513,-2.27613 13.32788,1.359 16.07231,-4.92796 5.76851,-1.72715 3.94436,10.54876 11.1213,7.89032 3.3011,1.87721 -0.50152,8.16548 4.23097,9.21915 1.91383,2.96085 4.17525,5.2499 7.81997,4.84053 3.8035,3.79509 7.7085,5.81059 8.71162,11.64226 2.38155,4.62595 -1.84816,10.05681 4.65385,12.7294 -3.7367,6.32546 4.22898,5.17371 7.79181,3.19204 4.36488,2.32994 8.12681,2.77021 12.17443,-0.15711 4.3171,0.33931 2.52644,-22.61631 1.16875,-18.12462 -1.40847,-45.53942 -0.8168,-93.13498 -3.61725,-137.44285 -38.88427,0.58337 -77.63267,1.14593 -116.50707,1.40332 -0.97939,24.77935 3.14822,52.09682 -1.4371,74.61445 -2.66251,0.56411 -4.3405,4.72937 -2.04837,5.10436 0.85302,1.05468 -1.28589,1.24987 -0.52386,2.31327 z"
     id="Whitman"
     inkscape:connector-curvature="0"
     inkscape:label="#path3147" />
  <path class="county" d="m 401.61716,469.99585 -0.0259,-0.0966 0.0259,0.0966 z m 0,0 c 2.22752,2.1877 -1.4986,4.99246 -4.02519,5.84144 -2.11358,3.72599 0.90158,6.18623 3.33407,7.80314 -4.02087,3.92152 2.93918,6.03343 1.65584,10.4269 1.42283,2.75193 4.56199,7.70576 0.2498,9.04386 -15.70152,-4.84469 -17.82049,4.90242 -15.86685,18.79823 -0.43303,15.13475 -0.81512,30.27025 -1.19733,45.40601 71.82854,2.0803 143.6664,4.23626 215.60526,4.86131 0.18245,-28.42733 -1.13474,-54.95452 -0.45163,-83.81556 -0.0147,-9.33611 0.24652,-17.52314 0.0478,-26.64408 -7.31099,-3.31198 -11.27034,-13.49493 -12.93355,-20.44941 -22.74613,0.0363 -45.69557,-0.58965 -68.35299,-1.25106 2.77506,-12.77612 -1.12509,-19.56404 -14.73913,-16.7562 0.46316,-10.72139 -0.32024,-21.02537 -15.92403,-16.5422 -11.78211,-0.7198 -27.06567,1.18409 -36.39748,-2.1528 -3.15818,-4.72275 -5.4355,-9.4349 -8.39822,-14.72822 -3.56236,-0.91015 -4.38963,-6.2992 -8.38463,-8.10605 -2.67139,-1.32568 -4.61902,-3.00474 -6.5453,-5.49304 -3.62872,-2.6908 -8.04874,-6.4607 -12.16448,-2.12331 -3.38029,-1.87393 -5.85192,2.72524 -7.53285,-2.22613 1.25802,3.634 -0.24228,7.20714 -2.73779,10.25835 0.0217,3.87894 -1.85553,7.80453 -6.33955,9.56718 -0.0635,2.20921 -2.18618,3.85141 -0.92535,6.97742 0.43257,6.04938 -8.91169,5.38329 -8.3091,10.71672 -3.07792,2.95839 4.02652,3.42041 3.1406,7.85484 2.12056,2.84995 2.49629,6.00672 5.47435,9.6106 -3.38437,0.94473 0.0546,7.30685 1.85694,6.54233 0.1023,2.1444 -0.64405,3.90914 2.20343,5.51768 2.93535,-0.5781 10.13598,2.52121 4.61128,4.45815 -1.59917,1.6214 0.57023,5.08476 -3.33886,3.37978 -2.60383,1.06592 -3.95891,8.11405 -0.009,8.07795 1.9544,2.45031 0.77948,5.90193 -1.75451,8.13161 2.86608,3.64353 -3.23664,4.19264 -1.85163,7.01456 z"
     id="Yakima"
     inkscape:connector-curvature="0"
     inkscape:label="#path3149" />
</svg>
