<?xml version="1.0" encoding="utf-8"?>
<!-- Generator: Adobe Illustrator 21.0.2, SVG Export Plug-In . SVG Version: 6.00 Build 0)  -->
<svg version="1.1" id="Layer_1" xmlns="http://www.w3.org/2000/svg" xmlns:xlink="http://www.w3.org/1999/xlink" x="0px" y="0px"
	 viewBox="0 0 370.2 75" style="enable-background:new 0 0 370.2 75;" xml:space="preserve">
<style type="text/css">
	.st0{fill:#ECB5B6;stroke:#FFFFFF;stroke-width:0.9391;stroke-miterlimit:10;}
	.st1{fill:#FBEDC4;}
	.st2{fill:#C1DEF1;}
	.st3{fill:#FFFFFF;}
	.st4{fill:#C30101;}
	.st5{fill:#3F98D3;stroke:#FFFFFF;stroke-width:0.939;stroke-miterlimit:10;}
	.st6{fill:#ED2424;}
	.st7{fill:#00AFEA;}
	.st8{fill:#C31C1C;}
	.st9{fill:#3F98D3;}
	.st10{font-family:'MetaSerifPro-Bold'; font-weight: bold;}
	.st11{font-size:22.1368px;}
</style>
<path class="st0" d="M5.1,18.7c0,0,7.2,8.6,34.2,8.6c19.3,0,38.9-10.3,59.6-16.1c8.3-2.4,19.9-4,26.8-4C158.3,7.2,175,13,175,13
	l-0.6,15.4c0,0-12.8-7.6-42.9-10.7S66.2,34.6,39.3,31.9S5.1,18.7,5.1,18.7z"/>
<path class="st1" d="M5.4,20.7c0,0,11.4,14.3,38.3,16.5S96.2,20,132.9,22.7c30.2,2.3,40.3,9.9,40.3,9.9l-2,16.7
	c0,0-9.3-9.2-39.1-14.7s-62.3,12.7-88.9,7.7S5.4,20.7,5.4,20.7z"/>
<path class="st2" d="M7.3,28.4c0,0,10.2,15.1,36.8,19.6s53.8-12.9,90.1-7.2c29.9,4.7,39.4,13.1,39.4,13.1l-12.8,11.7
	c0,0,0.8-5.1-28.4-13s-63.1,7.6-89.2,0.6S7.3,28.4,7.3,28.4z"/>
<polygon class="st3" points="178.8,59.7 155.9,71.8 163.8,48.5 141.7,28.2 167.3,24.5 178.8,1.3 190.2,24.5 215.8,28.2 193.8,48.5 
	201.7,71.8 "/>
<g>
	<polygon class="st4" points="179,2.9 189.7,24.4 157.1,69.3 	"/>
	<g>
		<path class="st3" d="M179,4.1l10.1,20.3l-30.6,42.2L179,4.1 M178.9,1.7L155.8,72l34.5-47.5L178.9,1.7L178.9,1.7z"/>
	</g>
</g>
<polygon class="st5" points="155.8,72 216.7,28.3 190.2,24.5 "/>
<g>
	<polygon class="st6" points="167.6,24.5 178.7,2 200.9,70.3 	"/>
	<path class="st3" d="M178.7,2.7l21.5,66.2l-32.3-44.4L178.7,2.7 M178.8,1.3l-11.5,23.2l34.4,47.3L178.8,1.3L178.8,1.3z"/>
</g>
<g>
	<polygon class="st7" points="141.5,28.5 167.2,24.8 200.5,70.7 	"/>
	<path class="st3" d="M167.1,25l32.3,44.5l-57.2-40.9L167.1,25 M167.3,24.5l-26.5,3.9l60.9,43.5L167.3,24.5L167.3,24.5z"/>
</g>
<g>
	<polygon class="st8" points="188,32.2 199,65.7 192.4,56.8 	"/>
</g>
<polygon class="st9" points="190.7,58.8 180.6,55.6 197.2,67.8 "/>
<text transform="matrix(1 0 0 1 202.8221 57.6468)" class="st10 st11">ELECTION 2017</text>
</svg>
