<?xml version="1.0" encoding="iso-8859-1"?>
<!-- Generator: Adobe Illustrator 20.0.0, SVG Export Plug-In . SVG Version: 6.00 Build 0)  -->
<!DOCTYPE svg PUBLIC "-//W3C//DTD SVG 1.1//EN" "http://www.w3.org/Graphics/SVG/1.1/DTD/svg11.dtd">
<svg version="1.1" id="Layer_1" xmlns="http://www.w3.org/2000/svg" xmlns:xlink="http://www.w3.org/1999/xlink" x="0px" y="0px"
	 viewBox="0 0 370.167 75" style="enable-background:new 0 0 370.167 75;" xml:space="preserve">
<path style="fill:#ECB5B6;stroke:#FFFFFF;stroke-width:0.9391;stroke-miterlimit:10;" d="M5.056,18.727
	c0,0,7.196,8.617,34.209,8.617c19.286,0,38.921-10.259,59.59-16.127c8.281-2.351,19.881-3.998,26.849-3.998
	c32.566,0,49.343,5.763,49.343,5.763l-0.623,15.391c0,0-12.833-7.638-42.936-10.656S66.16,34.624,39.282,31.93
	S5.056,18.727,5.056,18.727z"/>
<path style="fill:#FBEDC4;" d="M5.354,20.736c0,0,11.362,14.276,38.279,16.543s52.537-17.205,89.201-14.464
	c30.17,2.255,40.307,9.883,40.307,9.883l-2.03,16.676c0,0-9.334-9.157-39.078-14.69s-62.323,12.682-88.88,7.741
	S5.354,20.736,5.354,20.736z"/>
<path style="fill:#C1DEF1;" d="M7.339,28.394c0,0,10.177,15.144,36.824,19.568s53.75-12.924,90.075-7.244
	c29.891,4.674,39.381,13.093,39.381,13.093l-12.78,11.678c0,0,0.848-5.097-28.354-13.004s-63.141,7.629-89.215,0.568
	S7.339,28.394,7.339,28.394z"/>
<polygon style="fill:#FFFFFF;" points="178.768,59.735 155.862,71.778 163.796,48.522 141.705,28.208 167.315,24.487 178.768,1.28 
	190.22,24.487 215.83,28.208 193.836,48.522 201.673,71.778 "/>
<g>
	<polygon style="fill:#C30101;" points="178.951,2.905 189.673,24.441 157.148,69.281 	"/>
	<g>
		<path style="fill:#FFFFFF;" d="M179.04,4.138l10.086,20.258l-30.595,42.179L179.04,4.138 M178.861,1.672l-23.097,70.316
			l34.456-47.502L178.861,1.672L178.861,1.672z"/>
	</g>
</g>
<polygon style="fill:#3F98D3;stroke:#FFFFFF;stroke-width:0.939;stroke-miterlimit:10;" points="155.764,71.988 216.69,28.304 
	190.22,24.487 "/>
<g>
	<polygon style="fill:#ED2424;" points="167.617,24.461 178.718,1.966 200.921,70.301 	"/>
	<path style="fill:#FFFFFF;" d="M178.668,2.653l21.501,66.172l-32.251-44.389L178.668,2.653 M178.768,1.28l-11.453,23.206
		l34.359,47.291L178.768,1.28L178.768,1.28z"/>
</g>
<g>
	<polygon style="fill:#00AFEA;" points="141.499,28.526 167.197,24.766 200.547,70.72 	"/>
	<path style="fill:#FFFFFF;" d="M167.079,25.045l32.323,44.538L142.173,28.69L167.079,25.045 M167.315,24.487l-26.49,3.876
		l60.869,43.494L167.315,24.487L167.315,24.487z"/>
</g>
<g>
	<polygon style="fill:#C31C1C;" points="187.966,32.233 199.006,65.74 192.42,56.83 	"/>
</g>
<polygon style="fill:#3F98D3;" points="190.697,58.754 180.558,55.582 197.166,67.773 "/>
<g style="enable-background:new    ;">
	<path style="fill:#231F20;" d="M203.732,56.309c1.166,0,1.525-0.313,1.525-1.592V44.443c0-1.278-0.359-1.593-1.525-1.615v-1.076
		h11.237l0.247,3.79h-1.66c-0.493-1.704-0.763-2.197-2.333-2.197h-2.444v5.338h1.391c1.391,0,1.749-0.314,1.839-1.593h1.48v4.711
		h-1.48c-0.09-1.212-0.426-1.593-1.816-1.593h-1.413v5.63h2.781c1.48,0,2.041-0.516,2.221-2.602h1.704v4.104h-11.753V56.309z"/>
	<path style="fill:#231F20;" d="M222.083,55.838h2.108c1.458,0,2.198-0.65,2.624-2.804h1.728l-0.314,4.307h-11.192v-1.032
		c1.166,0,1.525-0.313,1.525-1.592V44.443c0-1.278-0.359-1.593-1.525-1.615v-1.076h6.617v1.076c-1.212,0.022-1.57,0.337-1.57,1.615
		V55.838z"/>
	<path style="fill:#231F20;" d="M229.42,56.309c1.167,0,1.525-0.313,1.525-1.592V44.443c0-1.278-0.358-1.593-1.525-1.615v-1.076
		h11.238l0.246,3.79h-1.659c-0.494-1.704-0.763-2.197-2.333-2.197h-2.445v5.338h1.391c1.391,0,1.75-0.314,1.84-1.593h1.48v4.711
		h-1.48c-0.09-1.212-0.427-1.593-1.817-1.593h-1.413v5.63h2.781c1.48,0,2.042-0.516,2.221-2.602h1.705v4.104H229.42V56.309z"/>
	<path style="fill:#231F20;" d="M242.993,49.76c0-5.698,2.938-8.277,7.245-8.277c2.198,0,3.724,0.427,4.801,1.122v3.05h-2.423
		c-0.358-1.704-0.875-2.579-2.423-2.579c-2.108,0-3.274,1.436-3.274,6.55c0,5.428,1.346,6.46,3.274,6.46
		c1.772,0,2.355-0.83,2.647-2.67h2.311v2.961c-0.92,0.673-2.849,1.234-5.092,1.234C245.483,57.61,242.993,54.807,242.993,49.76z"/>
	<path style="fill:#231F20;" d="M269.128,41.752l0.246,4.172h-1.682c-0.449-1.929-0.606-2.579-2.042-2.579h-0.964v11.372
		c0,1.301,0.426,1.592,1.771,1.592v1.032h-7.065v-1.032c1.346,0,1.772-0.291,1.772-1.592V43.345H260.2
		c-1.458,0-1.593,0.65-2.041,2.579h-1.705l0.247-4.172H269.128z"/>
	<path style="fill:#231F20;" d="M271.935,44.443c0-1.278-0.359-1.593-1.525-1.615v-1.076h6.595v1.076
		c-1.189,0.022-1.548,0.337-1.548,1.615v10.273c0,1.278,0.358,1.592,1.548,1.592v1.032h-6.595v-1.032
		c1.166,0,1.525-0.313,1.525-1.592V44.443z"/>
	<path style="fill:#231F20;" d="M278.575,49.715c0-5.675,2.916-8.232,6.998-8.232c4.307,0,6.998,2.826,6.998,8.277
		c0,5.002-2.579,7.851-6.976,7.851C281.109,57.61,278.575,54.694,278.575,49.715z M282.479,49.513c0,5.114,1.031,6.64,3.117,6.64
		c1.885,0,3.073-1.234,3.073-6.505c0-4.89-0.942-6.572-3.096-6.572C283.465,43.075,282.479,44.646,282.479,49.513z"/>
	<path style="fill:#231F20;" d="M305.473,44.443c0-1.278-0.359-1.593-1.548-1.615v-1.076h4.935v1.076
		c-1.167,0.022-1.503,0.337-1.503,1.615v12.897h-2.513l-5.495-8.523c-1.054-1.638-1.638-2.849-1.861-3.342h-0.09
		c0.067,0.516,0.202,1.996,0.202,3.432v5.81c0,1.278,0.358,1.592,1.547,1.592v1.032h-5.002v-1.032c1.167,0,1.525-0.313,1.525-1.592
		V44.443c0-1.278-0.358-1.593-1.525-1.615v-1.076h5.182l4.756,7.469c0.695,1.1,1.233,2.266,1.479,2.916h0.112
		c-0.067-0.516-0.201-2.041-0.201-3.342V44.443z"/>
</g>
<g style="enable-background:new    ;">
	<path style="fill:#231F20;" d="M329.186,49.354c0,2.442-1.98,3.696-5.501,5.347l-0.792,0.374h6.666l-0.373,2.267h-9.264v-1.694
		l2.289-1.694c1.892-1.386,3.234-2.376,3.234-4.202c0-1.166-0.859-1.893-2.068-1.893c-1.123,0-1.805,0.286-2.531,0.727l-0.615-1.255
		c1.144-0.946,2.552-1.54,4.532-1.54C327.602,45.789,329.186,47.043,329.186,49.354z"/>
	<path style="fill:#231F20;" d="M336.4,57.627c-3.234,0-5.457-2.179-5.457-5.896c0-3.543,2.332-5.941,5.589-5.941
		c2.993,0,5.501,1.893,5.501,5.743C342.033,55.734,339.613,57.627,336.4,57.627z M336.467,47.197c-1.299,0-1.937,1.122-1.937,4.599
		c0,3.103,0.462,4.511,1.979,4.511c1.255,0,1.915-1.21,1.915-4.841C338.425,48.275,337.721,47.197,336.467,47.197z"/>
	<path style="fill:#231F20;" d="M349.666,54.612c0,1.32,0.177,1.672,1.98,1.738v0.99h-7.437v-0.99
		c1.892-0.088,2.179-0.396,2.179-1.76v-6.117c-0.902,0.484-1.475,0.704-2.421,0.946l-0.44-1.057l4.027-2.354h2.111V54.612z"/>
	<path style="fill:#231F20;" d="M356.75,48.914c0.682-0.44,1.606-0.771,2.619-0.771c2.529,0,4.443,1.452,4.443,4.511
		c0,3.124-2.023,4.994-5.391,4.994c-3.454,0-5.368-2.2-5.368-6.007c0-5.677,4.62-8.515,9.087-9.593l0.396,1.166
		C359.324,44.447,357.41,45.987,356.75,48.914z M356.529,50.212c-0.065,0.572-0.088,1.012-0.088,1.584
		c0,3.08,0.859,4.577,2.245,4.577c1.319,0,1.87-1.101,1.87-3.389c0-2.311-0.616-3.278-2.068-3.278
		C357.807,49.706,357.124,49.882,356.529,50.212z"/>
</g>
</svg>
