<?xml version="1.0" encoding="iso-8859-1"?>
<!-- Generator: Adobe Illustrator 20.0.0, SVG Export Plug-In . SVG Version: 6.00 Build 0)  -->
<!DOCTYPE svg PUBLIC "-//W3C//DTD SVG 1.1//EN" "http://www.w3.org/Graphics/SVG/1.1/DTD/svg11.dtd">
<svg version="1.1" id="Layer_1" xmlns="http://www.w3.org/2000/svg" xmlns:xlink="http://www.w3.org/1999/xlink" x="0px" y="0px"
	 viewBox="0 0 220 75" style="enable-background:new 0 0 220 75;" xml:space="preserve">
<path style="fill:#ECB5B6;stroke:#FFFFFF;stroke-width:0.9391;stroke-miterlimit:10;" d="M5.056,18.727
	c0,0,7.196,8.617,34.209,8.617c19.286,0,38.921-10.259,59.59-16.127c8.281-2.351,19.881-3.998,26.849-3.998
	c32.566,0,49.343,5.763,49.343,5.763l-0.623,15.391c0,0-12.833-7.638-42.936-10.656S66.16,34.624,39.282,31.93
	S5.056,18.727,5.056,18.727z"/>
<path style="fill:#FBEDC4;" d="M5.354,20.736c0,0,11.362,14.276,38.279,16.543s52.537-17.205,89.201-14.464
	c30.17,2.255,40.307,9.883,40.307,9.883l-2.03,16.676c0,0-9.334-9.157-39.078-14.69s-62.323,12.682-88.88,7.741
	S5.354,20.736,5.354,20.736z"/>
<path style="fill:#C1DEF1;" d="M7.339,28.394c0,0,10.177,15.144,36.824,19.568s53.75-12.924,90.075-7.244
	c29.891,4.674,39.381,13.093,39.381,13.093l-12.78,11.678c0,0,0.848-5.097-28.354-13.004s-63.141,7.629-89.215,0.568
	S7.339,28.394,7.339,28.394z"/>
<polygon style="fill:#FFFFFF;" points="178.768,59.735 155.862,71.778 163.796,48.522 141.705,28.208 167.315,24.487 178.768,1.28 
	190.22,24.487 215.83,28.208 193.836,48.522 201.673,71.778 "/>
<g>
	<polygon style="fill:#C30101;" points="178.951,2.905 189.673,24.441 157.148,69.281 	"/>
	<g>
		<path style="fill:#FFFFFF;" d="M179.04,4.138l10.086,20.258l-30.595,42.179L179.04,4.138 M178.861,1.672l-23.097,70.316
			l34.456-47.502L178.861,1.672L178.861,1.672z"/>
	</g>
</g>
<polygon style="fill:#3F98D3;stroke:#FFFFFF;stroke-width:0.939;stroke-miterlimit:10;" points="155.764,71.988 216.69,28.304 
	190.22,24.487 "/>
<g>
	<polygon style="fill:#ED2424;" points="167.617,24.461 178.718,1.966 200.921,70.301 	"/>
	<path style="fill:#FFFFFF;" d="M178.668,2.653l21.501,66.172l-32.251-44.389L178.668,2.653 M178.768,1.28l-11.453,23.206
		l34.359,47.291L178.768,1.28L178.768,1.28z"/>
</g>
<g>
	<polygon style="fill:#00AFEA;" points="141.499,28.526 167.197,24.766 200.547,70.72 	"/>
	<path style="fill:#FFFFFF;" d="M167.079,25.045l32.323,44.538L142.173,28.69L167.079,25.045 M167.315,24.487l-26.49,3.876
		l60.869,43.494L167.315,24.487L167.315,24.487z"/>
</g>
<g>
	<polygon style="fill:#C31C1C;" points="187.966,32.233 199.006,65.74 192.42,56.83 	"/>
</g>
<polygon style="fill:#3F98D3;" points="190.697,58.754 180.558,55.582 197.166,67.773 "/>
</svg>
