<?xml version="1.0" encoding="utf-8"?>
<!-- Generator: Adobe Illustrator 20.1.0, SVG Export Plug-In . SVG Version: 6.00 Build 0)  -->
<svg version="1.1" id="Layer_1" xmlns="http://www.w3.org/2000/svg" xmlns:xlink="http://www.w3.org/1999/xlink" x="0px" y="0px"
	 viewBox="0 0 450 95" style="enable-background:new 0 0 450 95;" xml:space="preserve">
<style type="text/css">
	.st0{fill:#ECB5B6;stroke:#FFFFFF;stroke-width:0.9391;stroke-miterlimit:10;}
	.st1{fill:#C1DEF1;}
	.st2{fill:#FFFFFF;}
	.st3{fill:#C30101;}
	.st4{fill:#3F98D3;stroke:#FFFFFF;stroke-width:0.939;stroke-miterlimit:10;}
	.st5{fill:#ED2424;stroke:#FFFFFF;stroke-miterlimit:10;}
	.st6{fill:#00AFEA;}
	.st7{fill:#C31C1C;}
	.st8{fill:#3F98D3;}
</style>
<path class="st0" d="M5.7,33.5c0,0,3.3,11.2,38.3,11.2c25,0,50.4-13.3,77.1-20.9c10.7-3,25.7-5.2,34.8-5.2c42.2,0,63.9,7.5,63.9,7.5
	L218.9,46c0,0-16.6-9.9-55.6-13.8S78.8,54.1,44,50.6S5.7,33.5,5.7,33.5z"/>
<path class="st1" d="M2.6,30.8c0,0,13.2,19.6,47.7,25.3s69.6-16.7,116.6-9.4c38.7,6.1,51,16.9,51,16.9l-16.5,15.1
	c0,0,1.1-6.6-36.7-16.8S83,71.8,49.2,62.6S2.6,30.8,2.6,30.8z"/>
<path class="st0" d="M406.1,50.6c-34.8,3.5-80.4-22.3-119.4-18.4S231.2,46,231.2,46l-0.8-20c0,0,21.7-7.5,63.9-7.5
	c9,0,24,2.1,34.8,5.2c26.8,7.6,52.2,20.9,77.1,20.9c35,0,39.3-11.2,39.3-11.2S440.9,47.1,406.1,50.6z"/>
<path class="st1" d="M401,62.8c-33.8,9.1-77.7-11-115.5-0.7s-36.7,16.8-36.7,16.8l-16.5-15.1c0,0,12.3-10.9,51-16.9
	c47-7.4,82.1,15.1,116.6,9.4S447.6,31,447.6,31S434.7,53.6,401,62.8z"/>
<polygon class="st2" points="224.5,77.4 194.9,93 205.2,62.9 176.6,36.6 209.7,31.8 224.5,1.7 239.4,31.8 272.5,36.6 244,62.9 
	254.2,93 "/>
<g>
	<polygon class="st3" points="224.8,3.8 238.7,31.7 196.6,89.8 	"/>
	<g>
		<path class="st2" d="M224.9,5.4L238,31.6l-39.6,54.6L224.9,5.4 M224.7,2.2l-29.9,91l44.6-61.5L224.7,2.2L224.7,2.2z"/>
	</g>
</g>
<polygon class="st4" points="194.8,93.3 273.6,36.7 239.4,31.8 "/>
<g>
	<polygon class="st5" points="210.1,31.7 224.5,2.6 253.2,91.1 	"/>
	<path class="st2" d="M224.4,3.5l27.8,85.7l-41.7-57.5L224.4,3.5 M224.5,1.7l-14.8,30L254.2,93L224.5,1.7L224.5,1.7z"/>
</g>
<g>
	<polygon class="st6" points="176.3,37 209.6,32.1 252.7,91.6 	"/>
	<path class="st2" d="M209.4,32.5l41.8,57.7l-74.1-52.9L209.4,32.5 M209.7,31.8l-34.3,5l78.8,56.3L209.7,31.8L209.7,31.8z"/>
</g>
<g>
	<polygon class="st7" points="236.4,41.8 250.7,85.2 242.2,73.6 	"/>
</g>
<polygon class="st8" points="240,76.1 226.9,72 248.4,87.8 "/>
<g>
	<path d="M38.6,86.6c1,0,1.3-0.3,1.3-1.5v-9.5c0-1.2-0.4-1.5-1.3-1.5V73h10.8l0.3,3.7h-1.8c-0.5-1.6-0.7-2-2.2-2h-1.8v4.8h1
		c1.3,0,1.6-0.3,1.7-1.5h1.6v4.6h-1.6c-0.1-1.1-0.4-1.5-1.7-1.5h-1v5H46c1.3,0,1.9-0.5,2-2.4h1.9v4H38.6V86.6z"/>
	<path d="M56.5,86.1H58c1.3,0,2.1-0.6,2.5-2.7h1.9l-0.3,4.2H51.3v-1c1,0,1.3-0.3,1.3-1.5v-9.5c0-1.2-0.4-1.5-1.3-1.5V73h6.5v1.1
		c-1,0-1.3,0.3-1.3,1.5V86.1z"/>
	<path d="M63,86.6c1,0,1.3-0.3,1.3-1.5v-9.5c0-1.2-0.4-1.5-1.3-1.5V73h10.8l0.3,3.7h-1.8c-0.5-1.6-0.7-2-2.2-2h-1.8v4.8h1
		c1.3,0,1.6-0.3,1.7-1.5h1.6v4.6h-1.6c-0.1-1.1-0.4-1.5-1.7-1.5h-1v5h2.2c1.3,0,1.9-0.5,2-2.4h1.9v4H63V86.6z"/>
	<path d="M76.1,80.6c0-5.5,2.9-7.8,7-7.8c2,0,3.5,0.4,4.6,1.1v3.1h-2.6c-0.3-1.6-0.7-2.4-2.1-2.4c-1.8,0-2.7,1.2-2.7,5.9
		c0,5.1,1.1,5.9,2.6,5.9c1.7,0,2.1-0.8,2.4-2.6h2.5v3c-0.9,0.7-2.9,1.2-5,1.2C78.5,87.9,76.1,85.3,76.1,80.6z"/>
	<path d="M101.4,73l0.3,4.1h-1.8c-0.5-1.8-0.6-2.5-2-2.5h-0.6v10.4c0,1.2,0.4,1.5,1.6,1.5v1h-6.9v-1c1.2,0,1.6-0.3,1.6-1.5V74.7
		h-0.6c-1.4,0-1.5,0.7-2,2.5H89l0.3-4.1H101.4z"/>
	<path d="M103.9,75.6c0-1.2-0.4-1.5-1.3-1.5V73h6.5v1.1c-1,0-1.3,0.3-1.3,1.5v9.5c0,1.2,0.4,1.5,1.3,1.5v1h-6.5v-1
		c1,0,1.3-0.3,1.3-1.5V75.6z"/>
	<path d="M110.4,80.6c0-5.5,2.9-7.8,6.7-7.8s6.7,2.3,6.7,7.8c0,4.8-2.5,7.3-6.7,7.3S110.4,85.3,110.4,80.6z M114.7,80.4
		c0,5.1,0.9,6,2.4,6s2.4-0.9,2.4-6c0-4.7-0.8-5.9-2.4-5.9S114.7,75.6,114.7,80.4z"/>
	<path d="M136.1,75.6c0-1.2-0.4-1.5-1.3-1.5V73h4.6v1.1c-1,0-1.3,0.3-1.3,1.5v12.1h-2.7l-5.1-7.7c-0.9-1.4-1.5-2.5-1.7-2.9h-0.1
		c0,0.4,0.2,1.9,0.2,2.9v5.2c0,1.2,0.4,1.5,1.3,1.5v1h-4.7v-1c1,0,1.3-0.3,1.3-1.5v-9.5c0-1.2-0.4-1.5-1.3-1.5V73h5.5l4.1,6.2
		c0.7,1,1.1,2,1.4,2.6h0.1c0-0.4-0.2-1.7-0.2-2.6V75.6z"/>
	<path d="M153.9,80c0,2.4-2,3.7-5.5,4.9l-0.7,0.3h6.6l-0.4,2.4h-9.2v-1.9l2.3-1.7c1.7-1.2,2.7-1.9,2.7-3.6c0-1-0.8-1.7-1.9-1.7
		c-0.9,0-1.6,0.2-2.2,0.7l-0.6-1.3c1-0.9,2.5-1.6,4.5-1.6C152.3,76.5,153.9,77.7,153.9,80z"/>
	<path d="M160.9,87.9c-3.2,0-5.3-2.1-5.3-5.6c0-3.4,2.3-5.7,5.5-5.7c2.8,0,5.4,1.5,5.4,5.4C166.4,86.2,164.1,87.9,160.9,87.9z
		 M161,78c-0.9,0-1.4,0.8-1.4,4.4c0,2.9,0.3,4.1,1.5,4.1c0.9,0,1.4-0.9,1.4-4.7C162.4,78.8,161.9,78,161,78z"/>
	<path d="M174.1,84.9c0,1.3,0.2,1.6,1.8,1.7v1h-7.5v-1c1.8-0.1,2-0.4,2-1.7v-5.5c-0.9,0.5-1.4,0.7-2.2,0.9l-0.5-1.2l4-2.2h2.3V84.9z
		"/>
	<path d="M181.2,79.3c0.6-0.3,1.4-0.6,2.3-0.6c2.4,0,4.2,1.3,4.2,4.4c0,3.1-2,4.8-5.4,4.8c-3.5,0-5.2-2.1-5.2-5.7
		c0-5.4,4.7-8.1,9-9.1l0.4,1.2C183.5,75.5,181.8,76.8,181.2,79.3z M180.9,80.6c-0.1,0.7-0.1,1.1-0.1,1.8c0,2.8,0.7,4.3,1.9,4.3
		c1.1,0,1.5-1.1,1.5-3.1c0-2.1-0.3-3.2-1.7-3.2C181.9,80.3,181.4,80.4,180.9,80.6z"/>
</g>
<g>
	<path d="M263.6,75.6c0-1.2-0.4-1.5-1.3-1.5V73h6.5v1.1c-1,0-1.3,0.3-1.3,1.5v9.5c0,1.2,0.4,1.5,1.3,1.5v1h-6.5v-1
		c1,0,1.3-0.3,1.3-1.5V75.6z M271.1,79l3.5,6.6c0.4,0.8,0.9,1,1.7,1v1h-4.8l-3.7-7.1l4-5.4c0.1-0.1,0.2-0.3,0.2-0.4
		c0-0.3-0.3-0.5-0.8-0.5V73h4.8v1.1c-0.8,0.1-1.4,0.4-2,1.2L271.1,79z"/>
	<path d="M277.2,86.6c1,0,1.3-0.3,1.3-1.5v-9.5c0-1.2-0.4-1.5-1.3-1.5V73H288l0.3,3.7h-1.8c-0.5-1.6-0.7-2-2.2-2h-1.8v4.8h1
		c1.3,0,1.6-0.3,1.7-1.5h1.6v4.6h-1.6c-0.1-1.1-0.4-1.5-1.7-1.5h-1v5h2.2c1.3,0,1.9-0.5,2-2.4h1.9v4h-11.3V86.6z"/>
	<path d="M297.6,80l2-4.6c0.1-0.3,0.2-0.5,0.2-0.7c0-0.4-0.3-0.6-1-0.6V73h4.6v1.1c-0.8,0.1-1.1,0.3-1.6,1.2l-3.3,6.9v3
		c0,1.2,0.4,1.5,1.6,1.5v1h-7v-1c1.2,0,1.6-0.3,1.6-1.5v-2.9l-3.4-6.9c-0.5-0.9-0.7-1.1-1.4-1.2V73h6.4v1.1c-0.7,0-1,0.3-1,0.7
		c0,0.2,0,0.4,0.1,0.6l2.1,4.6H297.6z"/>
	<path d="M317.4,81.3c1,0.3,1.9,0.9,2.4,1.5c0.5,0.8,0.8,1.2,1.4,2.5c0.4,0.8,0.5,1.2,1.5,1.2v1h-4.7c-0.9-2.3-1-2.5-1.8-4.1
		c-0.7-1.4-1.1-1.6-2.1-1.8v3.3c0,1.2,0.4,1.5,1.3,1.5v1h-6.5v-1c1,0,1.3-0.3,1.3-1.5v-9.5c0-1.2-0.4-1.5-1.3-1.5V73h7.3
		c3,0,5.1,1.2,5.1,4.3C321.4,80,319.6,81,317.4,81.3L317.4,81.3z M315.3,74.7h-1.1V80h1.1c1.5,0,2-0.5,2-2.7
		C317.3,75.4,316.7,74.7,315.3,74.7z"/>
	<path d="M323.3,86.6c1,0,1.3-0.3,1.3-1.5v-9.5c0-1.2-0.4-1.5-1.3-1.5V73h10.8l0.3,3.7h-1.8c-0.5-1.6-0.7-2-2.2-2h-1.8v4.8h1
		c1.3,0,1.6-0.3,1.7-1.5h1.6v4.6h-1.6c-0.1-1.1-0.4-1.5-1.7-1.5h-1v5h2.2c1.3,0,1.9-0.5,2-2.4h1.9v4h-11.3V86.6z"/>
	<path d="M336,86.7v-2.9h2.5c0.2,2,1.1,2.7,2.4,2.7c1.3,0,2.2-0.6,2.2-2.2c0-1.1-0.5-1.8-2-2.2l-1.5-0.4c-2.2-0.6-3.6-1.7-3.6-4.4
		c0-3.2,2.1-4.7,5.2-4.7c2.3,0,3.8,0.7,4.5,1v3.1h-2.5c-0.2-1.6-0.7-2.7-2.2-2.7c-1.3,0-1.8,0.7-1.8,1.8c0,0.9,0.4,1.7,1.8,2
		l1.4,0.3c2.5,0.6,4.1,2,4.1,4.7c0,3.1-2.1,4.8-5.7,4.8C338.3,87.9,337,87.3,336,86.7z"/>
	<path d="M357.9,75.6c0-1.2-0.4-1.5-1.3-1.5V73h4.6v1.1c-1,0-1.3,0.3-1.3,1.5v7.3c0,3-1.5,5-5.5,5c-3.8,0-5.5-1.4-5.5-5v-7.4
		c0-1.2-0.4-1.5-1.3-1.5V73h6.5v1.1c-1,0-1.3,0.3-1.3,1.5v7.5c0,2.2,0.9,2.9,2.5,2.9c1.6,0,2.8-0.7,2.8-3.1V75.6z"/>
	<path d="M367.3,86.1h1.5c1.3,0,2.1-0.6,2.5-2.7h1.9l-0.3,4.2h-10.8v-1c1,0,1.3-0.3,1.3-1.5v-9.5c0-1.2-0.4-1.5-1.3-1.5V73h6.5v1.1
		c-1,0-1.3,0.3-1.3,1.5V86.1z"/>
	<path d="M385.3,73l0.3,4.1h-1.8c-0.5-1.8-0.6-2.5-2-2.5h-0.6v10.4c0,1.2,0.4,1.5,1.6,1.5v1h-7v-1c1.2,0,1.6-0.3,1.6-1.5V74.7h-0.6
		c-1.4,0-1.5,0.7-2,2.5h-1.8l0.3-4.1H385.3z"/>
	<path d="M386.7,86.7v-2.9h2.5c0.2,2,1.1,2.7,2.4,2.7c1.3,0,2.2-0.6,2.2-2.2c0-1.1-0.5-1.8-2-2.2l-1.5-0.4c-2.2-0.6-3.6-1.7-3.6-4.4
		c0-3.2,2.1-4.7,5.2-4.7c2.3,0,3.8,0.7,4.5,1v3.1h-2.5c-0.2-1.6-0.7-2.7-2.2-2.7c-1.3,0-1.8,0.7-1.8,1.8c0,0.9,0.4,1.7,1.8,2
		l1.4,0.3c2.5,0.6,4.1,2,4.1,4.7c0,3.1-2.1,4.8-5.7,4.8C388.9,87.9,387.7,87.3,386.7,86.7z"/>
</g>
</svg>
