<?xml version="1.0" encoding="utf-8"?>
<!-- Generator: Adobe Illustrator 21.0.2, SVG Export Plug-In . SVG Version: 6.00 Build 0)  -->
<svg version="1.1" id="Layer_1" xmlns="http://www.w3.org/2000/svg" xmlns:xlink="http://www.w3.org/1999/xlink" x="0px" y="0px"
	 viewBox="0 0 450 95" style="enable-background:new 0 0 450 95;" xml:space="preserve">
<style type="text/css">
	.st0{fill:#ECB5B6;stroke:#FFFFFF;stroke-width:0.9391;stroke-miterlimit:10;}
	.st1{fill:#C1DEF1;}
	.st2{fill:#FFFFFF;}
	.st3{fill:#C30101;}
	.st4{fill:#3F98D3;stroke:#FFFFFF;stroke-width:0.939;stroke-miterlimit:10;}
	.st5{fill:#ED2424;stroke:#FFFFFF;stroke-miterlimit:10;}
	.st6{fill:#00AFEA;}
	.st7{fill:#C31C1C;}
	.st8{fill:#3F98D3;}
	.st9{font-family:'MetaSerifPro-Bold'; font-weight: bold;}
	.st10{font-size:22.1368px;}
</style>
<path class="st0" d="M5.7,33.5c0,0,3.3,11.2,38.3,11.2c25,0,50.4-13.3,77.1-20.9c10.7-3,25.7-5.2,34.8-5.2c42.2,0,63.9,7.5,63.9,7.5
	L218.9,46c0,0-16.6-9.9-55.6-13.8S78.8,54.1,44,50.6S5.7,33.5,5.7,33.5z"/>
<path class="st1" d="M2.6,30.8c0,0,13.2,19.6,47.7,25.3s69.6-16.7,116.6-9.4c38.7,6.1,51,16.9,51,16.9l-16.5,15.1
	c0,0,1.1-6.6-36.7-16.8S83,71.8,49.2,62.6S2.6,30.8,2.6,30.8z"/>
<path class="st0" d="M406.1,50.6c-34.8,3.5-80.4-22.3-119.4-18.4S231.2,46,231.2,46l-0.8-20c0,0,21.7-7.5,63.9-7.5
	c9,0,24,2.1,34.8,5.2c26.8,7.6,52.2,20.9,77.1,20.9c35,0,39.3-11.2,39.3-11.2S440.9,47.1,406.1,50.6z"/>
<path class="st1" d="M401,62.8c-33.8,9.1-77.7-11-115.5-0.7s-36.7,16.8-36.7,16.8l-16.5-15.1c0,0,12.3-10.9,51-16.9
	c47-7.4,82.1,15.1,116.6,9.4S447.6,31,447.6,31S434.7,53.6,401,62.8z"/>
<polygon class="st2" points="224.5,77.4 194.9,93 205.2,62.9 176.6,36.6 209.7,31.8 224.5,1.7 239.4,31.8 272.5,36.6 244,62.9 
	254.2,93 "/>
<g>
	<polygon class="st3" points="224.8,3.8 238.7,31.7 196.6,89.8 	"/>
	<g>
		<path class="st2" d="M224.9,5.4L238,31.6l-39.6,54.6L224.9,5.4 M224.7,2.2l-29.9,91l44.6-61.5L224.7,2.2L224.7,2.2z"/>
	</g>
</g>
<polygon class="st4" points="194.8,93.3 273.6,36.7 239.4,31.8 "/>
<g>
	<polygon class="st5" points="210.1,31.7 224.5,2.6 253.2,91.1 	"/>
	<path class="st2" d="M224.4,3.5l27.8,85.7l-41.7-57.5L224.4,3.5 M224.5,1.7l-14.8,30L254.2,93L224.5,1.7L224.5,1.7z"/>
</g>
<g>
	<polygon class="st6" points="176.3,37 209.6,32.1 252.7,91.6 	"/>
	<path class="st2" d="M209.4,32.5l41.8,57.7l-74.1-52.9L209.4,32.5 M209.7,31.8l-34.3,5l78.8,56.3L209.7,31.8L209.7,31.8z"/>
</g>
<g>
	<polygon class="st7" points="236.4,41.8 250.7,85.2 242.2,73.6 	"/>
</g>
<polygon class="st8" points="240,76.1 226.9,72 248.4,87.8 "/>
<text transform="matrix(1 0 0 1 26.8801 87.8762)" class="st9 st10">ELECTION 2017</text>
<text transform="matrix(1 0 0 1 261.5489 87.8762)" class="st9 st10">KEY RESULTS</text>
</svg>
