<svg xmlns="http://www.w3.org/2000/svg" viewBox="0 0 70.5 68.875" preserveAspectRatio="xMinYMin meet">
  <path id="48" d="M43.373 28.712l.724.008-.021.425.299.102.184.005.134-.118.315.004.206-.166.052.224.345-.055-.015-.196.751-.029.118.157-.091.192.248.05-.004.087.185-.02.051.058.016.043-.169.001-.005.175.088.001-.004.17.092.008-.001.085-.11.016.093.422-.22.104-.046.215-.135.172-.213.093-.033.153.566.738.042.3-.252-.005-.167.334-.526.418-.141.308.105.319-.124 1.08.135.139.304.083-.068.172.034.182-.252-.206-.013.105-.303-.026.055.197-.234.058v-.089l-.174-.025v-.169l.135-.072.008-.088-.402.035-.177-.071-.091.196-.054-.13-.4-.083.143-.061-.008-.262.305.007.075.132.252-.04.051.095.175.041.003-.112-.44-.157-.078-.14.023-1.352-.349-.01.005-.35-2.127-.059-.104-.089-.032.098.088.078-.087.09-.053.281-.191-.278-.312-.087-.105-.491.109-.982.275.427.008-.136.052.023-.078-.257.082-.361.068.098.038.534.125-.099.061-.333.144-.223.11.009.051.198.148.027-.03.115.047-.091-.026-.047.109-.1-.066-.227-.087-.05.074-.11-.03-.269.088-.386-.059-.131.351-.023.01-.949.093.009.261-.173z" class="district"/>
  <path id="47" d="M40.061 45.758l.019-.525-.178-.003.006-.176.351.015.188.198 1.834.039-.01.135.166.006-.007.231.059.003.006-.231.172.005.015-.523-.085-.002.001-.176-.162-.017-.248-.501.169-.01.038-1.929.343.01-.005.174.338.009.005-.175.352.006.023-.699.696.011.02-.472.095.094.242.042.805.022.247-.001.007-.142.215.204.127.018-.017.631.174.118-.018.753.117.17-.297-.002-.018.698.696.016-.015.7.587.005.005.395.112-.075-.011.394-.222-.006-.006.175.187.005-.008.242.217.079-.017.352-.183-.065-.039.59.353.009.025-.344.1.029.059.379.134.153.06.337.115.161-.152-.006-.003.669-1.577-.019-.022-.274-.239-.265-.424.081-.435-.422-.231-.014-.096.072-.523.065-.307-.059-.304.216-.224.418-.121.082-.42-.228-.079.052.063.166-.151-.057-.02-.14-.111.008-.055.077-.078-.071.047-.041-.04-.091-.24-.006.004-.177-.124.004.001-.087-.04.11-.359.013-.06.378-.867.019-.277-.077-.347.01-.09-.039-.175-.444-.138-.098h.066l.026-.692.344.006.018-.675z" class="district"/>
  <path id="46" d="M39.756 30.762h-.033l-.022-.027.107.004-.052.023zm-.095.157l.004-.027.026.027-.004.008-.026-.008zm.014-.134l-.025-.008-.002-.005h.034l-.007.013zm-.027.167l-.002.037-.01.008.007-.044.005-.001zm.102-.172l-.017-.001-.001-.007.035.007-.017.001zm.275-.124l-.018-.002.029-.018.002.006-.013.014zm-.356.278l-.012.009-.009-.005.005-.016.016.012zm.379-.281l.006.013-.001.007-.016-.015.011-.005zm-.252.075l-.017-.005.044.001-.004.004h-.023zm-.102.162l-.013-.021.024-.085.04.048-.051.058zm-1.465-4.105l1.724.059-.012-.151-.208-.031.002-.175.152.002.001-.085-.082-.091.003-.177-.183-.095.03-.33-.182-.296.06.006-.013-.18-.08-.021-.033-.135-.118.009.221-.093.057.07.262.008.002-.355 2.284.084-.05 1.106.247.064-.012.062-.09-.001-.012.174.159.006.004.441-.129-.006.122.271-.718-.026-.144.074.032.183-.189-.003-.023.117-.37-.049-.163-.569.324-.601v-.242l.112-.099-.195.065-.28-.045-.475.513-.097.449.146.281-.003.464.098.175.17 1.15.284.331.234-.015.245.132.08.141-.243.524-.227.229-.267.117-.035.291-.261.272-.008.218-.067-.03-.081-.229-.17-.076-.052-.106-.092.147-.265.009-.025.06.054.026-.062.208-.168.003.154-.892.013-.653-.07-.002.001-.176-.459-.012-.146.063-.048-.107-.124.131-.358-.228-.223.209.035-2.562z" class="district"/>
  <path id="45" d="M42.588 27.991l-.046-.277.159-.004.014-.769.414.007.093-.162.141.166.046-.473.059-.041-.047.141.353.183.06-.667-.055-.298.049-.059.369.012-.002-.166-.095-.003.002-.175.086.003-.084-.177-.002-.356 5.454.156 2.347-.039-.006.249.207.034.025.585.266.184.02.15-.164-.053.327.449-.047.347-.465-.034-.008.173-.165.025-.004.062.161.095.006.082-.119.086.178.305-.116.01-.186-.108.011.329-1.86-.083.029.37-.703-.012.19.525.386.597.071.272.498.875.123.074.181.648-.256.014.137.146-.289.512.051.114-.029 1.468-.718-.025-.004.135-.341-.014-.031-.075-.072.051-.253-.184-.054.062-1.365-.042.002-.167-.126-.24-.095-.005-.132-.131-.004-.112-.445.629-.491-.019.492-.725-.326-.149.173-.341.252.005-.042-.3-.566-.738.033-.153.213-.093.135-.172.046-.215.22-.104-.093-.422.11-.016.001-.085-.092-.008.004-.17-.088-.001.005-.175.169-.001-.016-.043-.051-.058-.185.02.004-.087-.248-.05.091-.192-.118-.157-.751.029.015.196-.345.055-.052-.224-.206.166-.315-.004-.134.118-.184-.005-.299-.102.021-.425-.724-.008.002-.087-.261.173-.093-.009-.01.949-.351.023-.194-.214-.119-.527.088-.369.138-.059.023-.146-.239-.119.002-.171.178.028.152-.133.004-.056z" class="district"/>
  <path id="44" d="M42.908 19.778l.171.006.011-.396.109-.002.004-.171-.078-.002.052-.173-.088-.004.028-.237-.098-.005-.032-.25.111-.011.001.154.176.008-.004.265.09-.004.006-.083.082.005.046-.359-.219-.003.007-.171-.088-.005-.048.11-.22-.081.086-.041.054-.197-.086-.156.051-.171.978.026.012-.741.095.003.021-.174-.25-.343-.415-.076.18-.497-.084-.295.063-.467.212-.213.252-.069.175-.162.311-.072.238-.317-.053-.911.098-.222.123-.064.005-.046-.063-.084.004-.049.15-.003-.188-.392-.196-.052.071-.133.252.003.018-.483.084.005-.04-.261.11.002.026-.065.016-.717.244.021.025-.154.175.007.059-.105-.065-.102 2.033.009-.035 1.753.706.012.01.641.25.008.109-.115.096.068.042.189-.183.255-.06.267.079.196-.018.717.093-.052.278.468.237.201.441.021-.158 3.377-1.362.061-.05.926-1.483-.909-.078.037-.057.081.078.182-.007.283.156.456-.093.178.077.576.12.142.119-.078-.019.107-.078.027.162.052-.312.16-.165-.024-.326-.772-.215-.122-.017.651-.214-.006-.166.079-1.378-.044-.01.344-.753-.02.018 1.055-.815-.022-.114-.18-.28-.007.041-.535h-.064l.003-.176h-.124l.001-.063.093-.002-.095-.085.061-.641-.116-.02.007-.354-.234.028-.058-.069.595-.655.256.099.026.55.176.004z" class="district"/>
  <path id="43" d="M40.102 31.141l-.005-.013.004-.005.014.012-.013.006zm-.287.148l.005.012-.017.007.003-.019h.009zm.171-.07v-.011l.022-.01-.018.035-.004-.014zm-2.531-.889l.019-.569.14.004.043-.176.434.023.103-.265.207-.204.374.223.126-.131.048.107.146-.063.459.012-.001.176.07.002-.013.653-.154.892.146.006.086.2.09-.079-.006.112.029.072.124-.044.05-.058.012.014.006-.004.049-.053.053.075.234.007.056.086-.007.342-.099.285-.139.147.01-.063h-.055l-.011.175-.068-.121-.197-.039-.664.547-.008.237-.17-.006-.002.058-.613.294.019.04v.082l-.12-.03.114-.06-.103-.069.024-.063-.139-.196.063-.027-.08-.099.209-.107-.002-1.301-.277-.355-.613-.454-.002-.235zm2.383.749l.172.003-.085.187-.128-.032.09-.096-.049-.062zm-.186.023l.014-.031.135-.001-.029.031-.12.001zm.405.075l.091.002.016.029-.033.029-.074-.06zm-.211.104l-.037-.002-.019-.03.033.004.023.028zm.184-.117l-.001.011-.04.021.018-.035.023.003zm-.014-.027l.004-.057.071.044-.014.027-.061-.014z" class="district"/>
  <path id="41" d="M41.283 33.644l.035-.089.098.01.211.17.32-.126.079.202-.012.213.742.44-.278.68-.02 1.163-.136.266-.409.452-.352-.232-.246-.41.097-.182.128-.072.072-.35.162-.287.007-.234-.085-.378-.36-.35-.253-.365-.024-.447.159.005.065-.079zm1.279 4.372L42.548 38l.002-.003.019.007-.007.012zm-.373-5.39l-.082-.087.032-.099.104.09 2.127.059-.005.35.349.011-.023 1.352.078.14.441.157-.003.112-.175-.041-.051-.095-.253.04-.075-.133-.305-.007.008.263-.143.061.4.083.054.13.091-.196.176.071.402-.035-.008.088-.134.072-.001.169.174.025v.089l.233-.058-.055-.197.303.025.014-.104.252.206-.035-.183.069-.172-.304-.083-.135-.139.123-1.08-.105-.319.141-.308.521-.411.326.149-.492.725.492.02.445-.629.003.111.133.131.094.005.126.24-.002.167 1.366.042.054-.061.253.184.071-.051.031.075.342.014.004-.135.71.025-.009.319.315.002-.024.197.174.003.446.399-.002.116-.352-.007-.002.175-.147-.004.003-.175-.514-.015.006-.204-.097.01.005-.163-.176-.007-.009.283-.208.304-.54-.26-.57-.022-.185.071.183.251-.119.377.003.279.119.284-.188.196-.063-.033.079-.057-.021-.104-.255-.01-.073.201-.041-.066-.65-.014-.188.299.015.216-.161-.207-.173.027-.004.109.085.024-.086-.003-.008.22h-.087l-.014.35-.087-.001-.02.688-2.076-.056-.536-.126-.011.129-.19-.119-.496.074-.007.126-.178-.076v.443h-.176l-.007.245-.058.009-.393-.159.095-.042-.042-.288-.258-.374.249-.426-.028-.175.312-.35-.021-.703.107-.057.168-.412-.186-.401.137-.058.039.045-.072.039-.009.045.027.061.059.044-.072-.104.078-.067-.032.079.085.094-.067-.099.044-.072-.085-.104.092-.121.087.02-.082-.058.008-.088.071-.023-.267.027-.298-.196-.243-.623.013-.24-.128-.129-.036-.175.044-.14.238.116.018-.054-.433-.387z" class="district"/>
  <path id="39" d="M50.375 0l.0313.1563L50.25.375l.125.0938v.4375l-.2813-.0625-.75.4687-.2187.4063-.5313.4374-.3124.0938-.3126.4063-.8124.4062-.5313.125-.2188.2188-.0624.1875-.4376.4375-.0624.1875-.0626-.0313-.125-.3438.0313-.25-.1563-.0937-.4687.1875-.0313.1875-1.375-.0313.0313-.6875h-.3438l-.0312.6875h-.3438l.2188.75.4688.875.1562 1.5625h.5v-.0937h.125v.0938h.1875l-.0625 2.5312.4063.0313.0312.0937h-.1875v.2188l.4688.0312-.0313 1 .2188.0313.0312-.1563h.1875l.0625-.0938-.0625-.125 2.0313.0313-.0313 1.75h.6875v.6563h.25l.125-.125.0938.0625.0312.1875-.1875.2812-.0313.25.0626.1875v.7188l.0937-.0313.25.4688.25.1875.4375.0312-.1563 3.375-1.375.0625-.0312.9063-1.5-.9063-.125.125.0938.1875-.0313.2813.1563.4374-.0938.1876.0938.5937.125.125.0937-.0625v.0938l-.0938.0312.0626.0313.125.0312-.3126.125.0313.125.4063.5.8124.7813-.0937.0312.4688.5938h-.0626l.0938.125-.0313.25.125.375-.0312.625.2813.0312V25l5.1874.0313 9.125.1562-.1874 8.5625h-.3438L62.4687 38h.6876v-.0938l3.4687.0626v-.25l3.875.0312V0H50.375z" class="district"/>
  <path id="38" d="M42.459 12.746l-.024-.042.293.15-.255-.099-.014-.009zm.108.286l.132.025-.303.347-.083.895-.028.247-.012.013.047-.436-.076-.551.057.153.112-.573.154-.12zm-2.786.669l-.61-.279-.26-.45.184-.088.147.005.051.017-.043.001.081.186.137.062.05.116.188.053-.002.12.19.209-.113.048zM38.27 8.22l-.705.339.705-.339zm-.165-.294L41.077 8l-.052-.313-.277-.247.002-.155.322.017.145-.131-.299-.408.041-.345.276.014.111-.066.226.109.326-.102.269.255.743.024-.005-.185.619.007.009-.357.193-.002.087.905.496.011.003-.106.121.009-.003.088.21.01-.077 2.526.404.043.031.095-.188.001.001.213.472.038-.062 1.706-.026.063-.11-.002.039.261-.083-.005-.018.483-.253-.003-.072.139.196.046.188.407-.146-.017.05.183-.123.064-.098.223-.024.29.089.494-.058.233-.191.21-.31.072-.175.162-.252.068-.212.214-.062.467.084.295-.181.497.416.076.25.343-.021.174-.095-.003-.012.741-.978-.026-.05.171.085.156-.054.197-.086.041.22.081.048-.11.088.005-.007.171.219.003-.046.359-.082-.005-.005.083-.091.004.004-.265-.176-.009-.001-.153-.101-.005-.014.077.035.188.099.005.003.154-.49.067.157-.524-1.74-.046.057-.146-.108-.247-.166-.008-.004.195-.346-.008.014-.609-.179-.02.006-.229-.177-.036.017-.676.177.007.005-.175.177.004.006-.102-.104-.002v-.095l-.194.029-.004-.053.481-.203.881-.122.481-.371.326-.431.099-.004.161-.302-.057-.119.074-.182-.165-.025-.051.168-.076-.025-.054.069.056.07-.096-.053.189-.323.013-.204.283.009-.04-.178-.243-.006.016-.123.161.007.003-.082-.151-.01.03-.088.216.005.102-.293-.015-.166-.105-.115.074-.048.135.146.026.012-.066-.152.115.06.091-.091.151.022.016-.051-.405-.107-.001-.176.417-1.291-.92.695-.045.095.038-.027.058.174-.199.09-.247-.06-.997-.784-.587-.265-.048-.095.096-.056.056.113.377.142.084-.121-.072-.095.076-.104-.142-.062-.088-.222-.183-.104-.227-.015-.05.147-.141-.188-.097-.31-.635-.438-.016-.284-.118-.29-.554-.264-.025-.31-.112-.129-.004-.198-.124-.189-.256-.208-.09-.216zm-.738-.031l.11.496-.11-.496z" class="district"/>
  <path id="37" d="M40.607 35.083l.022.02-.03.018-.009-.022.017-.016zM42.548 38l.014.016-.014-.007V38zm-4.212-4.676l.044.002-.019-.122.613-.294.002-.057.17.006.008-.237.664-.547.197.039.068.121-.028-.113.093-.062.083.45-.23.889-.036.253.064.225-.091.257.125.164.125.447.051.025.034-.066.286.249.009.187.103.053.16.509.168-.104-.019-.375.083-.036.159.173.041.24-.103.183-.266.06-.021.214-.136.183-.075.306.125.437-.101.065-.007.088.178.112.261.333.367.107.623.509.249-.007.225-.149.173.094.079-.029.146.566-.223.436-.19.18-.001.075-.118-.005-.043.136-.231-.002.045-.084-.069-.206-.375.088-.221-.166-.258-.028-.349-.148-.526-.554.023-.679-.175-.01-.004.138-.094-.053-.004-.089-.147-.015-.195-.442-.007-.18.112-.043-.051-.374-.062-.166-.277-.316-.325-1.724-.203-.015.006-.252-.121-.196-.662-.012-.005.202-.133-.133.003-.298.153-.405.083-.008z" class="district"/>
  <path id="36" d="M37.102 27.782l.454.101.051.117.258.009.085.178.261.008-.06 1.327-.06.091-.434-.023-.043.176-.14-.004-.019.569.002.232.613.454.277.355.002 1.301-.209.107.08.099-.045.028-.848-.821-.288-.127-.033-.308-.018.208-.039-.146-.057.004.008.142h-.05l.005-.217-.27.149-.487-.275-.292-.296-.041-.376-.094-.21-.18-.24-.31-.184.365-.152.276-.231.225-.065.067.233.32.112-.222-.208-.164-.338.214-.363.024-.321-.089-.175.167-.229.537-.311.145-.16.056-.22z" class="district"/>
  <path id="35" d="M24.9375 29.375l-.2188.4063H24.5l-.3438.1874h-.125l-.3124.2188h.125l.0312.1875-.0938.0313v-.125l-.0624-.0938-.0626-.0313-.125.0313-.0312.0938-.4063.0937-.5.375-.3124.125-.2188.1875-.0313-.0313v-.2187l.25-.4688.0626-.0312v-.0938h-.125l-.6876.2813-.3437.625.125.0313-.0938.0624-.0312-.0937-.125.0625-.0625.125h.0313l.0937-.125-.0938.2813-.2187.1562.125-.2813H21l-.0625-.0312-.1563-.125-.5624.25-.1876.1563-.6562.125.0313.125-.125.1562.1562.3125-.0938.0938-.1562.4374-.2188.0938-.5624.5h-.625l-.25.75.125.125-.3126.0313.0626.3437-.3126.0625-.1562.2813-.6563.9062-.2187.1875h-.125l-.4375.8125-.0625.625-.125.3438-.2813.4687-.5312.5313-.3125.5937.3438.2813.2812-.0626-.0938.125-.2812.0313-.2188-.1875-.0625.0938-.2187.0312-.0625.1563-.1563.0937.0625.0938h-.1562l-.125.375-.3438.5312L13 41.625l-.3125.4688-.0313.25-.1562.2812-.0938.0313v.0937l.2188.1563-.0625.0937v.4375l.2188.125.3437-.0625.125.0625.375-.0938.8125.3126.125-.0313-.0313-.0625.125-.1563.125-.0312.0313.0625.25-.0938-.125.1876-.0625.0312-.0625-.0938-.1563.0626-.0625.375.3125.2812h.375l.2188-.125.375-.8125.4063-.2813.5-.1874L17 42.625l.2188-.0938.25.0313-.0313-.0313.1563-.125.5937-.1562.9688-.5313h.3124l.0938-.2812.0938-.0938h.1562l.0938-.1562.2812.0625.125-.1563h.1563L20.625 41v-.0625l.1875-.0938.2813-.3437.0937.0313-.0313-.0938.125-.0938.0938.0313.0313-.125.1874.0313.125-.125v.0937l-.1874.1875.0937.0938-.0625.4062-.2813.0625-.0624.0313-.0938.1874-.5625.5-.2188.3438-.25.0313-.2187.1562-.6563.75-.2812-.0313-.6563.2813h-.3124l-.3438.1563-.3438.0624-.0937-.0937-.25.2188-.25.0624-.9688.8438-.3125.1563-.5.125-.4375-.0313-.625.0625.0313-.1875-.0625-.0625-.1875.0313-.0625-.1563-.7188-.125-.0625-.0938-.375-.0937-.6875.1875-.5.5-.1562-.1563-.0625-.25.125-.3124-.0938-.4376.375-.25-.0312-.2812.125-.25.1875-.8438.3438-.5937.2812-.75.125-.0938-.0313-.25.1563-.125.1875-.375-.0313-.1562.0625-.0938-.0937-.0937.0625-.125-.0938-.1875-.0625-.0625.0625-.2188.0313.0313V39l-.0313.0313.0313.0312-.0313.125.25.0938.1875-.0938.4063-.4375.0313-.1875.125-.1563.9375-1v-.1874l.125-.0938-.0938-.1563.2188-.625.0312-.2812.25-.25.125-.3438-.0625-.1562-.125-.0625v-.0938h-.0938l.0625-.0937.0938.0625.0938-.0938H15.5l.25-.3437.3125-.25.0313-.2813.1562-.125.125-.2187.0938-.3438.25-.2812.2812-.5938.1875-.0312.0625-.1563-.1875.0626-.0313-.0626-.4374-.0312-3.1876-.1563L.125 31.7813l-.125 3v22.375l3.6563.1562H5.875l3.2813.0938v2.9062l-.125 1.3438 1.4375.0937-.3125 7.125h2.0625l.2187-.125.4375-.0625.2813.1875h.6875l.2187-.0938.125-.2187.0625.0625-.2188.25h3.7813l.2188-.4375.0312-.2188.125-.0937.1563-.375v-.2188l.3124-1.0937v-.9063H19.5l.25-.1874h.1875l.0938-.1563.25-.0625.1562-.2813v-.3124l.2188-.0313.125-.1563.0312-.1562h.3438v-.5938l.8124.0938.2188.1875.4375-.0625-.3438-.4688L22 63.125l-.0938-.1563-.1874-.125-.0938.0626-.0938-.0626-.2812-.5937-.0313-.1563L20.875 62v-.625l-.6875-.0313v.1876l-.4063-.0313v.1875h-.125l.0313.0938h.125V62l-.1563-.0625-.0312.3125-.125.0938.0313.0937h-.0938v.3438l-.3125.25.5625.7812v.0938h.0625v.25l-.5313-.0313v-.1563l-.3124-.0312v.1875l-.4688-.0313V64h.0938v-.1563h.0937V63.75h-.0938v-.3438l-.5-.0312-.0624 1.0625h-.3438l.1563-.3438.1874-1.2812h-.0937v-.125h-.0938l-.4374.4688-.1876-.0938-.4374-.0313.1874-.6562-.1562-.0625v-.1875l-.0938-.0313h.1876v-.5l.3437.0313.1563-.375h-.3126v-.1875l-.0937.0938-.375-.125-.625-.4376.125-.375.2813-.2812.0312-.2188-.2813-.125.1563.1876-.1875.1562.0625.0625-.0625.0625v-.125l-.0313-.0938.0938-.0937-.0938-.1875.0938-.0625-.0313-.125-.125-.0313L16 59.25h-.125l-.0625-.0938-.0938.0626-.0937.125V59.25l.0938-.0313.0937-.125L15.7187 59l-.3125-.125-.1875-.375.0625-.125v-.25l.1563-.2813.5625-.25.125.0626.0938-.1563.125-.2813-.0626-.0937.1563-.2813-.1875-.0937-.0625-.1875.125.1875.1875-.0313.1875.125.2188-.125h.2187l.2188-.1562-.0938-.1563-.375-.2187.1875.0313.0313-.5.2187-.4688.6563-.625.0624-.0625h.0938l.3125-.375.1875-.4063.0313-.375-.3438-.1562-.0938.0625-.125-.25-.125-.0625-.0624.4688-.5313.5937-.0313.1563-.0624-.0626-.1563.1563v.0938l.0625.0312-.1563.1563v.0937l-.0937-.0313-.1563.0626-.2812.4062-.0313-.0625.125-.3125-.125-.1875-.5312.0938-.1875.375.0313.125.2187.0312-.0313.0313.0313.0624-.0938-.0312-.0312.0625-.0313.1563-.25.25-.1562.3437-.375.3438-.5625.1874-.1563-.125.125-.0624v-.0938l-.5625.0938-.5.4062v.125l-.1875.125-.0312.0938.1875.0624h-.1563l-.0312-.0624-.0313-.0626h-.0625L13.1563 57l-.125-.0625.0938-.4688.032.0313.031-.0938.219-.0624.438-.4688.25-.0625.438.0625.188-.0625v-.0938l.031.0938.188.0313.25-.125v-.5313l.1873-.25-.031-.5625-.0623-.0313-.094.1563-.094-.0313.094-.1562-.0623-.0313-.281.0938-.1876-.0313-.0625-.0937-.1877.0313-.094.125-.062-.0313-.125.0625-.0624.25-.4686.4063-.0936-.0313-.094.1875-.2185.0625-.0627-.1563-.0935.0626-.031.125.0625.0624-.0626.0313-.0622-.1875.125-.1875.156-.125.156.0313.0624-.125.3126-.125.219-.1876-.032-.0312.125-.125.3438-.1875.5313.0625.25-.125.094-.1563-.0622.1563.0625.0938.281.0624.375-.4687.281-.1875.375-.1563.4686.125.125-.0312.2816-.375.031-.4063.4064-.375v-.0937l.0622.0625.094-.1875-.2816-.25-.1564.125-.3434-.0938-.314.0313-.375.0938-.0624.125-.2187-.0626-.125.0626-.0625.0624-.062-.0624.157-.0626L15.906 52l-.0312-.1875-.3438.0625-.7812-.125-.6875.125-.1875-.0313-.1563-.1562h-.1562v-.125l-.2813.125-.3437-.0313-.0313-.1562v-.0313H13v-.1562h.125l.1875-.1563.375-.4062.2813-.1563.3125-.3437.2187-.4375.1563.0313.0312-.0626.0625.0626.0938-.1563L14.75 49.5l.6875-.3438.0313-.125L15.625 49l.0313.1875.1562-.0313-.375.375-.4375.25-.3438.3126-.1562.2187.0938.25.125.0625.25.0938.125.25L15 51l-.1563-.0313-.0625-.0937-.125-.0625.0313-.0938-.8125.4688-.1563.1563.0313.125.1875.0937.0625.1563.75-.1563.3438.0313.1562.0937.25-.0625.1563.0313.25-.0938.1562.1875v.2188l.2813.0937.0312-.125.3438-.0625.0624.0625.4063-.1563.125-.0937-.0625.0938.0625.0624.1875-.0624.125.0312v.125l.25-.2188.25.1563.0938-.1875-.125-.3438h-.1563V51.25l.0938-.375.0937-.0625v.125l.0938-.4063-.0938.0626.0313-.1876-.125-.0624.125-.0626v-.125l-.0313-.125-.0938.0313v-.0938l.0626-.1562.0312.0625.1563-.0625v.0938l.0624-.0626v.0938l.125-.25.0313-.7813-.1563.1876.0938-.1563.0938-.7188.125-.0937.0937-.2188.0313.0626-.0626.0937.2813-.25.3125-.0938.0938-.0937.0624-.125v.0625l-.0624.0625.0624.0625.125-.0938.0313.0626.125-.0938.0313.0625.0937-.0313.25-.25.125.0313.25-.1875.125-.25-.0938-.125v-.25l.0938.0313-.0313.1874.1563-.0937-.0313.125.0313.125.5313-.125.1562-.3125.0313-.2188v-.2187l.0312.0313-.0313.1874.25-.2812v-.4375l.1876-.3438-.1563.0938.2188-.375v-.3125l-.2188.2188.25-.375.0313-.4063v-.0313h-.0626l-.125.25.0938-.4687-.0938-.0938-.1562.0313.2813-.4063.1874-.6562-.2187-.375.3438-.0625v.1563l.0937-.0313.0938.5938-.1563.6874.0938.4376.2187.25v.2812l.1563-.0625.0937-2.1875 4.5.1563-.1563-.1876.0313-.4374.2188-.6876.0937-.8437.125-.4375.125-.25.0313-.5.1874-.1875.1563-.3125h.1875l.125-.125.0313.0938.0312-.0313-.3125-.5313-.2813-.0312-.125.0938h-.2812l-.0313.125h-.2187l.0313-.1563h-.1876v.1875l-.1874-.0313v.375h-.1563v-.1874h-.1875v.1874h-.5938V38.5l.2188-.375.1563-.5313-.4376-.0312.0313-.7188h.1875l-.0313.5626h.1563l.0313-.1876H26.5V37h-.0625v-.3125l.0938-.0625-.125-.0313-.0313-.0937.3438-.375L27 36l.0625-.1563-.125-.25.3438-.375-.0626-.1874h.1876l-.1563-.1563-.0313-.2813.2813-.0624.2813-.1876H28V34.25h.375v-.0938h.0938v.0938l.0624.0313v-.1563l.0938-.0313-.5-.0312v-.1875l-.25-.3125L27.75 34l-.1875-.125-.0625-.2188.0313-.125.0312.1563.1563-.5938-.0626-.1562-.1562-.0938-.0938.1876-.0937 1v-.6563l-.0625-.125-.0938.0938.0313.0937v.7813l.125-.1563.0313.0313.0312.0937-.0313.0625.125.25-.1562.0313-.25-.125.0938-.5h-.0626l-.0312.2812-.125-.0625-.1563-.375.0626-.2813.0937-.0312-.2813-.375.1876.0625.0937-.4063-.1875-.1874-.0938.0624-.0937.2813-.125-.0938-.125.0938-.0938-.125v-.1875l-.0624-.1563.0937-.3124-.0313-.1563.2188-.6875-.1563.0938-.0312-.0938-.9063-.0313.0626-1.75h-.4376l-.0312-.0937zM21.2812 41l.125-.0625h-.0624L21.2812 41zM21 31.3437h.0313v-.0312L21 31.3438zm.125 15.9376l-.375.3437-.0625-.0938-.2813.2813H20.25l-.25.125-.125.25.1875.1563-.1563-.0938h-.0937l-.0938.1875h-.0937l.0938-.125.125-.2813h-.3126l-.1874.125-.1876-.0624-.125.0312-.2187.3438v1.0937l-.0938.1563.0626.0624-.0626.1563-.0624.0313v-.0938l-.0938.125-.0313.375.1876.625h.1874l.1563.1563.125.25.0938.0312.125.3125H19.5l.0938.125.3124 1.25.1563.3125v.4375l-.0938.0938.1563-.0626.125-.2187.125-.0313-.0313-.0312.1563-.0313.2813-.3124.4687-1.375-.0313-.2813-.375-.6563-.0624-.1562.0312-.25-.2813-.2188-.1874-.4062.1874-.9375.0938-.1875-.0313-.0938-.125.125.0313-.0937-.1563-.125.0626-.2813.3437-.2812.1875-.4063.25-.2187.0313-.0938h-.0626l-.0312-.0624z" class="district"/>
  <path id="34" d="M33.601 38.197l.079-.656.07-.055.692.356.04.072-.298.343-.004.429.375.396.13.331.339.276-.365.606.128.206-.005.679.315.615-.338.22.077.301-.033.196.403.312 1.017.16.683.514-.159.151-.709.144-.144.153-.448.17-.22.237-.227.021-.227.153-.366.494-.211.582-.229.013-.294-.121-.144-.194-.041-.199.129-.382.222-.284.102-.317.288.196.355-.534.407-.283.044-.098-.088-.108.05-.194-.059.198-.134-.108-.02-.609-.217.053-.113.123-.11-.059-.363.122-.164-.067.136.103-.095.341.037.151.305-.211.113-.007.21.26-.193.272-.358-.179-.278-.024-.229.097-.218.242-.248 1.392-.037.907-.053.091-.174.015-.22-.032-.134-.128-.32-.008-.277-.528.112-.848.081-.201.226-.158.046-.353-.061-.236-.284-.444-.042-.282.055-.133.227-.169-.089-.109.031-.111.26-.328-.037-.185.092-.197.041-.464-.086-.395.019-.393.068-.296.087-.021.024-.319.203-.119.007-.138.159-.123.006-.312.51-.208.088-.184.075-.582zm4.494-4.462l-.006.774-.099.489.303 1.009.077.085.014.851.26.863-.029.652-.274 1.291.095.338-.321-.01-.014.355-.626-.012-.003.082-.127.047.225.044-.011.175-.194-.005-.153-.118-.541-.16.499-.391-.026-.563.235-.413.049-.252-.27-.439-.558-.457-.384-.716.162-.194.022-.147-.251-.306.196-.245-.107-.504.045-.208-.05-.245-.35-.763-.297-.269.612-.318.521-.575.116.062.041.208.299.322.071.013.068-.098.316.018.002-.095.26-.033.203-.142z" class="district"/>
  <path id="33" d="M37.475 40.42l.625.013.014-.356.322.01-.097-.324.184-.676.121-1.26-.19-.71.168.007-.003.109.267.003.002-.071.509.571.226.905.049-.001.017.065-.164-.001.276 1.062-.131.35.351.009-.006.162.322.009.001.085.117.004-.039.132.059.102-.063.089.125.002-.07.203.063.032-.009.205-.19.205.036.152-.487.452.001.124h.556l.065-.115-.062-.167.068-.164.231-.071-.145-.195.471.047.103-.375 1.103.029.247-.059.141-.11.001.162.107.002-.026 1.064-.083.031.081.053-.001.092-.343-.01-.038 1.929-.169.01.248.501.162.017-.001.176.085.002-.015.523-.172-.005-.006.231-.059-.003.007-.231-.166-.006.01-.135-1.834-.039-.198-.2-1.395-.041.008-.35-.387-.006.056-.272-.093-.768.057-.278-.105-.202.051-.006-.11-.004-.047-.246.053.241h.049l.01-.151-.086-.122.044-.065-.147-.232-.431-.379-.153-1.196-.259-.227.194.005.011-.175-.225-.044.127-.047z" class="district"/>
  <path id="32" d="M38.087 23.434l.001-.07.179-.106.257.006.035-.242.065-.018-.041-.93.211.055.196-.236.062-.277.187-.24.473.021.003-.202.351.002.013.065.146-.092.449.058.008.369.1.252.587.642.311.2-.113.34-.183.067.032.102-.135.061-.267.017-.19-.129-.104.009-.007-.426-.287.134-.079-.039-.054.154h-.222l-.035.342-.439-.014-.24.216-.179 1.175.654.025-.002.355-.263-.008-.057-.07-.22.093.118-.009.032.135.081.02.013.18-.06-.006.181.296-.03.33.183.095-.002.177.082.09-.001.085-.152-.002-.002.175.207.032.013.151-1.724-.059-.019 1.41-.261-.008-.085-.178-.262-.011-.046-.115-.447-.067.204-.849-.278-.882.106-.493-.444-.642.003-.27-.116-.167.015-.11.213-.232-.118-.769.383.006-.004.175.524.017.003-.179z" class="district"/>
  <path id="31" d="M54.125 46.0313l-.0313 3.5312-.3437-.0313-.1875.0626-.2813-.0313-.3124-.1875-.5-.0938-.0938-.1562v-.0938l-.0938.0313-.3124.2188-.125.25v.0937l-.1876.1875.0626.125-.0626.0313-.0312.1874-.2813.0313v.1875l-.1874.0625-.0938-.1563h-.0938l-.3437.0313.0313.2188h.25l-.125.6874h.1874v.1563l-.1562.0313v.5H50.25l.0313-.3438-3.1876-.0625v-.7188h.4688l.25.3126v-1.5H48v-.1876l1.3125.0626.125-.625v-.1876l-.25-.2812h-.4688v.1563l-.2812-.0313v.1875l-.0625.0313-.3125-.0626-.1875.0626-.0313-.0626v-.6874l-1.5937-.0313v-.2813l-.25-.25-.4375.0626-.4063-.4063h-.25l-.0937.0625-.5313.0625L44 47.125l-.3125.2188-.2188.4062-.125.0938-.4374-.2188-.0626.0313.0626.1874-.1563-.0624-.0313-.1563-.0937.0313-.0625.0624-.0625-.0624.0313-.0626-.0313-.0624-.25-.0313v-.1563h-.125V47.25l-.0313.125H41.75l-.0625.375h.2188V48l-.1563-.125-.0313.1563h-.1562v.1562l.25.0313v.1562h-.0938v.0938h.0938v.25l.25.0312v.2813l.1563.0624-.2813.0313-.4375.375v.4375H41l-.0625.7188-.3125-.0313-.1875-.6875-1.0938-.0313v.7188l-.5-.0313v.0938h-.1562v.0938l-.4063.0312.1876.4688v.375l1.2187.5937v.125l.1563-.0313.2187.0626v.4687l.4063-.125.4374.1875.1563.3125.375.2188-.0625 1.4374-.1875.3126h-.0625v-.0938h-.0938l-.1562.2813v.1562l-.0625.0625.0313 1.4063.1874.125h.125l.0313-.25H41.5l-.1875-.3126h.1563l.0624-.0624.3438.625.2188.0937-.0313.25.125-.125.375.3438.0625.2187-.2188.2188.2813.3124.3438.0313.2812-.125.2188.125.0624.2188.125.125.0626-.0938.25.0313.0937-.1563.1563-.0313.3437.1563.0313.1563.1562-.1876.0938.1876.4687.1874.1563.2188 1.0312-.0625.2813.0938.0312.3437-.1563.5625.0626.1875.2187.2188v.6562h.625l.125.4688.7188.375.375.4687 1.0937.5625.5.1563.625-.2188.4063-.25.5-.0313-.0313-.0312 1.625.0313.1563.125-.0313-.125 2.5.0624.0313.0626v-.0626h1.5937l-.0938 4.3126 7.7188.0937V67.25l.1875-.0313.2188-.1874h.3124l.0626-.125.2187-.0938.0625-.1563.2813-.0624.0312-.3126h.0625l.1563-.25-.0938-.5.0938-.1874-.125-.2188.0312-.1563-.1875-.1874.0313-.1876.5312-.4374-.125-.25v-.0938l.5938-.3438.25-.0624.0312-.125.4063-.3438-.0938-.2188.125-.2812.0313-.2188.0312-.0937.2813-.1563.0624-.2187-.1874-.5.4374-.5938.0313-.1874.1875-.0313.0625-.1875.1875-.0938-.1563-.3124.0938-.5-.125-.125-.1563-.3438.2188-.25.0313-.0938-.0938-.0312-.125-.2188-.3438.125-.3124-.2812.1562-.3438-.1563-.0624-.125-.625.2188-.1563.0313-.1875.1562-.125.0313-.1875.25-.0625.1562-.1563.4063-.0937.1562-.0938.3438.0313.1562.1563H70.5V52.281l-.5-.2187V52l.2188-.5938-.0626-.1562.2813-.0625.0625-.0625v-1.9375l-.3125-.125-.0625-.3125-.2813.1875.0313.0938-.0625.0624-.5625-.0624-.1875-.1563h-.5313l-.1874-.2188-.0938.125V49l-.2813-.0938-.1874-.25.0624-.1562-.0624-.4063-.125-.0937H67.5l-.125-.125.375-.6563.125-.5312-.4375-.4688h-.5938v.2188l-1.1562-.0313-5.1875-.0937-2.0313-.0625-.0312-.125-4.3125-.0938z" class="district"/>
  <path id="30" d="M40.08 45.233l-.019.525.174.003-.018.675-.344-.006-.026.692h-.066l.145.107.178.45.704.091 1.101-.034-.006.262-.165-.108-.015.14-.158-.002-.004.174.246.003-.003.175-.088-.002-.001.092h.089l-.006.261.264.005-.008.29.175.062-.294.042-.44.369.008.448-.512-.005-.066.701-.3-.005-.202-.714-1.072-.01.006.703-.521-.018-.002.088-.134.013-.003.072h-.383l-.03.057-.076-.059.004-.177-.069-.001.001-.081-.159.082-.056-.087.1-.915-2.651-2.817.47-.085.346-.28.201.008.062.097.145-.013.097-.043.169-.305 1.252-.375.374-.352-.019-.756.387.006-.008.35 1.054.028-.006.176z" class="district"/>
  <path id="29" d="M31.813 52.545l.53.008.003-.124-.1-.045.105-.209.055-1.733.275.394 1.026.04.14.211-.085.155.033.994.099.004.007-.172.546.018.06.088.198.005-.021.793.431.013-.026 1.05-.433-.008-.004.107.087.035-.088-.002-.047 1.306.087.003-.002.085.27.011.257.167.227.035.655.352.182.147.197.297.638.383-.045 1.761-.533-.039-.012.353-1.318-.038-.682-.784.016-.658-.165-.006.003-.096-.305-.047-.296-.336.014-.833-.361-.18.009-.227.108.009.09-.313-.133-.006.006-.123-.047-.002.055-.62-.165-.002.011-.299-.233.042-.007.17-.292-.007-.224.182-.075.616-.472-.034-.11-.091.353-.262.006-.253-.058.104-.216-.017-.004-.44-.245-.085.02-.357-.194-.003.007-.602.092-.129.005-.368.075-.001-.148-.321z" class="district"/>
  <path id="28" d="M27.318 51.59l.307.055.193.435-.022.309-.558.263-.546.112-.497-.072-.207-.238-.149-.059-.51-.067-.287-.285-.009-.098.228-.117.188-.339.308-.29.106-.378.389.123.16-.103.212.021.141.407.263-.008-.067.327.055.118.176.072.126-.188zm-1.599 1.368l.238.156.235.006.238.182-.008-.064.069.035.267.383-.089.574.032.533-.111.049-.038.122.055.218-.224.08-.146-.192-.157-.083-.205-.001.057-.021-.164-.209-.065.092.132.025.033.208.074.021.016.113-.267.104-.031-.22-.122-.171.02.393.153.234-.003.118.089-.224.081.019.155.324-.099.164-.142.071-.095-.034.01-.186-.189.066-.162-.098-.225-.393-.306-.29-.06-.159.041.088.031.002-.02-.176-.106.06-.247-.254.134-.207.4-.167.133.173.106-.003-.191-.275-.122-.051-.004-.275.147-.283.167-.16.079-.014-.083.025.041.046.171-.208.01-.009h.018l-.016.082.122-.268.143-.071zm5.813-4.156l.287.198-.229.107.136.02-.005.206.354-.073-.032 1.179.363.003-.055 1.733-.105.209.1.045-.003.124-.529-.008-.169.066.148.32-.075.001-.004.368-.092.129-.007.603.194.003-.02.357.245.085.004.44.216.017.058-.104-.006.253-.347.275.151.105.424.006.075-.616.224-.182.292.007.007-.17.232-.042-.011.299.164.002-.055.62.047.002-.006.123.133.006-.09.313-.107-.009-.009.227.361.18-.008.843.29.326.306.048-.003.096.165.006-.016.658.682.784 1.497.048-.014.565.075-.014.015.162.936-.003-.081 1.577-2.344-.041-.343-.119-.758-.454-1.575-.074-.07-.054-1.185 1.275-.228.066-.018-.134-.129-.028-.083.19.005-.199-.214.238-.363.066-.01.745-.356.833.146.116-.279.126-.219-.208-.245.099-.051-.155.052-.082.313.049.058-.046-.164-.313-.145.164-.17.008-.686-.166-.064.457-.237-.155-.318-.059-.293-.326.043-.214.2-.282-.004-.288.075-.128-.064-.12-.48-.212-.169-.177-.15.187-.123.023-.15-.314.027-.09-.307-.242-.066-.196.082-.2-.265-.278.022-.159.167-.234-.054-.2-.232-.091.045-.274-.078-.109-.267-.058.123-.247-.179-.09-.013-.123-.23-.13.082-.157-.226-.45.091-.277-.065-.139.364-.179.042-.346-.152-.111-.021-.256.283.013.362.249.126-.084.233-.518.584-.837.309-.241.332-.064.364-.322.312-.696.117-.538.75-.38.213-.479-.039.108.105-.037-.003.059.086.012.099-.067.1-.268-.142.239-.1.032-.062-.129-.034.029.076-.31-.028-.306.118-.457.509-.715.091-.935.069-.037-.068.434.138-.262-.037-.136.12.016.156-.241.039.05-.049-.292.258-.495.415-.576z" class="district"/>
  <path id="27" d="M32.218 47.335l.127.02.108.263.216.238-.037.053.502.553.46.365.471.177.343.31.31.566.058.621.057.064v-.478l.177.024-.177-.059-.141-.463.1-.089.202.4-.141-.396.139.092-.116-.203.036-.172.355.534.064-.014-.277-.491.107.075.056-.139.231.269.064-.066-.274-.327.079-.149.085.088-.018-.196.033.208.035.027.013-.137.329.249-.016.079.221.232.084-.011.377.362-.056.089.05.108.215-.007-.01-.19-1.179-1.079.124-.195.275.28.596.226.355.335-.003.075.007-.071.454.389-.085-.088.026-.137-.201-.072-.483-.49-.208-.064-.061-.121-.093-.033-.048.069-.1-.054.093.009.073-.093-.301-.042-.173-.111-.163-.396-.191-.204-.311-.115-.216.044-.359-.177-.005-.258.238-.036.131-.099.13-.509.397-.023 2.651 2.817-.065 1.009-.209.075.039-.188-.175-.004.004-.122.088.003-.013-.046-.197.023.004-.116.125.003-.022-.184-.081-.002-.005-.176-.313.034.073.068-.104.032.03.396-.602.03-.105-.02.002-.06-.158-.002-.004.109-.461-.021-.006.213.175.145-.059 2.218-.439-.01-.003.105-.09-.002-.019-.106-.035.045-.72-.068.021-.793-.198-.005-.06-.088-.546-.018-.007.172-.099-.004-.033-.994.085-.155-.14-.211-1.026-.04-.262-.395-.376-.002.032-1.179-.354.073.005-.206-.137-.019.228-.096-.285-.21.175-.758-.609-1.262.23-.046.214.086.811.747.041-.032z" class="district"/>
  <path id="26" d="M22.769 44.583l.09-2.207 4.511.151-.146-.188.02-.444.238-.673.08-.844.121-.43.143-.25.003-.499.186-.191.169-.321.191.005.116-.118.055.093.032-.035-.311-.552-.297-.005-.119.084-.276-.013-.045.131-.202-.01.006-.133-.172-.009-.008.177-.173-.006-.009.353-.171-.007.004-.176-.173-.007-.004.21-.6-.024.003-.149.211-.38.157-.532-.434-.021.039-.715.174.007-.035.543.184.007.014-.178.163.006.012-.225-.086-.003.003-.141.011-.178.093-.054-.142-.033-.032-.097.367-.368.28-.158.047-.143-.126-.224.345-.384-.042-.194.168.011-.156-.164-.034-.272.28-.069.286-.203.213.005.003-.089.368.014.005-.105.104.003-.003.106.07.001.005-.136.082-.038.167.158-.03.095.101-.01.085.273-.087.304-.375.053-.005.094-.187.11.003.129-.073-.011.003-.135-.087-.001-.002.076-.013-.077-.161-.003-.017.063-.122.009-.514.331-.132.224-.018.225-.74.455.018.096.169-.046.021.067h.081l.009-.083.099.027.557-.194.245-.391.494.131.287-.271.322-.022.043.073.21-.287.441.089.601-.907.269-.25.043-.119.148-.06.255-.398-.043-.062.096.021.405-.291.151.059.077.105-.069.4.187.094-.246.23-.019.108.146.109.191-.043.309.175-.221.128-.147.246.081.672-.266.735.02.202.456.102.332-.079.085.054.127.377-.011-.135.06-.052.355.049.269.393-.29.308-.022.146-.258.388-.215.166-.02.301-.154.333-.304.271.005.279-.068.088.099.329-.184.296.064.515-.095.11.103.411-.147.234-.149.073-.209-.178-.131-.016.361.28-.133.362-.173.146-.123.757.185.505.203.214.048.169-.445.686-.162.655-.539.973-.04.027-.055-.004.05-.058-.124-.352-.19-.198.021-.347-.111.212-.217.194.118.198.129-.005.28.314-.037.21.14.412.191.421.532.822.034.218-.05.136-.594.879-.335.305-.249.112-.171-.049-.296-.408.058-.142.216-.192-.02-.191.094-.241-.226-.229-.199-.093-.136-.254-.064.018-.123-.429-.189.041.088.151.034-.079.061.07.029.322.134.041.233.4.025.265-.096.15-.492.052-.393-.358-.28-.007-.57-.274-.154.01-.134-.119.016-.095-.055.093-.284-.146-.186.054-.147.27.094-.051-.016.052-.125.051-.229-.018-.1-.085-.033-.228.227-.526.059-.05.038-.019-.078.062.055.081.019.623.097-.416.146-.281-.072-.203-.221-.251.03-.134.465-.592.184-.095h.228l.078.055-.014.139.057-.193.071-.054.002.096.196-.302-.19.146.093-.543.086-.056.077-.114-.099.111-.052-.066-.136.331-.12-.223-.177-.017-.095-.167.039.041.027-.117-.111.04.124-.056.281-.334.045-.012.075.038-.015.096.097-.332.586-.288.024-.265.363-.216-.037-.466-.094-.182.071-.03.001-.067-.041.06-.071-.176.042-.279-.056-.059.071-.104-.063-.059.018-.105.106-.073-.001-.224-.045-.186-.095-.013.064.092-.185.33.026.159-.114.207-.01.496-.142.274.408-.155-1.713.764-.318.307-.126.004-.159-.5-.119-.045.098.1.078.347-.012.396.154-.181-.054.121-.418.251-.188.275-.479.258-.075.007-.022-.021.042.016-.09-.356-.181-.006.195.247-.061.407.109.059-.023-.122.038.14-.152.543-.36.532-.125.422-.238.435-.044.506-.541.555.21-.058.034.046.17-.177.15.044.122-.101.048.106-.108.375-.151.088-.118.357.184-.2-.04-.018.413-.031.162-.257-.093.378.09.435.185.194.1.017.187-.286.116-.025-.195.284.018.26-.088.244.063.349.102.055-.005.238-.472.362-.132.232-.194.082-.086-.203.009-.478-.074-.203-.039.355-.187.343-.097-.166.09.233-.057.106.167-.075.043.434.07.104-.009.256.116-.325.167-.065v.06l-.242.398-.106.64-.199.286-.352.196-.186-.095-.067-.258.122.006-.196-.332.029-.209.24-.198-.406.188-.278-.136-.454-.986-.098-.391.069-.319-.141-.162-.336-.191-.326-.703.555-1.48.042-.013.107.095.055.03.021-.006-.108-.076.048-.148.512-.525.284-.53-.008.069.122-.089-.103.021-.043-.264.072-.186-.001.07.043-.048-.028-.115.194-.158.025-.065-.252.204.02.085-.19.119-.052-.556.12-.377.004-.314.045-.23.045-.105.086-.125-.11.212.414.051.301-.065.118-.127-.057-.024.054-.065-.259.1-.137-.08-.145.036-.506-.281-.003-.062.051-.098-.028.16.168-.231-.001-.174.163-.098-.052-.127.167-.251.065-.26-.251.413-.127.062.115-.022-.45.132z" class="district"/>
  <path id="25" d="M35.089 54.035l.026-1.05.289.055.035-.045.019.106.09.002.003-.105.439.01.059-2.218-.175-.145.006-.213.461.021.004-.109.158.002-.002.06.105.02.602-.03-.03-.396.104-.032-.073-.068.313-.034.005.176.081.002.022.184-.125-.003-.004.116.197-.023.013.046-.088-.003-.004.122.175.004-.039.188.389-.164-.001.081.069.001-.004.177.127.106.028.24.11.164-.015.381 1.23.577.002.13.166-.026.222.071-.006.47.384-.148.439.209.181.302.356.214-.063 1.453-.172.306-.073-.011v-.097l-.101.014-.163.266.016.169-.067.07.048 1.416.075-.001.137.185.017.512.144.208.026.298-.504.123-.22-.021-.27-.082-.368-.243.008-.295-.689-.023-.004-.111-.155.097-.543-.012.013-.706.259-.077.039-.113-.037-.157-.251-.007.008-.352-.7-.019-.015.708-.77-.008-.58-.38-.197-.297-.182-.147-1.136-.553-.273-.012.002-.085-.087-.015.047-1.294.088.002-.087-.035.004-.107z" class="district"/>
  <path id="24" d="M14.25 4.2813l-.375.0937-.125.0625.5-.0625v-.0938zm-.5313.1562l-.25.1563-.0312.0937.2813-.25zm-.25.1563l-.5937.0625.0625.0937-.0313.0625v.0625l.0625-.125.0625.0313V4.75l-.0625-.0625h.1875l-.2187.4375-.0313-.1875v.2188l-.125.375.0938.0625.125-.5313.2188-.3438.25-.125zm-.6875.0937l-.1562.0625-.4375.4063.4688-.375.125-.0938zm-.625.5l-.5.5-.375.5-.7812.7188-.7813.4375-.3125.125-.25-.0938-.4375.0625-.3125-.0625-.3125-.2188-1 .3438-.625-.0313-.1875-.1875-.1875-.0625-.8125.1875-.2187-.0625-.4688.0313-.4687-.25v.0938l-.0938.0312-.375-.125-.125-.0625V7L3.5 7.0313l-.4063-.25-.3125-.0625.0938.0625-.0625.0312-.1875-.125.0313-.0625-.25-.3438.0625-.0312.125-.125-.5313.1875L1 6.375l-.4688-.1875-.4375-.5313L0 5.5938v29.25l.125-3.0624 16.9063.625.1562-.1563v-.156l.0625-.125.2188-.125.2812-.031.1563-.219.1874-.031v-.125L18 31.375l.1875.0313.4063-.1876v-.25h.0937l.0938-.0937V30.5l.0937-.0938-.0625-.1562.1563-.0313.25.0938.2187.2188.4063.0312-.0626-.125.1563-.1875-.1563-.3125.125-.125-.0312-.1563-.0313.0313-.125-.0313-.1874.1563-.25.0313.4374-.25.0626-.25.1874-.125.125-.25-.0624-.3126.125.0313.0624-.2188-.0624-.0937.1562-.1875-.0625-.0938h-.0313l-.0312.0313-.0313-.0313.0313-.0312.0313.0313v-.4063l.3124-.3125.125-.9375.125-.1875v.125l.1876.125.0312-.1563-.0938-.2812.0626-.1563-.0313-.1562.25.0938.1563-.0313.1874.4375h.0626l.0937-.125-.0625-.3125.1563-.3438-.0313-.4374h-.0313l-.0624.0937V25l-.1563-.125-.1875-.2813-.125-1.125.0313-.25.0937-.1562-.0625-.125v-.125l-.125-.1563.0313-.1874h.1562l.0625-.1876.125-.0312-.0625-.1563.0313-.125.0624-.0312v-.0313l.0313-.125.1563.0313.125.1875v.4375l.125.2188.0624.3124-.1874.4063-.0626.5313-.0312.0312-.0625.0313v.125l.375.0624.375-.2187.25-.2188.2813-1.0312h-.0626l-.0312.125-.25-.625.1563-.3438.0312-.5.25-.375.1563-.0312-.125-.0625.25-.125-.2813.0625.0625-.5625.2188.25.0624.2188-.0937.1874.0938.2188-.0313.5313v.0624l.2188.1876.0624.1874.0313.1563-.0625.375.25.2813.0313.1562-.0626.2188-.0312.6562-.25.5313.0313.1562-.1876.4688.0313.1562-.375.5938.0938.5937-.2188.3125.0313.4688-.1563.2187.0313.0625-.2188-.0313.1563-.0312h-.1876l-.0624.0938-.125.6562-.1563.1875.0938.125.5937.4063.3438-.1563-.2188-.4688.1875.125.0313.2813.0937.0625.4375-.0625.375-.1875.0625-.0938-.0313-.0937-.375-.4375.0938-.5L23.875 27l.4063-.8438.2187-.2187.1875-.0625.1563-.25-.0938-.3438.1875-.4062.125-.0938-.0313-.25.1563-.125-.125-.25.0313-.3437.1874-.25-.125-.4063.1563-.375-.0625-.0937.2188-.25.1562.3125-.3125.0313h.4375l.25-.0626.2813-.2187.3437-.4375.3438-.125.2187-.2188.125-.4374V21.25l-.0313-.0313-.0312-.5624-.1563-.25-.0624-.3438-.0313-.125.0313-.0625.0624.0625v.0313l.7813.0624.5625.1876.4688-.0626.1874-.625v-.25l.0313-.0624-.0625-.0313-.0313.0938-.0937-.25.375.0312-.0313.4063.0626.125.25-.375.125-.0626-.25-.1562h-.5626l-.3437-.25v-.2188l-.25-.3124.0313-.5.125-.2188-.1563-.1875L28.25 17l-.125.0313-.4063.625-.25.0937-.25-.0313.0313-.0937-.1563-.0313.0313.1563-.2813.0313.0938-.1563-.1563-.0313.5-.25.1876.0938.0624-.5-.125-.5625.2188-.5625.0938-.0313-.0313-.0312.0313-.125-.125-.1563h-.1563l-.0313.1875.0626.0625-.0626.0313-.0312.2813L27.25 16l-.0625-.2188-.0938-.0312.1563-.1875.0938.125.0624-.2188h.0313l.1875-.0625v-.2187l-.125-.2188-.5938-.0625-.5312-.7187-.0938-.9063-.1874-.375.0312-.1562-.125-.0313.125-.3125-.1563.1875.0626-.2812.125.0313-.1876-.3125-.125-.0625-.0624.0937-.3126.125-.0624.125-.0938-.25.0313-.0938.0624.0938-.0624-.1563-.4063-.3125-.1563-.375-.2812-.0312-.1875-.0938.0313-.0312.1562.125.2813-.0313.0312-.3125-.0313.0938-.0312-.25-.0938-.0625-.2812-.375-.125-.5-.4063-.375-.0312-.125.0938-.1563L24 9.0625l.0938-.2188.4062-.375.0938-.0625.125-.0937.0312.0625.0313-.0625.0312.0313.0313-.0625h.125l.5624-.3125v-.0313l.0313-.0625-.3438-.5-.0624-.1875.0624-.3438.2188-.2812-.3438.0938-.625-.0313-1.5312.3438-.2188-.0938-.4374.5313-1.0313.7812-.0938.1563V8.5l.0313-.0313.125.25v.375l-.4375.6563.2188-.0625.3437.125.5313.4688L22 10.5l.1563.1563.0937.2187.5938.2813.0937.2187-.0938.875-.1874.5313.0312.2187-.2188.375-.4062.3125-.5625.0938-.2813-.0313-.25.2813.0313-.0938-.0625.0313V14l-.125-.0625.0938-.1875.25-.2188-.125.0313.0937-.0938.0938.0313.375-.1875.1562-.25.0625-.3438.125-.0625-.1563-.1875-.1874-.8437-.0938-.0313-.125-.2812.0625-.1563-.1875.0313-.9688-.4688h-.1875l-.0624-.0625.1562.0625-.25-.1562-.2188-.25-.0312-.1563.0938-.5312.3437-.8125-.75-.0938-.2188-.0937-.9687.0625-.9063.25-.4374.25-.8126.2188.0313.0312.5625-.1563.125.125-.0625.0938v.0313l.4375.4375.0625.3437-.2188.375.3126.6875.0624.7188.0313-.2188.0313.125-.0626.1875-.0937.0625-.1563-.0938-.0624.125-.0626-.25h-.125l-.1874-.2812.0312-.1875-.25-.25-.3125-.5938-.2813-.2187.0938-.1875h.1563l.0312-.0313-.0938-.0312v-.125h-.0624l-.0625-.1875-.0313-.6875-.0313.125H15.75l-.125-.125.3125-.1563H16l-.25-.8437-.4375-.8125-.75-.4688L14 6.3125l-.1875-.3438-.4375-.2187-.1875.1563H13L13.0313 6l-.125-.0938h.0625l-.3125-.125-.0625-.125-.0938.2188-.3125.0313-.4375.1562h-.3438l.75-.875zM16 9.0938l-.0938.1562.125.0313v-.125L16 9.0938zm.6875.4062l-.0313-.0938V9.5h.0313zm10.5938 11.7188l.125-.3126-.0313-.0624-.0938.375zM2.5937 6.125l.5-.125-.4687.0938-.0313.0312zm.5-.125h.5313l-.375-.0313L3.0937 6zm.5313 0l.8438.125-.1563-.0938L3.625 6zm-1.3125.3125v.125l-.1563-.0625.1563-.0625zm25 2.3125l-.7813.25-.1874.1563.2187.1562.125.3125-.0313.0938.3438.625v.1875l.0625.375.1563-.0313.1874.2813-.0624.25-.125-.3125h-.125l-.125.125.0624.4687.125.2813.2188.2812-.2813.375-.0624.2188H27l-.1563-.5625V12l-.3124-.3438.0937-.2812-.0625-.0313-.125-.7187.0625-.4375-.2188-.3125-.0624-.3125.0312-.0938h-.125l-.3125.2188-.2813.4063.0313.0312.0938-.1563.1874.2813-.0624.7188-.0938.25.125.0625.0938.2187-.0313.2188.0938.0937v.0938l.2812.4062.125.0313.2188.0312v.0938l.125.1562.4062.25.1875.3125h.125l.5313-.375-.0313-.1563.125-.5-.0313-.0937-.25-.1875-.1562-.3438-.0938-1.1562.0313-.2813-.2188-.7187.0626-.4375.125-.2188-.2188-.0937zm-2.4688 2.125v.0625l.0626-.0313-.0626-.0312zM0 57.1563v4.0624l.5938.0626.5312.1562.4375.0313.5938-.1876h.25v.0938h.1562v-.0938h.125l-.125-.1874.0938.0624.1562-.0624-.125.125.125.1562 1.5 1.3125.4063.5938.3125.7187.2812.3438.1875.5624.0938.5.875 1.7813.75 1.6875h2.9375l.3125-7.125-1.4375-.0938.125-1.375v-2.875l-3.2813-.0937H3.6562L0 57.1562z" class="district"/>
  <path id="23" d="M32.361 27.9l.146.144.337.028-.104-.18-.152.105.052-.079.123-.04.165.327.079.36-.102.344.036.151-.105.186-.026.48.066.225.225.203-.107.155-.475.225-.057.162-.092-.024.056.053.13-.053.088.057.323.528.413.271-.159.312-.011.185.093.13-.113-.034-.22-.246-.387.245-.062-.038.03-.036-.01-.071-.017.08-.149-.033-.178.141-.144-.258-.207.021-.09-.154.008.115.066.142.207-.001.13.244.438.088.033.065.377-.122.085.358-.067.442.039.2-.591.02-.02-.061-.078.017.007.073.445.135.176.149.51.191.131.135-.534.163-.258.226-.337.05-.286-.04-.39-.903-.337-.223-.077-.295-.087-.023-.162.108-.184.352-.194.168-.225-.207-.086-.248.107-.761-.112-.411.001-.923.16-.015.121-.158.088.009-.055-.054-.248.158-.15-.056-.285-.849-.062-.017.216-.091.449-.447.088.027.02.519.227-.481.087.008.06.102.115-.048-.115.007-.046-.192-.078-.013-.095-.233-.026-.574.1-.355-.031-.522.384-.47.156.018.123.109.065.43.41.308-.051.152-.095-.069-.097.171-.043-.063-.147.063-.218.286.185.044.063-.233.167.095.147-.137.188-.041-.012-.167.105-.316zm-5.918 3.366l-.168.084-.021-.094-.899-.036.048-1.764-.447-.001-.016-.078.145-.417.039-.746-.109-.5.006-.594.132-.13.085-.238-.036-.09.149-.111-.027-.202.235-.05.145-.179.059-.297.171-.089.032-.335.221-.551.262-.08.15-.24.282-.053.148-.15.229-.962.334-.257.286-.371.326-.09.264-.527.246-.219.298-.226.273-.064.299-.689.242-.305.558.048.315-.065-.037.062.081.043-.099.076-.162.63.053.846.194.311.007.113-.025-.124-.085.122.021.146.035-.127.127-.009.048-.167.347-.16.008-.212-.084.117-.078-.301.104-.229-.077-.531-.113-.419-.118-.041.08-.133.055-.446-.045-.491-.347-1.183-.111-.238-.106-.013.158-.09.007.175.067.057.023-.155.096.052-.081-.155-.175-.013.137-.028-.002-.095-.299-.308-.022-.107-.271-.087-.042-.092-.376-.104.133-.205-.125-.254-.098.142.156.056.055.042-.231-.088.137-.343.137-.075.26.011.162.612.289.319 1.354.169.307.317.41.027-.06.542.217.66.203.329-.057.751.269.812-.049.768.186.372.544.396.056.148-.107.444-.332.359.008.137-.04-.052-.001.026-.035.052-.051.026.078-.11-.16-.102-.32.177-.034-.156-.031.269.146-.135.071.102-.001-.116.193.352.546.333-.009.25.148.343.201.144.047.449-.117.195.046.135-.116.162-.416.122-.171-.027-.014-.146-.177.008-.046.08.182.008.012.02-.353.058-.279-.018-.166-.149-.608-.067-.48.058-.059-.066.367.013-.219-.205-.058-.438-.186-.192-.057.015.053-.254-.024-.03-.061.311.195.193-.211.456.05.136.076-.041.196.341.019.44-.216.378-.145.082-.14.337-.181.197-.143.025-.266.349-.009.271-.118.065-.07.271-.078.022-.121-.198-.324-.107-.016-.387-.288-.393-.195.02-.249.184-.016-.338.141-.012.007-.111-.098-.119-.178-.034-.237-.18-.016-.112-.121-.096-.201-.484-.05-.391.105-.224-.064.027-.105.414-.297.646.154.3.022.199.064-.104.044.161.03-.088.133.451.055-.185.073.021.106.445.011-.159.139-.216-.018.476-.12.062.179.1.211-.03.011.087.037-.116-.044.021-.063-.13-.101-.003.059-.159.218.071.154-.03.079.136.112.033-.029.124-.16.043-.122.166.157-.021-.017-.139.061.154-.061.116.169 1.407-.069.455-.188.149-.31-.074.307.138.057-.07.087.051.39.277.019.183.115.181.182-.078.078.13-.165 1.237-.117.385.203.309-.01.096-.37.938-.195.292-.182.033-.346-.554-.515-.215-.399-.478-.087-.188.009-.178-.146-.15.032-.608-.252-.119-.306-.311.048-.285.124-.181.005-.127.038.001.054-.059-.081.052-.138-.167-.065-.159-.096-.088-.053-.099-.006-.046.052.1.061-.048-.16-.105-.006-.139-.015-.017.015.097-.07.061-.11.03-.056-.079-.026.271-.207.121-.083.298z" class="district"/>
  <path id="22" d="M25.731 56.98l.021.256.152.14-.072.359-.334.137.065.139-.091.277.145.266-.352.173-.674.013-.871.16-.003.114.392.007-.01.353-.697-.022.008-.263-.174-.005.003-.087-.436.072-.004.087-.09-.005-.007.174-.184-.004.004.176.176-.044-.003.154.153.003-.051.339.18-.044.054.142.001.195-.061.025.168.726.198.229-.078.271.116.303-1.748 1.117-.381-.65-.029-.182-.351-.092.019-.619-.694-.026-.004.179-.391-.012-.003.176-.133-.004-.003.062.17.031v.217l-.174-.056-.02.318-.145.095.055.078-.089.014-.016.335-.316.244.562.791-.008.086.076.003-.006.246-.524-.016.006-.176-.332-.011-.004.174-.462-.015.003-.095.091-.014.005-.149.088.003.004-.091-.092-.008.007-.339-.519-.021-.038 1.051-.343-.005.136-.33.208-1.288-.115-.005.002-.128-.09-.001-.444.457-.173-.088-.436-.009.193-.659-.178-.088.006-.166-.09-.031.177-.004.019-.492.343.01.139-.353-.295-.008.004-.178-.101.083-.381-.141-.637-.417.149-.392.261-.285.036-.207-.129-.025-.141-.109.156.071-.094-.157.004-.025.038.014.045-.026-.206-.24.075-.021.087.04.002-.021-.076-.046-.161.016-.081-.219.076.067.173.043.012-.017-.305-.249-.229-.037-.065-.32.108-.312.144.024.34-.269.286-.059.068-.149.41-.242.383-.352.184-.014.187.075-.108-.061-.01-.12.411-.466-.032-.303-.151-.314.014-.193.347-.58.052.018.168-.361-.036.651.084.995-.045.192-.3.264.098.354-.247.682.095-.027.234.121.314.59.158.525-.024.426.061.157.123-.093.08.039-.044-.584.038.039.046-.13.167.065.02.276.066.034.014.195.061-.022-.009-.488-.148-.605.113-.176-.189.154-.092-.234.118-.286.026-.322.225-.479-.042-.043.065-.036.033-.522.178-.11.074.138-.056-.204.06-.121-.221.188-.069-.275-.293-.457-.096-.611.201.038.019-.228.158-.09.091.131-.018.126.036.004.05-.142.217-.087.145-.276.111-.109-.001.128.171-.238.204-.061.085.078-.053.166.103-.177.121-.059.102.085-.068-.115-.198.053.082-.238.208-.016.111-.116.097.172.057-.093.142-.032.053.531.088.094-.234.169.027.442-.074.117-.254-.263-.101.141.108-.073.069.215.068-.044.096.171.191.013-.253.053-.483.516.356-.298.088.021.052-.138.143-.044.113.499.335.474-.023.353.055.106-.083.035.069.058-.042.217.117-.024.039.146.042-.063-.055-.293.134.03-.123-.087.012-.257-.069.114.016-.122.071-.019-.062-.078.007-.211.087-.021-.121-.019.041-.037-.158-.133.046-.367.039-.105.062.015-.05-.133-.074.083.021-.221.053-.016.022-.069-.087.074.092-.157-.047-.178.102-1.199.201-.56.102-.066.111-.03.067.37-.042.095.054-.015.052.104.002.273.088.069-.055-.17.137-.073.19.294.039.223-.122.22.134-.146.122.017.061.43.133.114-.069.194.069.492.297.104.036.096-.058.076.046.064.041-.02-.077-.045.471.09.054.079-.041.001-.029.062.106-.048.149.128.021.234.03-.073.283.178.125.103.013.122.036-.073.19.062.233.183-.023.128.237-.247.632-.017z" class="district"/>
  <path id="21" d="M40.519 16.503l-.177-.004-.005.175-.177-.007-.017.676.176.036-.006.23.179.019-.013.609.346.008.004-.195.166.008.108.247-.057.145 1.741.046-.157.525.299-.076.162.006-.002.085.088.004-.052.173.078.002-.004.168-.109.005-.011.396-.171-.006-.007.133-.176-.004-.028-.554-.254-.095-.6.662.063.062.234-.028-.007.354.119.051-.051.058-.01.593h.092l-.094.109h.124l-.003.176h.064l-.044.708-.152-.004-.027 1.229-.068-.006-.084-.19-.319-.341-.311-.2-.576-.627-.111-.267-.008-.369-.449-.058-.146.092-.013-.065-.351-.002-.003.202-.457-.033-.2.247-.061.275-.194.237-.217-.049.041.93-.065.018-.035.242-.257-.006-.179.106-.001.07-.487-.013-.003.179-.524-.017.004-.175-.383-.006.003-.085-.024-.058-.004-.027.007-.013.122-.097-.124.108.059.058.2-.231-.037-.033-.079.083.041-.06.041-.026.045.039.213-.182.913-1.219.331-.173.243-.327.066-.517.2-.449-.023-.273-.111-.223.463-1.619.367-.569-.015-.571.092-.405.053-.123.489-.133.002.057.194-.029-.001.095.105.002z" class="district"/>
  <path id="20" d="M21.1563 63.5938v.5937h-.3438l-.0313.1563-.125.1562-.2187.0313v.3124l-.1563.2813-.25.0625-.0937.1563H19.75l-.25.1874h-.8438v.9063l-.3124 1.0938v.2187l-.1563.375-.125.0938-.0313.2187-.2187.4375H26.25l-.25-.3438-.3125-.2187-.2188-.5625.0938-.0625v-.25l-.0625-.0313v-.0937h-.0938v-.1563h.1876v-.5624l.1874.0312.0626-.5313h.4374l.1563-.3437h-.0625l.0313-.6875-.7188-.0313v-.6874l-1.375-.0313v-.5313l-.6563-.0937-.2812.0938-.125.125H23v-.0626l-.3438.0313-.0312-.0625-.4375.0625-.125-.0625-.0938-.125-.8124-.0938zm-6.9688 4.9374l-.125.25-.2188.0938h.1875l.2188-.25-.0625-.0938zm15.3438.125v.1563l-.0626.0625h.625v-.2188h-.5624zm-16.9688.0313l-.3438.1563v.0312h.9375l-.2812-.1875h-.3125z" class="district"/>
  <path id="19" d="M2.8438 61.0938l-.1875.0624.0312.0626.1563-.125zM0 61.2188v7.6562h7.2188L6.5 67.1875l-.9063-1.7813-.0937-.5-.1875-.5624L5.0312 64l-.2812-.7188-.4063-.5937-1.5312-1.2813-.0938-.125h-.1562v.0938h-.1563l.0313-.0938h-.2813l-.5937.1876-.4375-.0313-.5-.1563L0 61.219z" class="district"/>
  <path id="14" d="M69.4375 58.6875l-.1563.1875.1563.3438.125.125-.0938.5.1563.3124-.1875.0938-.0625.1875-.1875.0313-.0313.1874-.4374.5938.1874.5-.0624.2188-.2813.1562-.0313.0938-.0312.2187-.125.2813.0938.2187-.4063.3438-.0313.125-.25.0624-.5937.3438v.0938l.125.25-.5313.4374-.0312.1876.1875.1874-.0313.1563.125.2188-.0937.1874.0938.5-.1563.25h-.0625l-.0313.3126-.2812.0624-.0625.1563-.2188.0938-.0624.125h-.3126l-.2187.1874-.1875.0313-.1875.375-.125.0313-.2188.3437v.375l-.2187.1875-.0625.3125H70.5v-9.75h-.0625l-.25.2813-.1875.0624-.1563-.0937v-.1563l-.0937-.125-.25-.1874-.0625-.2188z" class="district"/>
  <path id="13" d="M70.5 40.375l-.3438.0313-.5312.4687-.0313.3125-.1874.1563.125.3124-.125.25-.1876-.0312-.4374.1875-.1563.1875-.0625.1875h-.5l-.0625.25h.0938l.0937.125-.0313.4063L68 43.406l-.0938-.0312-.0937.1563.2188.219.0312.25-.125.157-.375.063v.219l.0938.407-.1876-.094-.3124.063-.1876-.0622-.25.2816.1563.2815-.0625.406.4375.281.625.6563-.125.5625-.375.6563.125.125h.1563l.125.094.0624.406-.0624.1563.1874.25.2813.092v-.2188l.0938-.125.1874.219h.5313l.1875.1564.5625.062.0625-.0623-.0313-.094.2813-.1874.0625.3126.3125.094v-8.782zm0 10.75l-.0625.0625-.2813.0625.0626.1563L70 52v.0625l.5.2188V51.125zm-.5625 4.9063l-.9688.4062-.0312.1875-.1563.125-.0312.1875-.2188.1563.125.625.1563.0624-.1563.3438.3126.2813.3437-.125.125.2187.0938.0313-.0938.1562.0625.2188.25.1874.0938.125v.125l.125.125.1874-.0312.2813-.3125H70.5v-2.9063h-.0625l-.1563-.1562-.3437-.0313z" class="district"/>
  <path id="11" d="M38.915 33.989l.098.182-.006.252.209.029.319 1.709.277.317.062.166.051.374-.139.107.081.253.148.305.147.014.005.089.083.049.015-.134.175.01-.023.679.538.56.595.17.221.166.375-.088.07.206-.045.084.232.002.043-.135.118.005.344-.49.08-.279-.155-.488.19.071.007-.245h.176v-.443l.178.076.007-.126.492-.075.195.12.01-.129.508.106.006.222-.178.16.173.007-.004.151.325.018.285.229-.049.088-.564-.026-.001.178.261.009-.002.346.257.012.083.176.172.01.001.131-.085-.005-.002.392-.091-.003.001-.088-.78-.041-.008.104-.169-.005-.004.159.288.013.063.207.172.044.057-.175.105-.053.53.137.253.001.086-.094.082.009-.061.186.061.059-.089-.021-.06.082.866.151.222.433.075.446.446.513-.193.158.001-.066-.553-.017.024.133-.111.217-.599-.016.017-.631-.127-.018-.214-.203-.008.141-.247.001-.805-.022-.242-.042-.095-.094-.02.472-.696-.011-.023.699-.352-.006-.005.175-.338-.009.006-.266-.08-.003v-.083l.082.002.026-1.064-.107-.002-.001-.162-.141.11-.247.059-1.103-.029-.103.375-.471-.047.145.195-.231.071-.068.164.062.167-.065.115h-.556l-.001-.124.483-.447-.032-.157.19-.205.009-.205-.063-.032.07-.203-.125-.002.063-.089-.059-.102.039-.132-.117-.004-.001-.085-.322-.009.006-.162-.351-.009.131-.35-.276-1.062.164.001-.066-.064-.18-.797-.555-.679-.002.071-.267-.003.003-.109-.185-.006-.087-.443.02-.583-.334-.835-.05-.377.102-.371.004-.477.134.133.004-.202z" class="district"/>
  <path id="10" d="M26.3438 0v.0313l-.2188.25-.4688.6562-.625 1.7188.2188.4687.6563.3125.2187.4375.8125.375.3125.4063.25.2187.1875.375.1875.875-.5313.0938.5938-.0625.125-.0938v-.125h.0938V6l.4374-.2188.5-.0312.5938.0938.4063.375.25.9062.0937.875.1875.0625.1563.125.0937.25-.4375.0313V8.5l-.3125.9375-.1875.4063.125-.0313-.0313.375v-.2813l-.0937.2813.0313-.2188-.0626-.0937v.3438l.2188.1875.0313.1875.2187.1875.1563.2812-.0313.4063-.0938.3437-.3437.375.3125.2188.0938.3125.1874.1562.1876.3438.75.2187.5.5.0312.3438-.3125.5625-.0313.1875.125.0937.0313.1875.8125-.25.1875-.2188.0313-.125.1562-.1562.2813-.1563.4374-.125v-.0625l-.125-.0625L33.75 14l.375-.0313v.25l-.1875-.125.0625.125.4688.1875.0937.25-.1563-.25h-.0312l.0625.1563.25.375L35 15.25l.25.4688.125.4062v.3125l-.0313.1875-.1562.1875v.4375l.4688.5625L35.625 18l.4063.0938.1874-.0313.2813-.4063h.3438l.0624-.0937-.0312-.1875.125.0313.125.0624v.1563l-.3125.4688.0625-.3126-.125.3438.1875.2813.3438.0937.125-.125v-.8125l.375-.4688.25-.1562.3124-1.0313-.0937-1.2187-.3125-.3125-.2813-.4688v-1.3125l-.0937-.2187v-.1563l-.2813.0625-.5624-.1875-.125-.1875-.3126-.1562-.4062-.0313-.25-.25-.2813-.125-.7187-1.25-.1563-.0625-.3124-.3437-.25-.4063v-.1875l-.25.0938-.4688-.125-.3438.0313h-.0312l.1563.5.2812.5625-.25.5625.125.125-.0938.1875.2188.8125-.3125.8125-.25.3437-.3125-.0313-.0625.0625-.125-.0312-.0313-.1875.1563-.3125.0313-.75-.0626-.375-.3437-.1875.1563-.4375-.0626-.5625.0626-.125L31.8124 10l-.5313-1.25.063-.1563.344-.375L31.75 8l-.0625-.2813-.1875-.4375v-.6875L31.0937 6l-.0312-.4063-.1875-.875-.1563-.2812-.3124-.3125-.0938-.1563v-.3125l-.125-.1562-.125.0313.0625-.0938-.1875-.0625-.3438-.4688-.0937.125h-.0938l-.0937-.0937-.25-.0625-.0938-.2188-.3437.1875-.4375-.0625L28 2.9688l-.4375-.0937-.5938.344-.375.031-.2812-.343.0938.032-.0626-.094.0938.063v-.094l-.125-.031-.125-.25v-.157l.0938-.062-.125.0315.0624-.094.125.0315-.0312.0312.0313.031L27 2.063l.3438-.0313.2812.0628.2188-.125.1874.094.3126-.094.3437-.1873.125-.219.0625-.75-.25-.2814-.0625-.281.125-.25h-2.3438zm4.0937 8v.1563l.0313.0625L30.4374 8zm-.8438-8v.0625l-.125.0625-.25-.0313.1563.125L29.3437.5l.25.2188.2188-.0938L29.75.5l.0625-.2813.125-.2187h-.3438zm-.25.5l-.0624-.2188-.0938-.0625v.0625l.0938.1875.0624.0313zm-.125-.4063L29.125.0625l.0313.0938.0624-.0625zM31.9377 0l.0312.0313v.0624l-.063.125.062-.0625.906-.0937L32.969 0h-1.0313zm-.0314.2188l-.0312.2187.063.125-.031-.3438zM38 0l-.2188.4375-.125.125.1563-.0313-.25.25-.0313.25.0626.0313-.0313.4688L37.3437 2l.3438.3125L38 2.25l.0938.0625.0312.125-.0313.0625-.1874.1875.1874.25.125-.0313.1876-.4375.1874-.0312V2.5l-.125.1875.0626.125h.2812L39 2.9688l.125-.0313.0938.2813.3437-.1563.0313.0625-.0313.0625-.2188.125-.0937-.0313-.0625.2188.0313.0625.0624-.0313h.0938v.0313l-.0313.125.125-.0313.2188.125-.375.1563L39 3.7187l-.375.0938-.125.0938-.0625.3437-.1875.0938.0313.1562.0624-.0313.0626.0938-.0626.1563.1876.0625-.4688.75-.1563.375.1563.6875.0313.375-.1563.375.1563.1562-.0626.2813.0626.1562L41.0624 8l-.0313-.3125-.281-.25v-.1563l.313.0313.157-.1563-.312-.4062.063-.3438.25.0313.125-.0625.219.0938.344-.0938.25.25.75.0313v-.1875h.625V6.125h.1875l-.063-.625-.469-.9063-.219-.75h.344l.031-.6875h.3437l-.0317.6875 1.375.0313.0314-.1875.156-.0313.0936-.0937.3126-.0625.062.0938-.0315.2187.063.2813.125.0937.062-.1563.438-.4375.0628-.1875.219-.2187.5314-.125.812-.4063.313-.4062.3125-.0938.5314-.4375.219-.4062.75-.4688.2813.0625V.4688L50.25.375l.1563-.2188L50.375 0H38zm-3 .7188l-.125.1562-.1563.4688-.25.2812-.1874.0313-.25-.0626-.1563-.0624-.0313-.1876h-.1562l-.5313.25-.3124.0313-.1563.5-.0313.8438-.125.5-.0312.4062.2188.6563-.1876.3437.2188.4375V5.5l.1875.2188L33 6.125l.25.4688-.0625.3125.125.4375.4688.375.0937.1562.125.0625.1563-.0625.1562-.25.0938-.0625.0312-.0313-.0313-.0312.0313-.125.1875-.0625.0938.1563-.3126.0937.3126-.0625.5312.75.125.2813.125.125.4375.0937.2188.1563.1874.4375.4688.3437.25.3438.1563.75.125.0312.2812.2813.5.125.0938-.0938-.0626-.2188-.1874-.2187-.4688-1.125-.8438-1-.4374-.3438-.1876-.375-.2812-.125-.2188-.2187-.1874-.5-.375-.4063-.1876-.6562-.2812-.2188v-.2812l-.0938-.1563.0313-.5937.4375-.375-.3438.0625-.0624-.25v-.25l.1562-.0313.0938.2188.1874.0938.0313.125-.0625.0937.0938.0625.2187-.125.4688-.6563L35.625 3.5l-.125-.1563h-.0313l.125.1875-.1874-.125-.0626-.4687-.0624-.125.0937-.2188.3125-.1562.3438-.0313.1562.1563.0625.2188.3438.0937.25-.0938.3437-.0312.0625-.4063-.4688-.625-.2187-.125-.0625.0626-.1563-.1876-.4374-.2187-.1563-.1875-.5-.125-.0938-.1563L35 .7188zM30.4687 4.25l.1563.1563-.125.0625-.0625-.0625.0313-.1563z" class="district"/>
  <path id="5" d="M51.9063 25v.25l.1874.0313.0313.5937.2813.1563v.1562l-.1563-.0313.3438.4376-.0626.3437-.4687-.0313v.1563l-.1563.0313-.0312.0624.1875.0938v.0938l-.125.0937.1875.2813L52 27.75l-.1875-.125v.3438l-1.8438-.0938.0313.375h-.7188l.1876.5.4062.625.0625.25.5.875.125.0938.1875.625-.2813.0312.1563.125-.2813.5313.0313.0937-.0313 1.8125h.3126L50.625 34h.1875l.4375.4063v.125l-.3438-.0313-.0312.1875h-.125V34.5h-.5313l.0313-.2188-.0938.0313v-.1875h-.1874v.2813l-.2188.3124-.5313-.25-.5624-.0312-.1876.0625.1876.25-.125.375v.2813l.125.2812-.1876.2188-.0624-.0313.0624-.0625-.0312-.125h-.25l-.0625.2188-.0313-.0938h-.6562l-.1875.3125v.1875l-.1563-.1875-.1562.0313-.0313.0937.0938.0313h-.0938V36.5h-.0937v.3438h-.0938l-.0312.6874-2.0938-.0624v.2187l-.1562.1563h.1563V38l.3124.0313.2813.2187-.0313.0938-.5624-.0313V38.5h.25v.3438h.25l.0937.1874h.1875v.125h-.0938v.4063h-.0937v-.0938l-.7813-.0312v.0938h-.1874v.125l.3124.0312.0313.2188.1875.0312.0625-.1563.0938-.0624.5312.125h.25l.0938-.0938.0624.0313-.0312.1874.0313.0626L45.781 40l-.0624.0625.7812.125.0938.0625.2187.4063.0625.4374.4375.5313-.1875.1563v-.0626l-.5625-.0312.0313.125-.0938.2188h-.5313l.0938.125-.0313.75.125.1562h-.2812l-.0313.7188h.6876v.6874l.594.0313v.375l.094-.0625v.375H47v.1875h.1875l-.0313.25.2188.0625v.375l-.1875-.0938-.0313.5938.3438.0313.0313-.3438h.0937l.0625.4063.125.1562.0625.3125.125.1875-.1563-.0313v1.4063l.4063-.0313.125.0626.0625-.0313V48.5l.2813.0313v-.1563h.4687l.25.3438-.125.75L48 49.406v.1876h-.1875v1.5l-.25-.3126h-.4688v.719l3.1876.0625-.0313.3438h.5625v-.5l.1563-.0313v-.1563h-.1876l.125-.6874h-.25l-.0312-.2188.3438-.0313h.0937l.0938.1563.1874-.0625v-.1875l.2813-.0313.0313-.1874.0624-.0313-.0624-.125.1874-.1875v-.0938l.125-.25.3126-.2187.0937-.0313v.0938l.0938.1563.5.0937.3124.1875.2813.0313.1875-.0626.3438.0313.0312-3.5313 4.3125.0938.0313.125 2.0312.0625 5.1875.0938 1.1563.0312v-.2188h.5937l-.625-.5.0625-.4062-.1563-.2813.25-.2812.1876.0625.3124-.0625.1876.0938-.0938-.4063v-.2188l.375-.0624.125-.1563-.0313-.25-.2187-.2188.0938-.1562.0937.0313.1563-.1876.0312-.4062-.0938-.125H68l.0313-.2188.1562-.0624.375.0312.0625-.1875.1563-.1875.4374-.1875.1876.0313.125-.25-.125-.3126.1874-.1562.0313-.3125.5313-.4688.3437-.0312V37.75l-3.875-.0313v.25l-3.4688-.0624V38h-.6874l.0937-4.25h.3438l.1874-8.5625L51.9064 25z" class="district"/>
  <path id="2" d="M37.8438 56.25l-.0313.7188-.6875-.0313-.0625 1.7813-.5313-.0313v.3438h.1876l-.0313.5624h.0625l.0313.1563h.9374l-.0937 1.5625-2.3438-.0313-.3437-.125-.75-.4374-1.5625-.0938-.0938-.0313-1.1562 1.2813-.25.0625v-.1563L31 61.75l-.0938.2188V61.75l-.2187.25-.3438.0625-.0312.75-.3438.8125.1563.0938-.2188.125-.0937.0312-.0625-.125-.125-.0938-.2188.125-.0624-.0624-.0313-.125.0625-.0626.3125.0626.0625-.0626-.1563-.3124-.1562.1562-.1875.0313-.6875-.1876-.0625.4688-.2188-.1563-.3124-.0624-.2813-.2813L27.6562 63l.25-.3438.0626-.5-.0938-.0937-.4375-.1563-.1563-.1874-.2187.2187-.125-.0625-.0938-.2813.0313-.0624-.2813-.1876-.0624-.125.0312-.375-.25-.1874.0313-.2188.1562-.2188-.0625-.1874-.2188-.0938.0313-.2813-.0625-.125-.2813-.0312.125-.25-.1562-.0938-.0313-.125-.2187-.125.0625-.1562-.0625-.1875-.375.1563-.6563.0312-.875.1563V59l.375.0313v.3437l-.6874-.0313v-.25h-.1876L23.25 59l-.4375.0625v.0938h-.0938l-.0312.1562h-.1563V59.5l.1563-.0625v.1563l.1563.0312-.0626.3125.1876-.0313.0624.125v.2188l-.0624.0313.1562.7187.2188.2188-.0938.2812.125.2813-1.6563 1.0624.5626.4688.375.5625.3437-.0313v.0626h.25l.125-.125.2813-.0938.6562.0938v.5312l1.375.0313v.6874l.7188.0313-.0313.6875h.0625l-.1563.3438h-.4374l-.0626.5312-.1874-.0313v.5626h-.1876v.1562H25.5v.0938l.0625.0312v.25l-.0938.0625.2188.5625.3125.2188.2188.3437h3.25l.0624-.0625v-.1563h.5626v.2188H64.625l.0625-.3125.2188-.1875V68l.2187-.3438.125-.0312.1875-.3125-7.7188-.0938.0938-4.3124h-1.5938v.0624l-.0312-.0624-2.5-.0626h-.0313l.0626.125h-.0313l-.0938-.0937-.0312-.0313-1.625-.0312.0313.0313-.5.0312-.4063.25-.5938.1875-.5312-.125-1.125-.5625-.3438-.4688-.6562-.3124-.1875-.5313H47v-.6563l-.2188-.2187-.0624-.1875.1562-.5625-.0313-.3438-.2812-.0937-1.0313.0625-.1562-.2188-.4688-.1874-.0937-.1876-.1563.1876-.0312-.1563-.3438-.1563-.1562.0313-.0938.1563-.25-.0313-.0624.0938-.125-.125-.0626-.2188-.2187-.125-.2813.125-.3437-.0313-.2813-.3124.2188-.2188-.0625-.2188-.375-.3437-.125.125.0313-.25-.2188-.0938-.3438-.625-.0624.0626h-.1563l.1875.3124h-.3125l-.0313.25-.125.0313.0938.4375-.0313.125.125.1875.0313.3125-.5.125-.5-.0938-.3438-.25v-.3124h-.6874v-.125l-.1563.0937H38.5l.0313-.7188.25-.0624v-.2813h-.25v-.3438l-.6876-.0312z" class="district"/>
  <path id="1" d="M40.293 22.981l.054-.154.079.039.319-.132-.025.424.104-.009.19.129.267-.017.135-.061-.032-.102.169-.046.123-.349.323.329.084.19.067.007.028-1.23.152.004.003-.173.28.007.114.18.815.022-.018-1.055.753.02.01-.344 1.378.044.166-.079.214.006.017-.651.219.128.263.531.029.207.215.061.038.124.4.47.818.788-.12.015.492.588-.061-.001.088.151-.024.248.101.369-.021.62.293.03-.014.701-4.676-.134.002.356.084.177-.086-.003-.002.175.095.003.002.166-.369-.012-.049.059.055.298-.06.667-.353-.183.047-.141-.059.041-.046.473-.141-.166-.093.162-.414-.007-.014.769-.159.004.046.277.105.004-.008.068-.148.121-.178-.028-.002.171-.127.034-.18.255-.11.037-.459-.201-.05-.178-.383-.494-.107-.552.371.043.023-.118.189.003-.031-.182.143-.074.718.026-.122-.271.129.006-.004-.441-.159-.006.012-.174.091.001.012-.061-.247-.065.05-1.106-2.938-.109.169-1.16.25-.231.439.014.035-.342z" class="district"/>
</svg>
